<svg width="27" height="35" viewBox="0 0 27 35" fill="none" xmlns="http://www.w3.org/2000/svg">
<g clip-path="url(#clip0)">
<path d="M3.973 34.727C3.773 34.641 3.783 34.492 3.788 34.348C3.788 34.224 3.797 34.108 3.678 34.035C3.64185 34.0598 3.60834 34.0883 3.578 34.12C3.54984 34.1562 3.51454 34.1863 3.47429 34.2083C3.43404 34.2303 3.38969 34.2438 3.344 34.248C3.27268 34.2433 3.20378 34.2202 3.144 34.181C3.139 34.136 3.131 34.089 3.123 34.04C3.07727 33.903 3.07181 33.7557 3.10726 33.6157C3.14271 33.4757 3.21759 33.3488 3.323 33.25C2.94393 32.9885 2.48884 32.8601 2.029 32.885C1.77979 32.9159 1.52745 32.8618 1.31278 32.7315C1.09811 32.6012 0.933651 32.4023 0.846 32.167C0.765462 31.9927 0.627396 31.8515 0.455 31.767C0.327478 31.7124 0.217507 31.6237 0.137219 31.5106C0.0569309 31.3975 0.00944509 31.2644 0 31.126C0.006 31.118 0.1 30.992 0.184 30.854C0.310571 30.6158 0.487052 30.4077 0.701396 30.2439C0.915739 30.0801 1.1629 29.9645 1.426 29.905C1.88696 29.7867 2.33747 29.6308 2.773 29.439C3.25857 29.2202 3.76565 29.0526 4.286 28.939C5.023 28.806 5.159 28.323 5.286 27.855C5.302 27.798 5.318 27.742 5.335 27.685C5.44373 27.3113 5.51739 26.9283 5.555 26.541C5.60871 26.0937 5.68514 25.6495 5.784 25.21C5.95547 24.5256 6.04079 23.8225 6.038 23.117C6.25168 22.6937 6.33651 22.217 6.282 21.746C6.25324 21.3826 6.28707 21.017 6.382 20.665C6.49359 20.2412 6.52346 19.8 6.47 19.365C6.42883 18.9873 6.44332 18.6055 6.513 18.232C6.71039 17.2521 6.77764 16.2505 6.713 15.253C6.703 14.814 6.693 14.36 6.707 13.915C6.738 12.915 6.73 11.907 6.723 10.928C6.723 10.501 6.717 10.059 6.717 9.628C6.717 9.197 6.732 8.723 6.746 8.281C6.80829 7.26375 6.78354 6.24303 6.672 5.23C6.56474 4.33411 6.5153 3.43224 6.524 2.53C6.518 2.007 6.512 1.467 6.481 0.939L7.146 0.277L7.423 0L8.113 0.69C8.18089 0.579806 8.2751 0.488212 8.38716 0.423453C8.49923 0.358694 8.62563 0.322801 8.755 0.319C8.87248 0.32158 8.98805 0.349195 9.094 0.4C10.1908 0.828824 11.1122 1.61292 11.711 2.627C12.444 3.972 13.268 5.297 14.065 6.578C14.279 6.92133 14.4917 7.26433 14.703 7.607C15.394 8.729 16.177 9.907 17.167 11.312C17.417 11.667 17.667 12.03 17.909 12.38C18.7209 13.607 19.6027 14.7863 20.55 15.912C20.7392 16.14 20.9114 16.3816 21.065 16.635C21.2886 17.0362 21.5834 17.3934 21.935 17.689C22.063 17.789 22.056 17.93 22.048 18.07C22.038 18.26 22.028 18.439 22.365 18.46C22.588 18.474 22.659 18.654 22.735 18.846C22.7733 18.976 22.8442 19.0941 22.941 19.189C23.0974 19.3269 23.2298 19.4898 23.333 19.671C23.4103 19.8004 23.5001 19.922 23.601 20.034C23.6975 20.1453 23.7745 20.2721 23.829 20.409C23.8898 20.579 23.9952 20.7296 24.134 20.845C24.3029 20.9849 24.442 21.1573 24.543 21.352C24.596 21.439 24.651 21.53 24.712 21.612C25.1482 22.2134 25.5412 22.845 25.888 23.502C26.0894 23.8647 26.191 24.2742 26.1826 24.689C26.1741 25.1037 26.0559 25.5088 25.84 25.863C25.826 25.888 25.812 25.917 25.797 25.945C25.7681 26.0116 25.7301 26.0739 25.684 26.13C25.5719 26.2618 25.5122 26.4301 25.516 26.603C25.499 26.77 25.482 26.927 25.354 27.003C25.1395 27.1349 24.9319 27.2778 24.732 27.431C24.3589 27.7479 23.9256 27.9861 23.458 28.131C23.1186 28.2201 22.7946 28.3601 22.497 28.546C22.3879 28.6022 22.2655 28.6278 22.143 28.62H22.016C21.8514 28.6064 21.6876 28.6542 21.556 28.754C21.4456 28.8395 21.3097 28.8856 21.17 28.885C21.0629 28.8833 20.9575 28.8573 20.8619 28.809C20.7663 28.7606 20.6829 28.6912 20.618 28.606L20.337 28.888L19.937 29.288L19.863 29.22H19.858L19.798 29.166C19.77 29.1366 19.7388 29.1104 19.705 29.088C19.3176 29.3586 18.8555 29.5019 18.383 29.498C17.8834 29.4892 17.3957 29.6516 17.001 29.958C16.966 29.9317 16.9326 29.9033 16.901 29.873C16.822 29.799 16.741 29.722 16.655 29.722C16.6181 29.7228 16.5827 29.7367 16.555 29.761C16.4244 29.889 16.254 29.9687 16.072 29.987C16 29.9831 15.9295 29.9649 15.8646 29.9334C15.7997 29.902 15.7417 29.858 15.694 29.804C15.6752 29.7841 15.6494 29.7723 15.622 29.771C15.581 29.771 15.55 29.803 15.539 29.856C15.452 30.256 15.216 30.29 14.939 30.29H14.781H14.67C14.4362 30.3163 14.209 30.384 13.999 30.49C13.8648 30.5513 13.7268 30.604 13.586 30.648C13.1862 30.7538 12.7805 30.836 12.371 30.894C11.7632 30.9656 11.1673 31.1155 10.598 31.34C10.5644 31.3552 10.5279 31.363 10.491 31.363C10.4036 31.355 10.3197 31.3251 10.247 31.276H10.241C10.165 31.2251 10.0772 31.1945 9.986 31.187C9.89106 31.1921 9.80163 31.2332 9.736 31.302C9.53858 31.4811 9.28435 31.5848 9.018 31.595C8.95712 31.595 8.89642 31.5883 8.837 31.575C8.80416 31.5677 8.77063 31.5641 8.737 31.564C8.59017 31.5757 8.44726 31.6172 8.317 31.686C8.19043 31.7479 8.05578 31.7917 7.917 31.816C7.61652 31.851 7.3325 31.9719 7.09893 32.1641C6.86536 32.3564 6.69214 32.6119 6.6 32.9L6.5 32.8L6.445 32.745C6.206 32.825 6.07 32.929 6.045 33.054C6.02 33.179 6.091 33.319 6.261 33.482C6.168 33.575 6.061 33.676 5.941 33.802L5.8 33.671L5.7 33.583C5.53772 33.6838 5.41977 33.8425 5.37 34.027C5.282 34.237 5.199 34.435 4.957 34.455C4.6141 34.4826 4.27953 34.5749 3.971 34.727H3.973ZM10.673 7.827C10.6536 7.95551 10.5945 8.07474 10.504 8.168C10.353 8.368 10.198 8.568 10.543 8.837C10.566 8.86701 10.5773 8.90429 10.575 8.942C10.5801 8.97862 10.5719 9.01586 10.552 9.047C10.4321 9.1773 10.3476 9.33619 10.3066 9.50847C10.2656 9.68075 10.2696 9.86067 10.318 10.031C10.3361 10.1619 10.3442 10.2939 10.342 10.426C10.322 10.9 10.326 11.384 10.33 11.851C10.33 12.272 10.338 12.706 10.324 13.133C10.316 13.38 10.318 13.633 10.324 13.872C10.3602 14.5437 10.3003 15.2172 10.146 15.872C10.0068 16.5739 10 17.2956 10.126 18C10.1495 18.3739 10.11 18.7492 10.009 19.11C9.9134 19.4524 9.87389 19.808 9.892 20.163C9.91994 20.6455 9.87818 21.1294 9.768 21.6C9.64874 22.0963 9.61091 22.6086 9.656 23.117C9.66603 23.154 9.66603 23.193 9.656 23.23C9.42908 23.8417 9.28317 24.4804 9.222 25.13C9.16989 25.5741 9.09041 26.0147 8.984 26.449C8.9539 26.5538 8.9175 26.6566 8.875 26.757C8.79204 26.8942 8.74482 27.0501 8.73766 27.2103C8.7305 27.3705 8.76362 27.5299 8.834 27.674C8.89003 27.699 8.95066 27.7119 9.012 27.712C9.13732 27.7023 9.25859 27.6633 9.366 27.598C9.44959 27.5525 9.53912 27.5188 9.632 27.498C9.915 27.446 10.198 27.372 10.473 27.298C10.9808 27.1446 11.5053 27.0533 12.035 27.026C12.0851 26.9313 12.1638 26.8548 12.2598 26.8072C12.3558 26.7597 12.4643 26.7435 12.57 26.761H12.692C12.8463 26.773 13.0007 26.7403 13.137 26.667C13.5111 26.47 13.9282 26.369 14.351 26.373C14.5209 26.3597 14.6863 26.3117 14.837 26.232C14.9825 26.1537 15.1431 26.1073 15.308 26.096C15.3726 26.096 15.4367 26.1065 15.498 26.127C15.6149 26.0176 15.7537 25.9342 15.9053 25.8825C16.0568 25.8308 16.2176 25.8119 16.377 25.827C16.5969 25.8299 16.8155 25.7926 17.022 25.717C17.5903 25.4874 18.1732 25.2959 18.767 25.144C19.144 25.038 19.534 24.929 19.91 24.801C20.3738 24.6387 20.7933 24.3702 21.135 24.017C21.1845 23.7507 21.1791 23.4771 21.1191 23.213C21.0591 22.9488 20.9457 22.6997 20.786 22.481C20.1372 21.3444 19.4188 20.249 18.635 19.201C17.508 17.757 16.449 16.232 15.424 14.757L15.067 14.243C14.3 13.135 13.54 12 12.808 10.9L12.272 10.1C12.121 9.875 11.979 9.638 11.841 9.409C11.5286 8.82981 11.1361 8.29757 10.675 7.828L10.673 7.827Z" fill="#4872C8"/>
</g>
<defs>
<clipPath id="clip0">
<rect width="26.184" height="34.727" fill="white"/>
</clipPath>
</defs>
</svg>
