<svg width="964" height="680" viewBox="0 0 964 680" fill="none" xmlns="http://www.w3.org/2000/svg">
<path d="M64.9495 304.106C96.2795 288.868 128.875 276.34 162.374 266.763C170.809 264.354 179.425 262.065 188.221 261.162C197.319 260.258 206.356 261.222 215.334 262.848C232.625 265.98 249.676 270.558 266.486 275.677C285.585 281.52 304.383 288.205 323.121 294.891C324.205 295.253 324.687 293.566 323.603 293.144C289.381 280.978 254.918 268.751 219.19 261.764C210.875 260.138 202.38 258.813 193.885 259.054C185.269 259.295 176.774 261.041 168.519 263.21C151.589 267.667 134.84 273.208 118.391 279.291C99.8945 286.158 81.8195 293.927 64.106 302.54C63.0215 303.022 63.9253 304.588 64.9495 304.106Z" fill="#E8E8E8"/>
<path d="M234.975 266.281C259.316 259.716 284.199 255.319 309.143 251.585C321.434 249.778 333.725 248.092 346.076 246.405C358.729 244.719 371.441 243.153 384.275 243.032C430.125 242.671 473.746 259.054 517.608 270.016C541.949 276.099 566.832 280.616 592.017 279.954C593.161 279.954 593.161 278.147 592.017 278.147C545.745 279.351 501.762 263.149 457.539 251.886C435.909 246.405 413.918 241.948 391.565 241.225C367.103 240.502 342.642 244.899 318.482 248.332C290.224 252.368 262.088 257.006 234.493 264.474C233.409 264.896 233.891 266.643 234.975 266.281Z" fill="#E8E8E8"/>
<path d="M517.246 294.47C541.648 296.036 566.23 294.771 590.33 290.494C614.369 286.278 638.168 277.063 662.931 278.87C664.076 278.93 664.076 277.123 662.931 277.063C638.771 275.316 615.574 283.989 592.137 288.326C567.435 292.904 542.25 294.289 517.246 292.663C516.102 292.602 516.102 294.409 517.246 294.47Z" fill="#E8E8E8"/>
<path d="M163.639 270.257C158.397 277.424 160.325 287.242 165.507 293.867C171.713 301.818 182.015 305.191 191.234 308.323C196.656 310.19 202.139 312.057 207.019 315.008C209.429 316.454 211.658 318.08 213.647 320.068C215.032 321.513 216.358 323.019 216.057 325.248C215.816 326.994 213.827 328.621 212.562 329.705C207.863 333.861 203.103 337.896 198.343 341.992C194.969 344.883 190.872 348.135 190.45 352.894C189.727 361.206 199.849 364.819 206.296 366.385C218.708 369.457 231.3 371.746 243.952 373.553C269.016 377.107 294.321 378.673 319.626 379.877C345.474 381.082 371.381 381.925 397.228 384.154C403.494 384.696 409.821 385.298 416.087 386.081C420.425 386.623 428.679 388.31 427.835 394.272C427.112 399.211 420.003 402.283 416.448 405.114C411.99 408.607 407.832 412.583 404.097 416.859C400.542 420.955 397.349 425.352 394.577 430.05C392.529 433.543 390.42 437.94 391.565 442.096C392.649 445.89 396.264 447.336 399.819 447.697C405.904 448.3 412.231 447.878 418.316 447.697C443.862 446.854 469.227 443.18 494.653 441.253C507.426 440.289 520.259 439.807 533.092 440.349C544.961 440.891 557.554 441.795 568.881 445.469C573.46 446.914 578.28 449.143 581.473 452.877C585.389 457.455 585.148 463.357 581.955 468.296C578.882 473.055 574.062 476.668 569.724 480.282C564.603 484.499 559.361 488.594 553.999 492.509C548.998 496.123 543.937 499.616 538.756 502.929C537.792 503.531 538.695 505.097 539.659 504.495C550.083 497.749 560.084 490.461 569.664 482.631C576.653 476.909 587.618 469.32 586.112 458.84C584.907 450.709 576.773 446.252 569.724 443.903C558.819 440.289 546.648 439.325 535.321 438.723C509.534 437.338 483.808 440.349 458.201 442.939C445.489 444.204 432.776 445.409 420.003 445.89C413.737 446.131 407.35 446.372 401.084 446.011C398.012 445.83 394.577 445.168 393.372 441.915C392.288 438.904 393.734 435.35 395.12 432.64C400.482 422.461 408.616 413.486 417.593 406.439C422.413 402.645 435.306 395.597 427.112 388.249C424.401 385.84 420.485 384.876 416.93 384.395C410.544 383.551 404.097 382.949 397.71 382.407C384.937 381.263 372.104 380.54 359.271 379.877C333.243 378.552 307.155 377.829 281.127 375.781C255.641 373.794 229.613 370.963 204.85 364.157C200.572 362.952 194.969 360.965 192.86 356.628C189.908 350.484 196.837 345.606 200.874 342.112C205.573 338.017 210.755 334.162 215.153 329.705C218.045 326.753 218.828 323.441 216.177 320.068C209.73 312.057 198.765 308.925 189.426 305.733C179.063 302.179 167.194 297.421 163.338 286.097C161.591 280.978 161.892 275.497 165.145 271.04C165.868 270.196 164.302 269.293 163.639 270.257Z" fill="#E8E8E8"/>
<path d="M197.258 260.861C192.017 268.028 193.945 277.846 199.126 284.471C205.332 292.422 215.635 295.795 224.853 298.927C230.275 300.794 235.758 302.661 240.638 305.612C243.048 307.058 245.278 308.684 247.266 310.672C248.652 312.117 249.977 313.623 249.676 315.851C249.435 317.598 247.447 319.224 246.181 320.309C241.482 324.464 236.722 328.5 231.962 332.596C228.588 335.487 224.491 338.739 224.07 343.497C223.347 351.809 233.469 355.423 239.915 356.989C252.327 360.061 264.919 362.35 277.572 364.157C302.636 367.71 327.941 369.276 353.246 370.481C379.093 371.686 405 372.529 430.848 374.757C437.114 375.299 443.44 375.902 449.706 376.685C454.044 377.227 462.298 378.913 461.455 384.876C460.732 389.815 453.622 392.887 450.067 395.718C445.609 399.211 441.452 403.186 437.716 407.463C434.161 411.559 430.968 415.955 428.197 420.653C426.148 424.147 424.04 428.544 425.184 432.7C426.269 436.494 429.884 437.94 433.439 438.301C439.524 438.903 445.85 438.482 451.935 438.301C477.481 437.458 502.846 433.784 528.272 431.856C541.045 430.893 553.878 430.411 566.711 430.953C578.581 431.495 591.173 432.398 602.5 436.073C607.079 437.518 611.899 439.747 615.092 443.481C619.009 448.059 618.768 453.961 615.574 458.9C612.502 463.658 607.682 467.272 603.344 470.886C598.222 475.102 592.98 479.198 587.618 483.113C582.617 486.727 577.556 490.22 572.375 493.533C571.411 494.135 572.315 495.701 573.279 495.099C583.702 488.353 593.703 481.065 603.283 473.235C610.272 467.513 621.238 459.924 619.731 449.444C618.526 441.313 610.393 436.856 603.344 434.507C592.438 430.893 580.268 429.929 568.941 429.327C543.154 427.941 517.427 430.953 491.821 433.543C479.108 434.808 466.395 436.012 453.622 436.494C447.356 436.735 440.97 436.976 434.704 436.615C431.631 436.434 428.197 435.771 426.992 432.519C425.907 429.507 427.353 425.954 428.739 423.243C434.101 413.064 442.235 404.09 451.212 397.043C456.032 393.248 468.926 386.201 460.732 378.853C458.021 376.444 454.104 375.48 450.549 374.998C444.163 374.155 437.716 373.553 431.33 373.011C418.557 371.866 405.723 371.144 392.89 370.481C366.862 369.156 340.774 368.433 314.746 366.385C289.26 364.398 263.232 361.567 238.469 354.761C234.192 353.556 228.588 351.568 226.48 347.232C223.527 341.088 230.456 336.21 234.493 332.716C239.192 328.62 244.374 324.766 248.772 320.309C251.664 317.357 252.447 314.045 249.796 310.672C243.35 302.661 232.384 299.529 223.045 296.337C212.682 292.783 200.813 288.025 196.957 276.701C195.21 271.582 195.511 266.101 198.765 261.644C199.548 260.861 197.981 259.957 197.258 260.861Z" fill="#E8E8E8"/>
<path d="M93.4477 536.96C134.478 524.191 178.34 516.421 220.937 525.335C232.625 527.804 243.952 531.479 254.797 536.478C255.822 536.96 256.786 535.394 255.701 534.912C216.478 516.782 171.954 516.722 130.26 525.395C117.668 527.985 105.196 531.418 92.9055 535.213C91.8812 535.574 92.3632 537.321 93.4477 536.96Z" fill="#E8E8E8"/>
<path d="M410.423 339.582C420.003 340.847 429.04 335.848 438.56 335.547C448.863 335.186 458.984 338.137 468.745 341.028C469.89 341.329 470.311 339.643 469.227 339.281C459.647 336.45 449.766 333.559 439.704 333.74C429.824 333.861 420.364 339.101 410.483 337.836C409.278 337.595 409.278 339.402 410.423 339.582Z" fill="#E8E8E8"/>
<path d="M462.117 334.885C476.999 329.946 492.965 329.765 507.907 334.463C508.992 334.824 509.474 333.078 508.389 332.716C493.146 327.898 476.818 328.078 461.635 333.138C460.551 333.499 461.033 335.246 462.117 334.885Z" fill="#E8E8E8"/>
<path d="M199.488 447.878C202.56 448.3 205.392 448.059 208.284 447.095C208.766 446.914 209.007 446.493 208.887 446.011C208.405 443.3 207.923 440.59 207.441 437.88C207.019 438.241 206.537 438.542 206.115 438.904C207.682 439.988 209.61 439.446 210.754 437.94C212.803 435.29 210.212 432.278 210.875 429.447C212.321 423.304 220.093 430.772 221.961 432.7C224.732 435.531 226.962 438.783 228.709 442.337C229.251 443.361 230.757 442.457 230.275 441.433C227.383 435.591 222.383 428.544 216.056 425.894C214.068 425.05 211.598 424.81 210.031 426.556C209.248 427.399 208.947 428.544 208.947 429.688C208.947 430.351 209.007 430.953 209.128 431.616C209.188 432.097 209.308 432.519 209.429 433.001C210.212 434.989 209.429 436.434 206.959 437.277C206.236 436.796 205.513 437.579 205.633 438.301C206.115 441.012 206.597 443.722 207.079 446.432C207.26 446.071 207.501 445.71 207.682 445.348C205.091 446.252 202.56 446.553 199.849 446.131C198.825 446.011 198.283 447.758 199.488 447.878Z" fill="#E8E8E8"/>
<path d="M560.747 379.335C561.409 377.769 562.012 376.203 562.735 374.697C563.699 372.589 565.747 371.806 567.916 372.589C570.447 373.493 572.556 374.517 575.267 373.613C577.737 372.77 579.665 370.782 581.412 368.975C582.678 367.71 584.003 366.385 585.63 365.663C587.799 364.699 592.378 365.301 591.414 368.915C591.113 370.059 592.86 370.541 593.161 369.397C593.944 366.385 591.595 363.856 588.642 363.374C585.027 362.772 582.135 365.723 579.786 368.072C577.255 370.602 574.604 373.071 570.748 371.866C569.121 371.324 567.555 370.3 565.808 370.24C561.53 370.059 560.506 375.42 559.18 378.492C558.758 379.516 560.265 380.419 560.747 379.335Z" fill="#E8E8E8"/>
<path d="M775.056 290.494C814.881 297.963 854.887 304.528 895.014 310.069C906.281 311.635 917.487 313.081 928.754 314.526C929.899 314.647 929.899 312.84 928.754 312.72C888.808 307.72 849.043 301.757 809.399 294.891C798.132 292.904 786.805 290.856 775.538 288.748C774.393 288.567 773.911 290.253 775.056 290.494Z" fill="#E8E8E8"/>
<path d="M472.119 558.342C487.121 565.75 503.389 559.607 518.813 557.257C527.91 555.872 536.888 556.776 545.925 557.92C555.143 559.064 564.422 560.209 573.64 561.413C574.785 561.534 574.785 559.727 573.64 559.607C564.964 558.522 556.288 557.438 547.672 556.354C539.117 555.27 530.501 554.125 521.885 555.089C505.799 556.836 488.627 564.545 473.023 556.836C471.998 556.294 471.034 557.86 472.119 558.342Z" fill="#E8E8E8"/>
<path d="M292.996 507.507C299.081 513.59 301.672 522.083 298.9 530.334C298.177 532.563 301.672 533.466 302.395 531.298C305.528 521.842 302.515 511.843 295.526 504.977C293.9 503.291 291.369 505.82 292.996 507.507Z" fill="#E8E8E8"/>
<path d="M299.081 532.141C301.19 537.321 306.01 540.573 311.372 541.537C312.517 541.718 312.999 539.971 311.854 539.79C307.154 538.947 302.696 536.237 300.828 531.659C300.406 530.575 298.659 531.057 299.081 532.141Z" fill="#E8E8E8"/>
<path d="M311.553 539.79C307.877 539.851 302.515 539.309 299.141 541.176C296.43 542.742 295.466 546.235 295.165 549.126C294.381 556.113 299.864 561.233 306.793 559.968C307.938 559.787 307.456 558.041 306.311 558.221C300.105 559.366 296.008 554.246 297.093 548.343C297.635 545.512 298.659 542.802 301.732 542.139C304.865 541.477 308.359 541.597 311.553 541.537C312.697 541.597 312.697 539.79 311.553 539.79Z" fill="#E8E8E8"/>
<path d="M305.829 558.462C302.154 558.763 297.213 560.691 297.996 565.148C298.659 569.063 301.732 573.038 303.901 576.23C305.769 578.941 307.938 581.35 310.287 583.579C318.361 591.168 327.88 596.588 336.737 603.093C345.172 609.357 352.342 617.127 358.367 625.74C359.03 626.704 360.596 625.8 359.933 624.837C352.764 614.658 344.027 605.442 333.484 598.696C324.085 592.673 313.541 585.988 306.672 577.074C305.166 575.146 303.901 573.038 302.636 570.93C301.551 569.123 300.045 567.075 299.744 564.967C299.262 561.715 303.178 560.51 305.829 560.329C306.974 560.149 307.034 558.342 305.829 558.462Z" fill="#E8E8E8"/>
<path d="M294.08 505.88C312.818 513.108 331.194 521.059 345.293 535.815C358.307 549.488 366.681 566.834 370.778 585.205C372.044 590.987 372.887 596.829 373.429 602.672C373.731 605.623 373.911 608.635 374.032 611.586C374.092 612.911 374.092 614.176 374.152 615.501C374.152 615.802 374.092 621.524 373.67 621.223C372.706 620.56 371.803 622.126 372.767 622.789C376.08 625.017 376.02 618.573 376.02 617.187C375.96 611.224 375.659 605.262 374.936 599.359C373.61 587.795 371.019 576.351 366.621 565.569C359.15 547.319 346.437 531.358 329.808 520.637C318.903 513.59 306.672 508.832 294.622 504.194C293.478 503.712 292.996 505.459 294.08 505.88Z" fill="#E8E8E8"/>
<path d="M299.684 512.265C326.013 535.213 347.522 563.943 360.476 596.468C363.97 605.262 366.802 614.296 368.971 623.512C369.212 624.656 370.959 624.174 370.718 623.03C362.765 589.602 345.895 558.703 323.181 532.984C316.252 525.154 308.842 517.806 300.949 511C300.105 510.217 298.84 511.542 299.684 512.265Z" fill="#E8E8E8"/>
<path d="M300.647 531.238C307.456 532.563 314.023 534.55 320.41 537.201C321.494 537.622 321.976 535.875 320.891 535.454C314.505 532.804 307.877 530.816 301.129 529.491C299.985 529.25 299.503 530.997 300.647 531.238Z" fill="#E8E8E8"/>
<path d="M326.796 536.839C328.483 532.563 330.893 528.708 333.906 525.215C334.689 524.371 333.424 523.046 332.64 523.95C329.387 527.624 326.856 531.78 325.049 536.357C324.687 537.442 326.435 537.923 326.796 536.839Z" fill="#E8E8E8"/>
<path d="M363.066 503.23C372.526 524.913 382.889 550.331 370.236 572.978C369.694 574.002 371.2 574.905 371.803 573.881C384.817 550.572 374.393 524.612 364.633 502.327C364.151 501.303 362.584 502.206 363.066 503.23Z" fill="#E8E8E8"/>
<path d="M364.693 501.664C370.176 503.712 379.816 507.206 378.43 514.795C378.25 515.939 379.937 516.421 380.178 515.276C381.804 506.483 371.743 502.447 365.236 499.918C364.091 499.556 363.609 501.303 364.693 501.664Z" fill="#E8E8E8"/>
<path d="M379.816 515.638C382.889 513.048 386.865 515.819 388.552 518.649C390.179 521.36 390.299 524.552 389.034 527.443C388.552 528.527 390.119 529.431 390.601 528.347C392.408 524.251 391.926 519.613 388.974 516.12C386.383 513.048 381.925 511.602 378.551 514.373C377.647 515.096 378.973 516.361 379.816 515.638Z" fill="#E8E8E8"/>
<path d="M388.974 529.852C393.975 529.31 396.686 534.189 398.795 537.984C401.084 542.14 403.133 546.416 404.82 550.873C408.073 559.486 410.001 568.581 410.483 577.736C411.327 593.998 407.531 610.923 394.577 621.825C393.674 622.608 394.999 623.873 395.842 623.09C409.941 611.164 413.556 592.191 412.05 574.604C411.146 564.666 408.615 554.908 404.639 545.753C402.651 541.176 400.421 536.297 397.349 532.322C395.24 529.672 392.468 527.684 388.974 528.106C387.829 528.166 387.829 529.973 388.974 529.852Z" fill="#E8E8E8"/>
<path d="M366.32 504.314C378.671 521.54 389.275 540.694 393.131 561.775C394.999 572.014 395.18 582.675 393.191 592.914C392.227 597.793 390.842 602.672 388.974 607.249C388.01 609.658 386.865 612.068 385.6 614.356C384.395 616.525 382.768 620.741 380.177 621.403C379.033 621.705 379.515 623.451 380.659 623.15C383.732 622.367 385.238 618.693 386.684 616.163C388.733 612.55 390.42 608.815 391.806 604.9C394.637 597.01 396.144 588.638 396.385 580.266C396.927 562.799 391.926 545.753 384.274 530.154C379.635 520.697 374.032 511.843 367.886 503.29C367.163 502.447 365.597 503.351 366.32 504.314Z" fill="#E8E8E8"/>
<path d="M409.218 558.884C409.519 557.86 409.82 556.776 410.122 555.752C410.302 555.089 410.604 553.162 411.025 552.62C412.411 550.813 416.87 552.078 418.798 552.319C419.641 552.379 419.943 551.295 419.461 550.753C417.472 548.705 415.183 545.874 416.267 542.862C417.292 539.971 421.931 538.646 423.738 541.658C424.22 541.296 424.702 540.935 425.184 540.574C423.859 538.947 422.413 536.839 422.594 534.611C422.835 531.78 425.666 529.973 428.378 530.334C429.161 530.455 429.763 529.732 429.402 529.009C426.57 523.227 431.571 516.842 433.439 511.482C435.367 506.001 436.09 500.219 435.849 494.437C435.788 493.292 433.981 493.292 434.041 494.437C434.403 501.905 432.836 509.012 429.763 515.758C427.654 520.276 425.485 525.034 427.835 529.913C428.197 529.491 428.498 529.009 428.859 528.588C425.787 528.166 422.473 529.491 421.208 532.563C419.822 535.936 421.75 539.309 423.859 541.838C424.521 542.621 425.787 541.597 425.305 540.754C423.377 537.502 418.497 537.441 415.966 540.031C412.231 543.886 415.243 548.946 418.255 552.017C418.496 551.475 418.677 550.994 418.918 550.451C416.749 550.211 412.17 548.765 410.302 550.451C408.495 552.078 408.133 556.234 407.531 558.402C407.169 559.546 408.917 560.028 409.218 558.884Z" fill="#E8E8E8"/>
<path d="M434.342 496.304C438.62 505.278 440.608 514.975 442.536 524.672C444.525 535.032 446.573 545.452 446.633 556.053C446.633 572.797 440.608 588.879 430.486 602.069C424.401 610.02 416.99 616.826 408.736 622.367C407.772 623.03 408.676 624.596 409.64 623.933C423.979 614.296 435.849 600.925 442.597 584.904C445.79 577.375 447.778 569.304 448.32 561.112C449.043 550.451 447.296 539.79 445.308 529.31C443.139 517.746 441.03 506.121 435.969 495.4C435.367 494.316 433.8 495.219 434.342 496.304Z" fill="#E8E8E8"/>
<path d="M436.089 503.531C437.596 524.853 435.186 546.235 429.161 566.714C426.088 577.134 422.051 587.313 417.171 597.07C412.592 606.165 407.531 617.549 398.614 623.15C397.65 623.753 398.554 625.319 399.518 624.716C406.145 620.5 410.122 613.694 413.917 607.008C418.195 599.479 421.931 591.71 425.124 583.699C431.631 567.557 435.788 550.512 437.475 533.165C438.439 523.347 438.56 513.409 437.837 503.531C437.776 502.387 435.969 502.387 436.089 503.531Z" fill="#E8E8E8"/>
<path d="M707.937 604.961C706.672 587.614 710.528 570.267 719.204 555.149C718.782 555.27 718.361 555.39 717.939 555.451C719.084 555.993 720.168 556.595 721.313 557.137C722.036 557.498 722.759 556.896 722.638 556.113C722.337 554.607 722.458 553.342 722.94 551.837C722.578 552.017 722.217 552.258 721.855 552.439C722.94 552.74 723.964 553.041 725.048 553.342C725.711 553.523 726.314 552.861 726.133 552.258C725.289 548.705 728.724 546.115 731.134 544.127C733.423 542.2 735.652 540.212 737.701 537.984C741.617 533.767 744.931 529.069 747.642 523.95C747.1 523.95 746.618 523.95 746.076 523.95C752.221 538.044 751.137 554.788 743.545 568.159C739.508 575.267 733.604 580.266 727.639 585.626C721.494 591.107 716.734 597.432 713.902 605.201C713.48 606.286 715.228 606.767 715.649 605.683C719.084 596.287 725.53 589.903 732.881 583.458C738.846 578.218 743.846 572.436 747.16 565.148C753.185 551.897 753.547 536.478 747.702 523.046C747.401 522.444 746.437 522.504 746.136 523.046C742.702 529.491 738.303 535.273 732.941 540.212C729.326 543.525 723.12 546.958 724.446 552.74C724.807 552.379 725.169 552.017 725.53 551.656C724.446 551.355 723.422 551.054 722.337 550.753C721.855 550.632 721.373 550.933 721.253 551.355C720.71 553.162 720.59 554.728 720.951 556.535C721.373 556.173 721.855 555.872 722.277 555.511C721.132 554.969 720.048 554.366 718.903 553.824C718.481 553.583 717.939 553.704 717.638 554.125C708.841 569.484 704.804 587.192 706.13 604.84C706.19 606.105 707.998 606.105 707.937 604.961Z" fill="#E8E8E8"/>
<path d="M752.462 546.175C756.258 542.38 759.632 538.285 762.645 533.828C762.163 533.888 761.681 533.948 761.199 534.008C767.344 541.116 769.935 550.873 768.308 560.149C767.946 562.136 767.404 564.124 766.681 566.051C766.199 567.316 765.657 568.701 764.874 569.786C764.091 570.99 763.488 571.171 762.163 571.653C761.259 571.954 760.415 571.894 759.933 572.918C759.753 573.279 759.933 573.46 759.933 573.821C760.415 574.845 760.717 575.869 760.837 577.013C760.897 577.676 760.897 578.278 760.777 578.941C761.078 578.639 761.379 578.338 761.68 578.037C757.644 578.218 758.005 582.193 756.439 584.904C754.27 588.638 748.908 589.662 745.232 591.288C736.978 594.962 729.567 600.383 723.482 607.069C722.699 607.912 723.964 609.237 724.747 608.333C730.531 602.009 737.4 596.829 745.232 593.215C748.426 591.77 751.98 590.866 754.933 588.879C755.957 588.216 756.861 587.433 757.584 586.409C758.789 584.723 759.21 579.844 761.68 579.724C762.223 579.724 762.524 579.302 762.584 578.82C762.644 577.796 762.645 576.772 762.464 575.748C762.163 574.243 761.44 573.881 762.946 573.279C764.573 572.616 765.175 572.616 766.139 570.99C768.489 567.135 769.875 562.618 770.357 558.161C771.321 548.946 768.489 539.67 762.464 532.683C762.042 532.201 761.319 532.442 761.018 532.864C758.066 537.201 754.812 541.176 751.137 544.85C750.414 545.753 751.679 547.018 752.462 546.175Z" fill="#E8E8E8"/>
<path d="M742.401 540.393C741.798 545.874 737.701 551.234 734.809 555.812C731.857 560.39 728.724 564.786 725.651 569.244C719.686 577.917 713.962 586.711 710.167 596.588C709.745 597.673 711.492 598.154 711.914 597.07C716.011 586.409 722.458 577.013 728.905 567.678C731.977 563.22 735.05 558.763 737.942 554.186C740.533 549.97 743.606 545.452 744.148 540.393C744.389 539.248 742.581 539.248 742.401 540.393Z" fill="#E8E8E8"/>
<path d="M728.181 545.332C727.76 549.608 728.362 553.824 730.049 557.8C730.471 558.884 732.218 558.402 731.797 557.318C730.23 553.463 729.627 549.488 730.049 545.332C730.109 544.187 728.302 544.187 728.181 545.332Z" fill="#E8E8E8"/>
<path d="M725.711 572.556C729.507 573.159 733.122 572.677 736.677 571.111C737.761 570.629 736.797 569.063 735.773 569.545C732.761 570.87 729.507 571.352 726.254 570.81C725.109 570.689 724.567 572.375 725.711 572.556Z" fill="#E8E8E8"/>
<path d="M525.139 623.632C568.459 623.632 611.839 623.632 655.159 623.632C698.478 623.632 741.858 623.632 785.178 623.632C809.639 623.632 834.161 623.632 858.623 623.632C862.117 623.632 862.117 618.211 858.623 618.211C815.303 618.211 771.923 618.211 728.603 618.211C685.284 618.211 641.904 618.211 598.584 618.211C574.122 618.211 549.601 618.211 525.139 618.211C521.645 618.211 521.645 623.632 525.139 623.632Z" fill="#161616"/>
<path d="M750.354 613.513C778.671 613.513 807.049 613.513 835.366 613.513C838.861 613.513 838.861 608.092 835.366 608.092C807.049 608.092 778.671 608.092 750.354 608.092C746.859 608.092 746.859 613.513 750.354 613.513Z" fill="#161616"/>
<path d="M488.808 622.909C496.34 622.909 503.811 622.909 511.342 622.909C514.836 622.909 514.836 617.489 511.342 617.489C503.811 617.489 496.34 617.489 488.808 617.489C485.314 617.489 485.314 622.909 488.808 622.909Z" fill="#161616"/>
<path d="M459.768 623.632C462.901 623.632 466.094 623.632 469.227 623.632C472.722 623.632 472.722 618.211 469.227 618.211C466.094 618.211 462.901 618.211 459.768 618.211C456.273 618.211 456.273 623.632 459.768 623.632Z" fill="#161616"/>
<path d="M848.441 612.008C855.972 612.008 863.443 612.008 870.974 612.008C874.469 612.008 874.469 606.587 870.974 606.587C863.443 606.587 855.972 606.587 848.441 606.587C844.946 606.587 844.946 612.008 848.441 612.008Z" fill="#161616"/>
<path d="M884.048 611.285C887.422 611.285 890.856 611.285 894.23 611.285C897.725 611.285 897.725 605.864 894.23 605.864C890.856 605.864 887.422 605.864 884.048 605.864C880.554 605.864 880.554 611.285 884.048 611.285Z" fill="#161616"/>
<path d="M216.358 628.993C259.376 628.993 302.395 628.993 345.413 628.993C348.908 628.993 348.908 623.572 345.413 623.572C302.395 623.572 259.376 623.572 216.358 623.572C212.863 623.572 212.863 628.993 216.358 628.993Z" fill="#161616"/>
<path d="M176.292 613.453C190.752 613.453 205.212 613.453 219.672 613.453C223.166 613.453 223.166 608.032 219.672 608.032C205.212 608.032 190.752 608.032 176.292 608.032C172.797 608.032 172.797 613.453 176.292 613.453Z" fill="#161616"/>
<path d="M237.506 616.766C242.326 616.766 247.146 616.766 251.966 616.766C255.46 616.766 255.46 611.345 251.966 611.345C247.146 611.345 242.326 611.345 237.506 611.345C234.011 611.345 234.011 616.766 237.506 616.766Z" fill="#161616"/>
<path d="M347.04 215.627C349.691 210.568 352.764 205.809 356.379 201.352C358.548 198.642 354.752 194.787 352.523 197.498C348.606 202.316 345.233 207.375 342.341 212.856C340.714 215.928 345.413 218.699 347.04 215.627Z" fill="#161616"/>
<path d="M372.707 178.465C374.333 174.369 376.864 170.875 379.997 167.864C382.527 165.455 378.731 161.66 376.141 164.009C372.225 167.623 369.393 172.02 367.405 176.959C366.2 180.271 371.441 181.657 372.707 178.465Z" fill="#161616"/>
<path d="M395.843 144.253C399.458 139.977 403.073 135.7 406.688 131.424C408.917 128.774 405.121 124.919 402.832 127.569C399.217 131.846 395.601 136.122 391.986 140.399C389.817 143.109 393.613 146.964 395.843 144.253Z" fill="#161616"/>
<path d="M427.353 104.802C432.354 100.586 437.294 96.3696 442.295 92.2137C444.946 89.9851 441.09 86.1303 438.439 88.3589C433.438 92.5751 428.498 96.7912 423.497 100.947C420.846 103.236 424.702 107.031 427.353 104.802Z" fill="#161616"/>
<path d="M472.36 74.7467C476.035 73.4216 479.71 72.8795 483.566 73.1807C487.061 73.4216 487.061 68.0008 483.566 67.7599C479.228 67.4587 475.011 68.0611 470.914 69.5066C467.66 70.651 469.046 75.8911 472.36 74.7467Z" fill="#161616"/>
<path d="M512.727 74.7467C515.378 76.0115 517.487 78.1196 518.451 80.9505C519.596 84.2632 524.838 82.8176 523.693 79.5049C522.307 75.4092 519.415 71.9158 515.499 70.0487C514.173 69.4464 512.547 69.6873 511.763 71.0124C511.04 72.217 511.402 74.1444 512.727 74.7467Z" fill="#161616"/>
<path d="M285.944 344.305C285.823 358.705 285.642 373.044 285.522 387.444C319.382 386.48 353.243 385.456 387.043 384.492C393.972 389.854 400.84 395.216 407.769 400.579C405.961 389.975 404.094 379.431 402.286 368.827C401.744 360.091 401.142 351.354 400.599 342.618C362.401 343.16 324.142 343.763 285.944 344.305Z" fill="#4872C8"/>
<path d="M282.268 237.422C281.124 258.268 279.979 279.054 278.894 299.901C272.93 307.312 266.965 314.783 261 322.193C268.11 320.265 275.219 318.337 282.329 316.409C324.624 314.963 366.92 313.518 409.215 312.072C408.07 287.068 406.926 262.004 405.841 237C364.57 237.121 323.419 237.241 282.268 237.422Z" fill="#E91E63"/>
<path d="M353.303 265.137C354.147 280.139 364.931 292.49 379.692 295.262C380.837 295.443 381.319 293.756 380.174 293.515C366.197 290.924 355.894 279.356 355.111 265.137C354.99 263.932 353.183 263.932 353.303 265.137Z" fill="#E8E8E8"/>
<path d="M380.114 295.201C385.898 295.623 391.08 287.128 393.189 282.669C395.96 276.644 396.804 270.017 395.538 263.57C395.297 262.425 393.55 262.907 393.791 264.052C394.876 269.655 394.273 275.379 392.104 280.681C391.02 283.272 389.634 285.742 387.826 287.911C386.079 290.08 383.187 293.635 380.114 293.394C378.969 293.273 378.969 295.081 380.114 295.201Z" fill="#E8E8E8"/>
<path d="M385.175 293.334C387.585 296.286 390.839 298.334 394.514 299.359C395.659 299.66 396.141 297.913 394.996 297.611C391.562 296.647 388.67 294.78 386.44 292.068C385.717 291.165 384.452 292.49 385.175 293.334Z" fill="#E8E8E8"/>
<path d="M392.767 281.706C393.49 282.85 394.273 283.935 395.177 284.959C396.02 285.863 397.527 286.646 398.25 287.61C400.358 290.442 396.322 295.925 394.574 298.094C393.851 298.997 395.418 299.901 396.141 298.997C398.129 296.407 400.901 292.069 400.78 288.574C400.72 287.61 400.358 287.068 399.696 286.405C397.768 284.357 395.84 283.212 394.273 280.742C393.67 279.778 392.104 280.681 392.767 281.706Z" fill="#E8E8E8"/>
<path d="M391.622 283.513C391.321 286.405 390.598 289.177 389.333 291.828C389.152 292.249 388.73 292.792 388.61 293.213C388.308 294.298 389.092 292.551 389.272 292.31C389.995 291.044 390.598 289.719 391.2 288.454C390.658 288.213 390.116 287.972 389.574 287.731C389.031 289.478 388.128 290.803 386.682 292.008C387.164 292.37 387.645 292.731 388.127 293.093C389.393 290.984 390.598 288.875 391.863 286.706C392.466 285.682 390.959 284.899 390.297 285.803C388.971 287.61 387.645 289.418 386.32 291.165C385.717 292.008 387.043 293.033 387.766 292.249C389.212 290.562 390.297 288.755 391.02 286.706C391.441 285.622 389.694 285.14 389.272 286.224C388.61 288.032 387.706 289.538 386.44 290.984C386.922 291.346 387.405 291.707 387.887 292.069C389.212 290.261 390.538 288.454 391.863 286.706C391.321 286.405 390.839 286.104 390.297 285.803C389.031 287.911 387.826 290.02 386.561 292.189C386.019 293.153 387.224 293.876 388.007 293.274C389.694 291.948 390.779 290.261 391.381 288.213C391.682 287.249 390.176 286.586 389.754 287.49C389.092 288.755 388.429 290.08 387.826 291.346C387.465 292.069 386.862 292.972 386.983 293.816C387.043 294.84 388.067 295.744 389.152 295.382C390.598 294.9 391.321 292.249 391.803 290.984C392.767 288.574 393.309 286.044 393.61 283.453C393.55 282.368 391.743 282.368 391.622 283.513Z" fill="#E8E8E8"/>
<path d="M374.873 292.49C369.872 291.707 365.654 294.961 362.28 298.335C358.545 302.07 355.773 306.589 354.809 311.77C354.568 312.915 356.315 313.397 356.556 312.252C357.34 307.975 359.388 304.239 362.28 300.986C365.172 297.672 369.631 293.454 374.391 294.238C375.535 294.418 376.017 292.671 374.873 292.49Z" fill="#E8E8E8"/>
<path d="M368.848 267.245C370.715 272.126 372.824 276.946 375.053 281.645C375.415 282.368 376.499 282.127 376.68 281.404C377.222 279.235 377.463 277.126 377.343 274.897C377.283 273.752 375.475 273.752 375.535 274.897C375.656 276.946 375.475 278.934 374.933 280.922C375.475 280.862 376.017 280.802 376.56 280.681C374.391 276.102 372.342 271.463 370.535 266.703C370.173 265.679 368.426 266.161 368.848 267.245Z" fill="#E8E8E8"/>
<path d="M360.473 273.813C360.051 273.03 360.834 272.186 361.557 271.945C362.642 271.584 363.786 272.005 364.871 272.307C365.955 272.668 366.437 270.921 365.353 270.559C363.606 270.017 361.497 269.595 359.93 270.8C358.725 271.764 358.183 273.331 358.966 274.717C359.448 275.741 361.015 274.837 360.473 273.813Z" fill="#E8E8E8"/>
<path d="M379.391 269.716C379.994 267.065 382.946 265.92 385.055 267.848C385.898 268.631 387.224 267.366 386.32 266.583C383.308 263.811 378.548 265.197 377.644 269.234C377.403 270.378 379.15 270.86 379.391 269.716Z" fill="#E8E8E8"/>
<path d="M383.247 271.704C383.187 271.764 383.066 271.885 383.006 271.945C382.645 272.306 382.645 272.849 383.006 273.21C383.368 273.572 383.91 273.572 384.272 273.21C384.332 273.15 384.452 273.029 384.513 272.969C384.874 272.608 384.874 272.065 384.513 271.704C384.151 271.342 383.609 271.342 383.247 271.704Z" fill="#E8E8E8"/>
<path d="M387.284 270.017C387.344 270.198 387.465 270.318 387.525 270.499C387.766 270.921 388.368 271.041 388.79 270.8C389.212 270.559 389.332 270.017 389.091 269.535C389.031 269.354 388.911 269.234 388.85 269.053C388.609 268.631 388.007 268.511 387.585 268.752C387.164 268.993 387.043 269.535 387.284 270.017Z" fill="#E8E8E8"/>
<path d="M386.742 274.114C386.802 274.174 386.922 274.295 386.983 274.355C387.344 274.716 387.886 274.716 388.248 274.355C388.609 273.993 388.609 273.451 388.248 273.09C388.188 273.029 388.067 272.909 388.007 272.849C387.645 272.487 387.103 272.487 386.742 272.849C386.38 273.21 386.38 273.752 386.742 274.114Z" fill="#E8E8E8"/>
<path d="M361.858 278.151C361.858 278.211 361.858 278.331 361.858 278.392C361.858 278.874 362.28 279.295 362.762 279.295C363.244 279.295 363.666 278.874 363.666 278.392C363.666 278.331 363.666 278.211 363.666 278.151C363.666 277.669 363.244 277.247 362.762 277.247C362.22 277.247 361.858 277.608 361.858 278.151Z" fill="#E8E8E8"/>
<path d="M365.956 276.464C365.654 276.464 365.413 276.464 365.112 276.464C365.474 276.765 366.016 276.825 366.377 276.464C366.739 276.102 366.739 275.5 366.377 275.198C365.835 274.716 365.172 274.716 364.63 275.198C364.269 275.5 364.329 276.162 364.63 276.464C365.052 276.825 365.594 276.765 365.956 276.464Z" fill="#E8E8E8"/>
<path d="M366.919 279.537C366.919 279.476 366.919 279.356 366.919 279.296C366.919 278.814 366.498 278.392 366.016 278.392C365.534 278.392 365.112 278.814 365.112 279.296C365.112 279.356 365.112 279.476 365.112 279.537C365.112 280.019 365.534 280.44 366.016 280.44C366.498 280.38 366.919 280.019 366.919 279.537Z" fill="#E8E8E8"/>
<path d="M362.521 263.329C361.015 262.365 359.087 262.847 358.002 264.233C357.701 264.595 357.942 265.257 358.304 265.498C358.786 265.8 359.268 265.559 359.569 265.197C360.051 264.595 360.955 264.534 361.557 264.956C362.642 265.498 363.545 263.932 362.521 263.329Z" fill="#E8E8E8"/>
<path d="M376.921 261.281C377.644 260.979 378.427 260.799 379.271 260.738C380.416 260.678 380.416 258.871 379.271 258.931C378.126 258.991 377.041 259.232 376.017 259.714C375.595 259.895 375.475 260.558 375.716 260.979C375.957 261.401 376.439 261.461 376.921 261.281Z" fill="#E8E8E8"/>
<path d="M377.343 286.586C379.994 286.827 382.464 285.08 383.307 282.549C383.669 281.465 381.922 280.982 381.56 282.067C380.958 283.874 379.211 284.959 377.343 284.778C376.198 284.658 376.198 286.465 377.343 286.586Z" fill="#E8E8E8"/>
<path d="M400.599 288.755C402.588 288.634 404.455 289.056 406.203 290.02C407.227 290.562 408.131 288.996 407.106 288.453C405.058 287.369 402.889 286.827 400.599 286.947C399.455 287.007 399.455 288.815 400.599 288.755Z" fill="#E8E8E8"/>
<path d="M356.014 245.375C350.953 247.664 347.037 252.123 345.651 257.545C344.808 260.859 345.41 264.112 345.29 267.486C345.109 271.282 343.362 274.656 342.217 278.211C338.903 288.514 344.567 299.841 355.05 302.974C356.195 303.275 356.617 301.588 355.532 301.226C350.531 299.72 346.495 296.045 344.386 291.285C342.096 286.043 343 281.103 344.928 275.921C345.772 273.692 346.615 271.463 346.916 269.053C347.278 266.161 346.675 263.269 346.977 260.377C347.519 254.412 351.556 249.351 356.918 246.941C357.942 246.459 357.038 244.953 356.014 245.375Z" fill="#E8E8E8"/>
<path d="M354.628 265.016C361.075 262.004 365.895 256.762 368.426 250.135C368.848 249.05 367.1 248.568 366.679 249.653C364.329 255.798 359.689 260.678 353.725 263.45C352.64 263.932 353.604 265.498 354.628 265.016Z" fill="#E8E8E8"/>
<path d="M369.209 249.773C371.197 253.267 375.354 254.834 379.03 256.039C383.669 257.605 388.549 258.268 393.429 258.208C394.574 258.208 394.574 256.4 393.429 256.4C389.393 256.461 385.416 255.979 381.56 254.894C377.825 253.87 372.824 252.424 370.775 248.809C370.233 247.845 368.667 248.749 369.209 249.773Z" fill="#E8E8E8"/>
<path d="M393.851 259.232C395.237 256.762 398.792 257.063 399.635 259.895C400.479 262.666 398.189 264.956 395.538 265.257C394.393 265.378 394.393 267.185 395.538 267.065C399.575 266.583 402.949 262.787 401.081 258.69C399.334 254.954 394.273 254.894 392.285 258.389C391.742 259.292 393.249 260.196 393.851 259.232Z" fill="#E8E8E8"/>
<path d="M394.996 265.92C393.671 273.632 394.454 284.055 401.081 289.297C401.985 290.02 403.25 288.755 402.347 288.032C396.322 283.272 395.478 273.572 396.743 266.462C396.984 265.257 395.237 264.775 394.996 265.92Z" fill="#E8E8E8"/>
<path d="M355.713 247.423C359.69 245.375 363.907 243.146 368.486 243.206C372.402 243.266 375.656 245.074 379.632 244.351C383.79 243.628 387.585 241.7 391.923 241.459C396.382 241.218 401.202 241.941 404.335 245.375C405.118 246.218 406.383 244.953 405.6 244.11C399.515 237.482 389.754 239.711 382.223 241.88C379.211 242.784 376.56 243.025 373.487 242.242C371.318 241.7 369.33 241.278 367.04 241.459C362.702 241.88 358.665 243.869 354.87 245.857C353.785 246.399 354.689 247.966 355.713 247.423Z" fill="#E8E8E8"/>
<path d="M355.05 301.407C354.869 301.468 354.628 301.528 354.448 301.528C353.484 301.769 353.664 302.974 354.448 303.275C355.894 303.878 357.4 304.058 358.967 303.878C360.111 303.757 360.111 301.95 358.967 302.07C357.581 302.251 356.255 302.07 354.93 301.528C354.93 302.13 354.93 302.673 354.93 303.275C355.11 303.215 355.351 303.155 355.532 303.155C356.617 302.914 356.135 301.166 355.05 301.407Z" fill="#E8E8E8"/>
<path d="M293.113 259.413C294.017 260.799 296.186 260.497 296.487 258.81C296.608 258.268 295.764 258.027 295.644 258.569C295.463 259.413 294.439 259.714 293.897 258.991C293.595 258.509 292.812 258.931 293.113 259.413Z" fill="#E8E8E8"/>
<path d="M300.042 258.75C300.404 259.353 300.825 260.015 301.609 260.136C302.271 260.256 302.874 259.955 303.115 259.292C303.296 258.75 302.452 258.509 302.271 259.051C302.151 259.292 301.789 259.232 301.609 259.112C301.307 258.931 301.127 258.569 300.946 258.208C300.524 257.786 299.741 258.208 300.042 258.75Z" fill="#E8E8E8"/>
<path d="M298.114 260.377C298.174 260.497 298.234 260.618 298.295 260.738V260.678C298.234 260.799 298.234 260.919 298.174 260.979C298.174 260.979 298.174 260.919 298.234 260.919C298.114 260.979 297.994 260.979 297.933 261.04H297.993C297.873 260.979 297.753 260.919 297.632 260.799C297.512 260.618 297.451 260.979 297.451 261.1C297.451 261.341 297.512 261.642 297.512 261.883C297.512 262.124 297.511 262.365 297.391 262.546C297.331 262.666 297.09 262.847 296.969 262.727C296.548 262.365 295.885 262.968 296.307 263.389C296.728 263.751 297.21 263.751 297.692 263.45C298.174 263.148 298.355 262.606 298.355 262.004C298.355 261.582 298.295 261.281 298.415 260.919C298.475 260.678 298.475 260.497 298.355 260.317C297.993 259.835 297.451 260.196 297.391 260.678C297.391 260.799 297.512 260.979 297.632 261.04C297.632 261.04 297.632 261.04 297.692 261.04C298.174 261.461 298.656 260.678 298.114 260.377Z" fill="#E8E8E8"/>
<path d="M297.692 260.738C297.873 261.582 297.632 262.486 298.295 263.209C298.777 263.751 299.5 263.871 300.102 263.389C300.524 263.028 299.922 262.365 299.44 262.727C299.078 263.028 298.716 262.124 298.716 261.943C298.656 261.461 298.656 260.979 298.596 260.497C298.415 259.955 297.572 260.196 297.692 260.738Z" fill="#E8E8E8"/>
<path d="M294.198 256.461C294.619 256.461 295.101 256.461 295.523 256.461C296.126 256.461 296.126 255.557 295.523 255.557C295.101 255.557 294.619 255.557 294.198 255.557C293.595 255.557 293.595 256.461 294.198 256.461Z" fill="#E8E8E8"/>
<path d="M300.765 256.642C301.187 256.642 301.548 256.702 301.91 256.943C302.392 257.244 302.874 256.461 302.392 256.16C301.91 255.858 301.367 255.738 300.825 255.738C300.162 255.738 300.162 256.642 300.765 256.642Z" fill="#E8E8E8"/>
<path d="M297.752 266.763C291.848 267.125 292.39 260.859 291.004 257.003C290.643 255.858 289.98 254.894 289.558 253.749C287.992 249.291 291.426 252.424 292.571 254.051C292.932 254.533 293.716 254.051 293.354 253.569C292.691 252.605 290.281 249.05 288.835 249.472C287.329 249.893 288.293 253.087 288.655 253.99C289.317 255.798 290.221 257.244 290.583 259.172C290.884 260.919 290.944 262.727 291.848 264.293C293.053 266.462 295.222 267.788 297.692 267.607C298.295 267.667 298.295 266.763 297.752 266.763Z" fill="#E8E8E8"/>
<path d="M293.595 254.352C296.487 252.786 299.5 252.665 302.452 254.051C302.693 254.171 302.934 254.111 303.054 253.87C303.838 252.424 304.802 251.34 306.127 250.376C305.886 250.255 305.585 250.135 305.344 250.074C305.464 253.388 305.585 256.883 305.043 260.136C304.259 264.715 301.247 266.402 296.909 266.944C296.367 267.005 296.306 267.908 296.909 267.848C300.464 267.366 303.717 266.523 305.223 262.968C306.85 259.112 306.428 254.171 306.248 250.074C306.248 249.653 305.766 249.532 305.464 249.773C304.621 250.436 303.657 252.183 302.753 252.665C301.729 253.207 300.524 252.424 299.379 252.304C297.15 252.063 295.041 252.605 293.053 253.629C292.631 253.87 293.053 254.653 293.595 254.352Z" fill="#E8E8E8"/>
<path d="M293.113 265.317C291.487 267.968 292.089 271.162 292.571 274.114C293.294 278.633 294.62 283.031 295.945 287.369C296.126 287.911 296.969 287.67 296.789 287.128C295.825 283.874 294.8 280.561 294.077 277.247C293.294 273.813 291.908 268.993 293.897 265.799C294.198 265.317 293.415 264.835 293.113 265.317Z" fill="#E8E8E8"/>
<path d="M295.885 287.008C294.74 287.188 291.065 288.393 292.209 290.201C292.631 290.864 293.535 290.984 294.258 291.044C295.644 291.165 297.029 290.924 298.355 290.502C298.897 290.321 298.656 289.478 298.114 289.659C296.909 290.02 294.981 290.623 293.716 290.141C293.475 290.02 292.993 289.598 293.113 289.297C293.173 289.116 293.716 288.875 293.957 288.755C294.68 288.393 295.403 288.092 296.186 287.972C296.728 287.731 296.487 286.887 295.885 287.008Z" fill="#E8E8E8"/>
<path d="M298.536 273.03C298.958 277.97 299.5 282.85 300.223 287.791C300.283 288.393 301.187 288.092 301.066 287.55C300.343 282.73 299.801 277.91 299.379 273.03C299.44 272.427 298.536 272.427 298.536 273.03Z" fill="#E8E8E8"/>
<path d="M300.584 287.429C299.259 287.61 296.909 288.755 298.114 290.502C299.44 292.37 303.175 290.803 304.742 290.201C305.284 290.02 305.043 289.116 304.501 289.357C303.476 289.779 302.452 290.141 301.368 290.321C300.886 290.382 299.982 290.562 299.5 290.321C298.717 289.418 298.777 288.815 299.681 288.574C299.982 288.454 300.283 288.393 300.584 288.393C301.127 288.273 301.127 287.369 300.584 287.429Z" fill="#E8E8E8"/>
<path d="M304.922 262.968C307.332 264.414 307.875 266.884 308.959 269.294C309.742 271.041 310.706 272.246 312.152 273.512C314.261 275.319 316.189 276.705 316.972 279.597C317.756 282.609 317.093 285.742 316.249 288.634C316.069 289.177 316.972 289.418 317.093 288.875C318.539 283.875 319.081 278.392 314.864 274.536C313.9 273.632 312.755 272.909 311.851 272.005C310.526 270.62 309.863 269.053 309.2 267.306C308.357 265.197 307.453 263.39 305.465 262.185C304.862 261.883 304.44 262.667 304.922 262.968Z" fill="#E8E8E8"/>
<path d="M312.152 278.09C310.164 277.789 308.537 279.476 307.935 281.344C307.091 283.874 309.26 286.405 310.706 288.212C310.827 287.971 310.947 287.67 311.007 287.429C309.079 287.61 307.513 288.212 305.946 289.357C305.766 289.478 305.645 289.779 305.766 289.96C307.272 291.888 310.706 291.044 312.815 291.044C315.044 290.984 317.274 290.803 317.213 287.971C317.213 287.369 316.31 287.369 316.31 287.971C316.37 290.863 310.646 290.201 309.079 290.201C308.718 290.201 308.417 290.201 308.055 290.201C306.91 290.02 306.669 289.779 307.332 289.478C307.633 288.694 310.345 288.393 311.007 288.333C311.429 288.273 311.55 287.851 311.309 287.55C310.525 286.525 309.441 285.32 309.019 284.055C308.417 282.428 309.14 278.512 311.911 278.934C312.514 279.054 312.755 278.211 312.152 278.09Z" fill="#E8E8E8"/>
<path d="M304.079 282.248C304.32 284.658 304.44 287.068 304.5 289.478C304.5 290.08 305.404 290.08 305.404 289.478C305.344 287.068 305.223 284.658 304.982 282.248C304.922 281.706 304.018 281.706 304.079 282.248Z" fill="#E8E8E8"/>
<path d="M305.043 287.791C306.911 288.695 308.899 288.875 310.827 288.273C311.369 288.092 311.128 287.249 310.586 287.429C308.839 287.911 307.091 287.791 305.465 287.008C304.983 286.767 304.501 287.55 305.043 287.791Z" fill="#E8E8E8"/>
<path d="M317.756 284.838C319.442 283.694 320.647 282.187 321.069 280.139C321.732 276.885 319.684 273.873 321.13 270.68C322.274 268.209 324.202 266.342 324.744 263.631C325.347 260.558 324.142 257.425 324.865 254.352C325.046 253.629 325.287 252.665 325.829 252.063C326.371 250.858 327.215 251.159 328.239 253.027C328.118 253.328 327.998 253.629 327.877 253.93C327.697 255.437 326.552 257.003 326.251 258.569C326.01 259.955 326.13 261.341 325.949 262.727C325.708 264.715 324.744 266.281 323.841 268.089C322.575 270.68 322.816 272.969 322.937 275.801C323.118 280.079 321.431 283.633 317.575 285.682C317.033 285.983 317.515 286.766 318.057 286.465C320.587 285.079 322.575 282.971 323.419 280.199C324.744 275.982 322.937 271.945 325.046 267.788C325.829 266.161 326.612 264.775 326.853 262.968C327.154 260.859 326.974 259.052 327.636 256.943C328.118 255.437 330.83 251.34 328.781 249.894C327.456 248.99 325.708 250.556 325.046 251.52C323.238 254.051 323.78 257.304 323.901 260.257C324.021 262.968 323.539 265.076 322.093 267.366C321.31 268.571 320.467 269.776 319.985 271.162C318.358 275.861 322.575 280.5 317.334 284.115C316.852 284.417 317.274 285.2 317.756 284.838Z" fill="#E8E8E8"/>
<path d="M338.18 300.564C336.071 300.142 334.204 300.805 332.517 302.13C331.312 303.034 329.745 304.36 329.986 306.047C330.709 310.445 337.638 307.854 339.807 306.408C340.771 305.745 339.867 304.179 338.903 304.842C337.999 305.444 337.096 305.926 336.071 306.227C335.409 306.408 334.746 306.589 334.083 306.589C333.179 306.649 332.818 306.709 332.336 305.806C331.854 304.902 332.095 304.902 332.758 304.239C333.179 303.817 333.601 303.516 334.083 303.154C335.168 302.431 336.373 302.01 337.698 302.251C338.843 302.552 339.325 300.805 338.18 300.564Z" fill="#E8E8E8"/>
<path d="M336.373 300.022C336.011 297.31 335.228 294.72 333.842 292.31C332.939 290.743 330.95 287.309 328.842 287.068C324.262 286.526 329.203 298.515 329.986 300.142C330.529 301.166 332.035 300.263 331.553 299.238C330.649 297.371 329.926 295.503 329.444 293.515C329.203 292.49 328.721 290.984 328.842 290.02C328.842 289.719 328.781 289.478 328.781 289.177C329.263 289.418 329.685 289.779 330.047 290.201C332.577 292.792 334.083 296.467 334.565 300.022C334.746 301.106 336.554 301.166 336.373 300.022Z" fill="#E8E8E8"/>
<path d="M331.613 299.178C330.287 296.647 324.805 288.092 321.069 291.406C317.334 294.719 324.021 301.889 326.371 304.058C327.215 304.841 328.48 303.576 327.636 302.793C326.371 301.588 325.166 300.323 324.202 298.937C323.66 298.154 321.009 294.237 321.913 293.394C322.636 293.273 323.359 293.153 324.082 293.032C324.624 293.394 325.106 293.816 325.588 294.237C326.13 294.719 326.672 295.322 327.215 295.864C328.359 297.129 329.263 298.575 330.046 300.082C330.589 301.166 332.155 300.262 331.613 299.178Z" fill="#E8E8E8"/>
<path d="M326.251 303.335C324.202 301.648 321.19 303.335 321.371 305.926C321.612 309.421 325.528 310.144 328.239 309.36C329.384 309.059 328.902 307.312 327.757 307.613C326.311 308.035 324.323 308.155 323.419 306.589C323.058 305.986 322.997 305.263 323.54 304.781C323.901 304.42 324.564 304.239 324.985 304.601C325.829 305.384 327.094 304.119 326.251 303.335Z" fill="#E8E8E8"/>
<path d="M322.334 305.926C319.804 306.709 319.804 309.722 321.25 311.529C322.696 313.337 325.467 314.542 327.516 312.975C328.42 312.252 327.155 310.987 326.251 311.71C325.287 312.433 323.72 311.469 323.057 310.806C322.334 310.083 321.37 308.155 322.877 307.673C323.961 307.312 323.479 305.565 322.334 305.926Z" fill="#E8E8E8"/>
<path d="M337.156 300.684C341.554 300.684 342.88 308.939 342.036 312.011C341.735 313.156 343.482 313.638 343.784 312.493C344.989 308.155 342.94 298.877 337.156 298.877C335.951 298.877 335.951 300.684 337.156 300.684Z" fill="#E8E8E8"/>
<path d="M294.137 363.465C314.924 363.465 335.71 363.465 356.496 363.465C357.641 363.465 357.641 361.657 356.496 361.657C335.71 361.657 314.924 361.657 294.137 361.657C292.993 361.657 292.993 363.465 294.137 363.465Z" fill="#E8E8E8"/>
<path d="M310.104 371.538C329.263 371.538 348.423 371.538 367.522 371.538C368.667 371.538 368.667 369.731 367.522 369.731C348.363 369.731 329.203 369.731 310.104 369.731C308.959 369.731 308.959 371.538 310.104 371.538Z" fill="#E8E8E8"/>
<path d="M364.027 363.163C366.437 363.163 368.847 363.163 371.257 363.163C372.402 363.163 372.402 361.356 371.257 361.356C368.847 361.356 366.437 361.356 364.027 361.356C362.883 361.356 362.883 363.163 364.027 363.163Z" fill="#E8E8E8"/>
<path d="M384.573 368.586C382.343 367.562 380.656 365.754 380.054 363.344C379.753 362.2 379.512 360.512 380.295 359.488C381.801 357.379 383.609 360.272 384.091 361.778C384.332 362.561 385.657 362.682 385.838 361.778C385.898 361.356 386.019 360.934 386.139 360.513C386.621 358.705 387.766 358.886 389.634 360.934C389.935 362.019 389.212 363.826 388.73 364.73C387.706 366.779 386.019 368.225 383.97 369.249C382.946 369.731 383.85 371.297 384.874 370.815C388.73 369.008 392.948 363.706 391.02 359.187C390.417 357.801 388.971 356.717 387.405 356.958C385.296 357.259 384.392 359.488 384.03 361.296C384.633 361.296 385.175 361.296 385.778 361.296C384.754 357.982 380.415 354.126 378.427 359.006C376.68 363.284 379.813 368.345 383.669 370.153C384.693 370.635 385.597 369.068 384.573 368.586Z" fill="#E8E8E8"/>
<path d="M638.108 570.087C636.963 574.243 639.373 575.869 637.806 580.627C637.144 582.555 635.758 585.385 628.227 591.168C621.539 596.287 615.454 599.54 613.646 600.443C603.946 605.503 600.09 605.864 597.861 610.321C597.559 610.923 595.33 615.441 597.258 618.392C599.909 622.428 607.983 619.356 624.853 618.091C639.614 617.007 640.819 618.753 652.086 617.187C662.268 615.742 670.281 613.032 675.342 610.984C675.764 599.6 674.017 591.228 672.269 585.566C669.679 577.254 667.329 575.447 665.16 565.449C664.316 561.534 664.256 559.908 662.69 558.643C657.086 554.186 640.698 560.691 638.108 570.087Z" fill="#161616"/>
<path opacity="0.38" d="M644.253 570.448C645.217 571.894 652.447 582.795 648.17 591.107C645.579 596.107 639.735 598.335 631.179 601.527C624.311 604.117 623.407 603.274 618.527 605.442C609.429 609.538 601.416 617.609 602.741 620.199C603.946 622.608 612.08 618.392 630.637 617.729C638.77 617.428 639.855 618.091 646.181 617.729C653.05 617.308 663.051 615.862 675.222 610.923C675.643 604.479 675.041 599.118 674.439 595.384C673.716 591.168 672.752 585.626 669.98 579.844C669.378 578.579 668.173 576.291 667.148 572.857C666.365 570.207 665.943 567.979 665.702 566.533C658.533 567.798 651.363 569.123 644.253 570.448Z" fill="#6C6D6D"/>
<path opacity="0.26" d="M645.157 569.906C650.158 571.231 655.942 572.315 662.389 572.677C663.895 572.737 665.401 572.797 666.847 572.797C666.365 570.689 665.823 568.581 665.341 566.473C658.653 567.617 651.905 568.762 645.157 569.906Z" fill="#6C6D6D"/>
<path d="M725.892 353.556C724.265 364.819 716.373 370.361 700.708 391.321C685.705 411.378 675.583 429.206 669.317 441.192C664.437 452.275 659.376 467.092 656.966 485.04C652.146 521.42 661.123 550.933 667.269 566.533C656.544 568.34 645.82 570.207 635.095 572.014C626.419 551.295 617.442 522.083 617.321 486.787C617.201 449.444 626.841 421.196 644.615 373.011C652.688 351.087 664.497 321.814 681.307 288.085C721.795 318.743 727.88 339.884 725.892 353.556Z" fill="#E91E63"/>
<path d="M789.636 560.45C788.492 564.606 790.902 566.232 789.335 570.99C788.672 572.918 787.287 575.748 779.755 581.531C773.068 586.65 766.982 589.903 765.175 590.806C755.475 595.866 751.619 596.227 749.389 600.684C749.088 601.286 746.859 605.804 748.787 608.755C751.438 612.79 759.511 609.719 776.381 608.454C791.143 607.37 792.348 609.116 803.614 607.55C813.797 606.105 821.81 603.394 826.871 601.347C827.293 589.963 825.545 581.591 823.798 575.929C821.207 567.617 818.858 565.81 816.689 555.812C815.845 551.897 815.785 550.271 814.218 549.006C808.615 544.549 792.227 551.054 789.636 560.45Z" fill="#161616"/>
<path opacity="0.38" d="M791.745 561.112C792.769 562.317 799.698 570.809 796.987 577.917C794.999 583.097 788.431 586.048 780.78 589.541C774.092 592.613 773.128 591.83 768.428 594.36C764.271 596.588 751.799 606.948 753.727 610.2C754.33 611.285 756.017 610.743 766.5 609.658C773.248 608.996 778.189 608.454 784.093 608.333C790.118 608.213 790.359 608.634 795.601 608.333C801.988 607.972 806.808 607.129 808.193 606.828C812.953 605.924 819.4 604.298 826.75 601.106C827.293 588.578 825.666 581.41 824.16 577.194C820.906 568.159 820.243 566.834 820.243 566.834C818.918 564.003 817.833 562.196 817.291 559.064C817.11 557.86 816.99 556.715 816.568 554.607C816.146 552.62 815.664 551.054 815.243 549.97C814.339 551.596 811.447 556.535 805.241 559.426C799.156 562.317 793.553 561.474 791.745 561.112Z" fill="#6C6D6D"/>
<path opacity="0.38" d="M794.637 561.293C795.481 562.016 802.952 568.099 811.507 565.69C814.399 564.847 816.568 563.281 817.894 562.076C816.99 558.101 816.026 554.186 815.122 550.21C808.314 553.885 801.445 557.619 794.637 561.293Z" fill="#6C6D6D"/>
<path d="M745.413 302.42C748.787 306.696 753.426 313.081 758.186 321.272C772.827 346.328 776.502 367.771 781.081 391.261C786.925 421.256 794.396 450.829 800.602 480.764C806.687 510.157 811.929 534.189 815.424 550.09C814.881 551.114 809.338 560.51 798.614 561.534C792.89 562.076 788.432 559.908 786.504 558.824C770.477 530.214 760.476 505.64 754.21 488.173C737.701 442.276 733.966 408.607 705.769 364.337C700.949 356.748 696.611 350.725 693.658 346.87C682.693 332.596 684.621 312.177 697.695 300.432C711.131 288.205 732.52 288.928 745.413 302.42Z" fill="#E91E63"/>
<path d="M722.699 322.356C725.229 335.908 731.315 351.749 746.919 353.797C748.064 353.917 748.064 352.111 746.919 351.99C732.218 350.063 726.796 334.403 724.446 321.875C724.265 320.73 722.518 321.212 722.699 322.356Z" fill="#842B08"/>
<path d="M747.703 332.957C767.525 385.298 783.069 439.205 794.155 494.075C797.288 509.735 800.12 525.516 802.53 541.296C802.711 542.441 804.458 541.959 804.277 540.814C795.782 485.522 782.828 430.893 765.416 377.709C760.476 362.531 755.113 347.413 749.45 332.475C749.028 331.391 747.281 331.873 747.703 332.957Z" fill="#842B08"/>
<path d="M699.985 355.905C706.492 366.325 712.938 376.745 719.445 387.165C720.048 388.129 721.614 387.225 721.012 386.262C714.505 375.842 708.058 365.422 701.551 355.002C700.888 354.038 699.322 354.941 699.985 355.905Z" fill="#842B08"/>
<path opacity="0.41" d="M712.577 313.864C723.241 326.151 738.062 345.606 750.353 372.288C757.041 386.804 762.343 406.138 772.947 444.686C784.455 486.607 789.998 513.229 791.625 521.42C794.878 537.502 797.228 551.174 798.915 561.353C800.602 561.173 802.65 560.691 804.819 559.727C810.905 557.017 814.038 552.138 815.243 549.97C814.58 546.657 813.556 541.778 812.29 535.815C809.941 524.673 808.374 517.385 806.627 509.374C805.06 502.206 802.891 491.967 800.24 479.379C798.855 472.512 797.589 466.971 796.746 463.177C795.119 456.069 794.095 452.395 792.528 444.866C791.564 440.349 791.143 437.94 790.54 434.928C788.19 422.882 787.106 420.292 784.515 408.607C781.322 394.031 778.791 378.612 776.261 367.771C775.779 365.663 775.357 364.036 775.116 363.193C774.333 360.121 773.188 356.086 771.561 351.448C766.621 336.932 761.259 327.356 755.595 317.478C747.1 302.601 744.509 301.336 743.244 300.794C731.134 295.855 715.107 311.334 712.577 313.864Z" fill="#6C6D6D"/>
<path opacity="0.39" d="M700.225 354.941C677.571 382.166 664.015 407.644 655.942 425.653C643.591 453.118 623.106 498.833 634.493 551.716C636.3 559.968 638.469 566.654 640.036 570.93C649.073 569.424 658.171 567.918 667.209 566.413C664.618 560.149 661.545 551.536 659.195 540.995C657.388 532.804 652.809 509.494 657.569 480.403C659.677 467.333 662.991 457.756 664.136 454.383C667.751 444.083 671.727 436.615 674.8 430.893C676.367 427.881 680.223 420.894 688.356 408.848C694.201 400.175 702.274 388.912 712.758 376.143C708.54 369.036 704.383 361.988 700.225 354.941Z" fill="#6C6D6D"/>
<path opacity="0.48" d="M705.528 364.277C697.153 374.998 687.754 388.912 679.439 406.017C667.329 430.893 661.666 453.841 658.894 470.946C660.822 463.056 664.015 452.094 669.739 439.807C674.86 428.785 679.801 421.256 686.368 411.318C692.574 401.982 701.25 389.815 712.697 376.083C710.348 372.107 707.938 368.192 705.528 364.277Z" fill="#6C6D6D"/>
<path opacity="0.48" d="M775.297 364.759C781.804 399.633 787.95 435.531 793.673 472.392C798.192 501.724 802.289 530.515 805.964 558.823C807.049 558.342 808.314 557.619 809.579 556.655C812.712 554.306 814.46 551.475 815.363 549.668C802.048 487.992 788.673 426.375 775.297 364.759Z" fill="#6C6D6D"/>
<path d="M555.806 114.861C555.384 115.101 552.553 116.547 552.251 119.257C551.95 121.606 553.697 123.413 554.722 124.498C560.144 130.099 570.808 128.714 573.158 128.352C574.966 128.894 577.737 129.858 580.87 131.364C590.269 135.881 595.993 141.965 598.222 144.314C605.03 151.361 614.972 158.167 634.854 171.839C640.879 175.995 649.856 181.898 661.304 188.342C663.413 188.342 666.907 188.102 670.643 186.415C672.089 185.753 681.668 181.416 682.452 172.08C683.114 164.732 677.812 159.432 676.969 158.588C667.57 154.854 659.798 151.481 654.134 148.951C617.924 132.87 596.053 119.318 591.113 116.186C587.498 113.897 584.545 111.969 582.557 110.705C581.171 108.295 577.858 103.296 571.531 99.9835C570.326 99.3812 561.289 94.8036 551.167 98.0561C549.299 98.6584 547.793 99.3812 546.769 99.9835C541.467 99.3209 535.02 98.8391 534.659 100.285C534.418 101.248 536.948 102.634 540.442 104.682C544.118 106.91 549.42 110.223 555.806 114.861Z" fill="white"/>
<path d="M573.459 127.63C569.061 128.111 564.603 127.87 560.325 126.606C558.337 126.003 556.168 125.281 554.722 123.775C551.649 120.643 554.119 117.511 556.891 115.583C557.855 114.921 556.951 113.355 555.987 114.017C553.999 115.403 551.89 116.908 551.468 119.438C551.046 121.847 552.312 124.136 554.179 125.642C559.12 129.738 567.434 130.099 573.459 129.436C574.604 129.316 574.604 127.509 573.459 127.63Z" fill="#161616"/>
<path d="M555.204 113.716C551.83 111.367 548.456 109.078 545.022 106.91C543.455 105.886 541.889 104.922 540.322 103.959C539.358 103.356 538.394 102.814 537.43 102.212C536.828 101.851 534.719 101.068 534.598 100.526C534.478 100.887 534.297 101.188 534.176 101.55C537.008 99.4414 543.033 100.887 546.046 101.61C549.48 102.453 553.396 103.477 556.409 105.404C557.373 106.007 558.277 104.441 557.313 103.838C553.637 101.489 548.637 100.224 544.419 99.3812C541.286 98.7789 536.044 97.9357 533.273 99.9835C532.971 100.224 532.731 100.586 532.851 101.007C533.213 102.212 534.598 102.634 535.562 103.236C537.671 104.441 539.72 105.705 541.768 106.97C546.046 109.62 550.203 112.391 554.3 115.282C555.264 115.945 556.168 114.379 555.204 113.716Z" fill="#161616"/>
<path d="M547.07 101.248C553.095 97.3935 560.747 96.4901 567.434 99.3812C573.64 102.031 578.099 107.332 582.196 112.512C582.919 113.415 584.184 112.15 583.461 111.247C578.882 105.525 573.821 99.6823 566.711 97.1526C559.903 94.7434 552.251 95.8275 546.226 99.7426C545.202 100.285 546.106 101.851 547.07 101.248Z" fill="#161616"/>
<path d="M582.437 112.21C612.441 130.4 643.711 146.361 676.065 159.974C677.15 160.395 677.632 158.649 676.547 158.227C644.374 144.675 613.225 128.774 583.341 110.644C582.316 110.102 581.413 111.608 582.437 112.21Z" fill="#161616"/>
<path d="M572.435 128.774C581.111 130.942 587.799 136.905 594.487 142.507C601.355 148.229 608.284 153.89 615.394 159.371C629.854 170.514 645.037 180.814 661.244 189.306C662.268 189.848 663.172 188.282 662.148 187.74C645.519 179.007 629.974 168.406 615.092 156.902C607.682 151.18 600.512 145.217 593.342 139.254C587.197 134.134 580.81 129.015 572.917 127.087C571.773 126.726 571.29 128.473 572.435 128.774Z" fill="#161616"/>
<path d="M675.523 160.154C682.873 163.226 682.632 172.381 678.656 178.103C675.222 183.042 667.269 189.246 660.942 186.957C659.858 186.535 659.376 188.282 660.46 188.704C668.112 191.474 677.692 183.765 681.186 177.441C684.922 170.695 683.596 161.66 675.945 158.468C674.92 157.926 674.438 159.672 675.523 160.154Z" fill="#161616"/>
<path d="M683.295 158.167C681.849 158.468 679.74 159.13 677.511 160.455C673.535 162.925 671.486 166.298 669.98 169.129C663.172 181.898 661.304 191.655 661.304 191.655C658.773 204.906 660.28 215.627 661.304 222.554C663.111 234.781 665.039 233.937 667.088 247.369C667.992 253.271 669.136 263.149 668.534 275.376C668.112 283.809 667.028 290.976 665.943 296.457C667.329 298.023 669.438 300.252 672.33 302.54C687.392 314.406 705.588 313.503 711.372 313.201C727.82 312.358 739.87 305.552 745.774 301.637C746.377 300.794 746.919 299.89 747.522 299.047C746.497 296.457 745.112 292.361 744.027 287.182C741.557 275.075 742.943 266.643 744.027 252.248C744.509 245.622 745.112 235.865 745.172 223.638C743.726 223.638 742.28 223.638 740.834 223.638C739.749 223.698 729.929 223.879 723.783 216.109C718.481 209.423 719.746 201.593 720.048 199.907C721.554 190.451 729.507 182.56 740.292 179.368C735.773 176.959 730.893 174.068 725.832 170.695C720.168 166.9 715.167 163.106 710.829 159.432C705.949 160.636 701.973 161.781 699.261 162.624C693.538 164.37 691.369 165.274 688.838 164.37C685.705 163.347 684.078 160.275 683.295 158.167Z" fill="white"/>
<path d="M684.199 158.046C678.114 157.745 673.535 162.082 670.341 166.84C666.184 172.984 663.353 180.211 661.425 187.319C657.207 203.099 659.075 218.518 662.69 234.178C664.618 242.37 666.666 250.561 667.51 258.993C668.353 268.028 667.871 277.183 666.606 286.158C666.184 289.35 664.798 293.144 665.1 296.337C665.401 299.168 668.353 300.975 670.462 302.541C676.306 306.877 682.994 309.949 690.043 311.816C706.973 316.273 724.747 313.201 740.533 306.275C741.617 305.793 740.653 304.227 739.629 304.709C725.832 310.732 710.347 313.864 695.345 311.154C688.657 309.949 682.15 307.66 676.306 304.227C673.715 302.721 670.582 300.914 668.534 298.686C665.702 295.554 667.992 289.229 668.534 285.314C670.462 270.739 669.679 256.705 666.425 242.37C663.172 227.794 659.316 213.519 661.063 198.461C662.027 190.21 664.377 182.139 667.992 174.67C671.064 168.286 675.884 159.432 684.139 159.853C685.404 159.913 685.404 158.106 684.199 158.046Z" fill="#161616"/>
<path d="M725.41 171.899C730.11 174.369 734.749 177.019 739.388 179.729C740.412 180.332 741.316 178.766 740.292 178.163C735.713 175.453 731.074 172.863 726.314 170.333C725.29 169.791 724.386 171.357 725.41 171.899Z" fill="#161616"/>
<path d="M740.713 178.163C732.459 181.717 726.073 186.054 721.915 194.245C718.662 200.75 716.192 209.303 722.156 215.085C723 215.868 724.265 214.603 723.422 213.82C717.276 207.918 721.313 198.642 724.928 192.498C728.724 186.054 734.929 182.62 741.617 179.729C742.702 179.248 741.738 177.682 740.713 178.163Z" fill="#161616"/>
<path d="M744.027 225.144C745.473 238.033 742.702 250.682 741.919 263.511C741.196 275.738 742.702 287.965 746.257 299.649C746.618 300.734 748.365 300.312 748.004 299.168C744.389 287.242 742.943 274.834 743.786 262.366C744.63 249.959 747.16 237.611 745.775 225.144C745.714 223.999 743.907 223.999 744.027 225.144Z" fill="#161616"/>
<path d="M746.377 299.168C744.57 301.517 742.34 303.444 739.75 304.89C738.725 305.432 739.629 306.998 740.653 306.456C743.545 304.829 745.955 302.661 747.944 300.071C748.667 299.107 747.04 298.204 746.377 299.168Z" fill="#161616"/>
<path d="M721.735 214.784C727.519 221.59 735.954 225.324 744.871 225.083C746.015 225.083 746.015 223.276 744.871 223.276C736.375 223.457 728.483 219.904 723 213.459C722.217 212.616 720.951 213.88 721.735 214.784Z" fill="#161616"/>
<path opacity="0.15" d="M694.924 174.73C706.19 197.136 710.769 216.892 712.818 230.203C715.228 245.923 715.107 258.451 714.987 265.619C714.625 285.013 711.914 301.155 709.263 312.9C711.432 312.78 713.541 312.659 715.71 312.539C719.927 312.539 727.338 311.876 735.412 307.901C740.593 305.311 744.389 302.119 746.859 299.649C744.449 290.976 743.606 283.929 743.304 279.231C742.461 267.245 744.268 260.68 745.112 243.454C745.534 235.021 745.534 228.276 745.473 224.12C742.099 224.059 736.496 223.457 730.772 220.205C727.519 218.337 722.157 215.205 720.409 209.122C719.325 205.328 720.108 202.075 720.771 199.485C721.132 198.04 723.723 188.282 733.303 183.042C736.677 181.175 739.81 180.452 741.919 180.151C730.11 174.068 718.301 167.984 706.492 161.901C705.407 163.768 704.021 165.816 702.214 167.984C699.623 170.875 697.093 173.104 694.924 174.73Z" fill="#6C6D6D"/>
<path opacity="0.29" d="M726.193 217.795C728.483 230.324 730.35 247.55 728.483 267.787C726.856 285.676 722.819 300.553 718.903 311.696C722.759 311.515 728.543 310.732 735.05 308.082C740.894 305.673 745.232 302.48 748.004 300.131C746.738 296.758 745.172 291.94 744.148 286.037C743.726 283.507 743.003 278.87 743.003 271.04C742.943 258.03 744.75 254.175 745.292 241.225C745.473 237.491 745.533 231.649 745.051 224.421C743.063 224.662 739.569 224.782 735.472 223.517C730.712 222.012 727.639 219.301 726.193 217.795Z" fill="#6C6D6D"/>
<path d="M743.003 179.669C737.159 179.91 732.941 183.464 730.29 185.572C728.181 187.319 722.217 192.257 720.71 200.81C720.289 203.22 719.385 208.339 722.096 213.218C726.253 220.566 735.833 222.313 738.424 222.795C742.28 223.517 742.702 222.734 744.63 223.638C746.799 224.602 750.594 227.432 752.824 243.092C753.968 251.103 755.475 262.487 751.98 277.484C748.907 290.735 746.377 294.65 743.786 296.638C740.954 298.866 736.255 301.035 735.893 301.155C731.134 303.324 730.109 302.842 725.711 304.829C722.337 306.335 718.421 308.022 715.288 311.876C712.396 315.37 711.251 319.224 710.769 321.754C715.288 321.092 719.807 320.429 724.325 319.767C725.048 321.031 726.073 322.959 727.157 325.428C729.447 330.668 730.29 334.824 730.531 335.848C731.495 340.064 734.869 346.81 745.172 357.833C743.967 350.304 742.702 342.775 741.497 335.306C742.702 338.137 744.569 341.57 747.401 345.184C751.619 350.545 756.258 353.918 759.511 355.905C758.969 348.376 758.367 340.847 757.824 333.379C760.837 337.595 763.849 341.811 766.862 346.088C766.38 342.173 765.476 337.535 763.789 332.536C760.536 322.899 755.716 315.791 751.92 311.093C753.667 309.768 756.077 307.841 758.668 305.191C762.464 301.336 765.416 297.3 768.248 292.482C774.514 281.941 779.394 273.75 782.045 261.764C782.888 257.909 786.503 240.201 779.514 219.181C777.647 213.519 772.224 199.425 759.511 187.861C751.076 180.091 745.895 179.549 743.003 179.669Z" fill="white"/>
<path d="M742.22 178.946C752.884 183.163 762.343 190.089 768.971 199.485C775.177 208.339 778.31 218.578 780.84 228.998C786.323 251.404 779.876 273.69 767.103 292.361C762.765 298.686 757.825 304.588 752.462 310.069C751.679 310.913 752.944 312.177 753.728 311.334C765.778 298.927 776.08 284.351 781.262 267.667C784.997 255.741 785.72 243.092 783.069 230.866C780.78 220.385 777.647 209.785 771.863 200.69C764.934 189.788 754.571 181.958 742.642 177.2C741.617 176.778 741.135 178.525 742.22 178.946Z" fill="#161616"/>
<path d="M738.484 223.397C751.016 223.276 752.04 243.454 752.342 252.187C752.643 261.885 752.462 271.883 749.811 281.219C748.486 285.856 746.558 290.314 743.666 294.229C742.099 296.397 740.171 298.686 737.821 300.071C735.833 301.276 733.664 301.577 731.375 302.059C724.024 303.625 717.457 307.781 713.42 314.165C712.456 315.731 708.962 320.128 710.528 322.176C711.01 322.838 711.733 322.838 712.516 322.838C714.866 322.718 717.276 321.875 719.566 321.393C720.711 321.152 720.229 319.405 719.084 319.646C717.216 320.068 714.806 321.031 712.878 320.971C711.733 320.911 711.914 321.152 712.336 319.947C712.758 318.622 713.601 317.357 714.324 316.153C717.035 311.575 720.65 308.142 725.53 305.913C728.362 304.588 731.194 304.046 734.206 303.323C738.605 302.3 741.798 299.589 744.57 296.036C749.811 289.29 752.282 280.857 753.426 272.485C754.691 262.908 754.752 252.85 753.547 243.273C752.462 234.841 749.45 221.409 738.545 221.53C737.34 221.65 737.339 223.457 738.484 223.397Z" fill="#161616"/>
<path d="M718.421 321.453C719.385 321.272 720.469 320.971 721.494 320.911C722.759 320.489 724.024 320.79 725.169 321.814C725.289 322.176 725.35 322.477 725.47 322.838C726.374 324.645 726.675 327.055 727.278 328.982C728.483 332.716 729.929 336.39 731.555 339.944C734.809 346.991 739.087 353.556 744.69 358.977C745.413 359.64 746.317 358.977 746.196 358.074C745.112 351.087 744.027 344.1 742.943 337.113C742.762 335.969 741.015 336.451 741.195 337.595C742.28 344.582 743.364 351.569 744.449 358.555C744.931 358.254 745.473 357.953 745.955 357.652C738.906 350.906 734.146 342.353 730.712 333.319C729.868 331.03 729.085 328.741 728.362 326.452C727.76 324.525 727.519 322.176 726.615 320.429C724.988 317.357 720.65 319.224 717.999 319.706C716.794 319.887 717.276 321.634 718.421 321.453Z" fill="#161616"/>
<path d="M751.619 311.635C756.258 316.815 759.09 322.718 761.62 329.102C764.271 335.788 766.741 342.534 767.344 349.701C767.946 349.641 768.549 349.521 769.091 349.46C766.44 343.016 762.705 337.234 757.945 332.174C757.162 331.331 755.897 332.596 756.68 333.439C761.199 338.257 764.813 343.799 767.344 349.942C767.705 350.786 769.212 350.846 769.091 349.701C768.428 341.932 765.777 334.764 762.885 327.597C760.355 321.272 757.342 315.49 752.824 310.371C752.161 309.467 750.835 310.732 751.619 311.635Z" fill="#161616"/>
<path d="M740.292 336.27C745.293 344.461 751.799 351.448 759.572 357.11C760.174 357.532 760.897 356.929 760.958 356.327C761.138 348.678 760.054 341.149 758.186 333.8C757.885 332.656 756.138 333.138 756.439 334.282C758.246 341.51 759.331 348.858 759.15 356.327C759.632 356.086 760.054 355.785 760.536 355.544C753.005 350.123 746.739 343.257 741.919 335.366C741.256 334.403 739.689 335.306 740.292 336.27Z" fill="#161616"/>
<path d="M746.979 331.813C751.498 338.92 755.294 346.389 758.246 354.219C758.668 355.303 760.415 354.821 759.993 353.737C756.981 345.726 753.185 338.077 748.546 330.849C747.883 329.946 746.317 330.849 746.979 331.813Z" fill="#161616"/>
<path opacity="0.33" d="M729.627 186.415C736.014 189.186 753.788 197.919 764.512 218.036C776.442 240.563 775.116 270.136 763.548 285.194C758.788 291.338 750.835 300.192 747.702 303.324C742.039 309.045 739.81 310.491 737.52 311.515C732.339 313.924 729.748 312.961 722.759 315.852C716.794 318.321 713.3 321.212 713.48 321.453C713.601 321.754 717.879 319.706 722.036 319.827C722.036 319.827 725.169 319.887 726.073 321.333C726.133 321.393 726.193 321.513 726.193 321.513C726.374 321.875 726.374 322.357 726.976 324.706C727.398 326.452 727.88 327.898 728.121 328.801C729.567 333.319 731.736 338.8 735.17 344.762C738.605 350.786 742.34 355.484 745.533 358.977C744.569 351.93 743.666 344.883 742.702 337.776C744.931 341.39 748.064 345.666 752.462 349.942C755.173 352.593 757.824 354.761 760.234 356.447C759.511 348.617 758.728 340.787 758.005 332.897C760.234 335.728 762.524 339.041 764.753 342.775C766.079 344.943 767.163 347.051 768.187 349.039C767.464 343.016 765.777 335.125 761.921 326.512C759.813 321.754 757.403 317.779 755.173 314.466C754.932 312.84 754.691 311.274 754.511 309.648C757.041 307.118 760.355 303.444 763.97 298.806C768.187 293.385 776.201 282.965 780.659 269.052C789.034 243.092 780.237 219.904 777.888 214.001C775.357 207.616 771.622 198.522 762.584 190.089C755.294 183.283 747.702 179.85 742.822 178.103C740.774 178.766 738.123 179.85 735.291 181.717C732.76 183.343 730.953 185.03 729.627 186.415Z" fill="#6C6D6D"/>
<path opacity="0.31" d="M767.464 291.88C766.561 291.097 756.137 301.818 752.462 305.673C744.148 314.466 743.364 316.876 743.003 318.201C741.436 324.043 743.605 329.102 747.22 337.234C750.293 344.16 756.8 356.327 759.27 355.423C760.415 355.002 761.439 351.629 757.222 332.295C764.753 346.208 767.103 348.918 767.826 348.557C769.212 347.955 765.838 335.788 761.018 325.308C758.306 319.405 755.475 314.767 753.426 311.635C765.777 296.096 767.946 292.301 767.464 291.88Z" fill="#6C6D6D"/>
<path d="M652.327 96.7913C651.724 98.2971 651.965 98.4778 650.519 103.116C649.917 105.043 649.374 106.669 648.953 107.753C649.013 113.776 648.049 118.474 647.085 121.727C646.181 124.799 644.735 128.473 645.699 129.075C646.663 129.677 648.772 126.425 651.122 126.967C652.688 127.328 653.472 129.256 654.255 131.243C654.255 131.243 656.725 137.206 659.316 142.145C660.943 145.277 663.714 150.517 669.197 152.445C672.812 153.71 676.427 153.047 678.535 152.746C681.367 152.264 683.596 151.361 685.042 150.638C682.753 154.312 682.813 158.709 685.042 161.54C687.754 164.852 692.574 164.431 693.718 164.31C696.731 164.009 698.96 162.624 699.984 161.901C698.9 159.251 697.695 155.215 697.635 150.276C697.574 139.917 702.816 132.629 704.865 130.099C706.009 129.858 708.359 129.256 710.468 127.328C710.95 126.907 714.926 123.172 714.203 117.812C713.842 114.981 711.974 110.464 707.937 109.681C704.985 109.139 702.575 110.825 701.912 111.307C701.37 109.982 700.828 108.657 700.286 107.332C696.912 107.271 692.634 106.729 687.995 104.983C674.378 99.9233 667.871 88.3589 665.943 84.5644C664.618 85.0462 662.69 85.8895 660.581 87.335C658.713 88.5396 654.315 91.5512 652.327 96.7913Z" fill="white"/>
<path d="M649.977 99.6221C648.772 109.62 646.784 119.498 644.193 129.256C644.012 129.918 644.615 130.521 645.277 130.34C647.989 129.617 650.64 128.894 653.351 128.232C652.989 128.051 652.628 127.81 652.266 127.63C653.592 133.713 656.122 139.375 659.677 144.494C661.183 146.663 662.87 148.71 664.678 150.638C666.244 152.324 667.449 154.071 669.799 154.191C680.403 154.734 690.405 149.975 697.333 142.085C698.117 141.242 696.852 139.917 696.068 140.82C689.622 148.168 680.584 152.686 670.703 152.445C666.726 152.324 662.75 145.819 660.762 142.868C657.568 138.11 655.339 132.809 654.074 127.148C653.953 126.666 653.411 126.425 652.99 126.545C650.278 127.268 647.627 127.991 644.916 128.654C645.277 129.015 645.639 129.376 646 129.738C648.651 119.86 650.64 109.801 651.845 99.6221C651.905 98.4778 650.098 98.4778 649.977 99.6221Z" fill="#161616"/>
<path d="M658.412 101.79C658.352 105.404 658.894 108.898 660.039 112.271C660.4 113.234 661.726 113.054 661.786 112.03C662.147 108.235 661.726 104.561 660.521 100.947C660.219 99.9233 658.834 100.164 658.773 101.188C658.593 103.055 658.713 104.922 659.075 106.729C659.316 107.874 661.003 107.392 660.822 106.248C660.521 104.561 660.46 102.875 660.581 101.188C659.978 101.248 659.376 101.369 658.834 101.429C659.978 104.922 660.34 108.416 660.039 112.03C660.641 111.969 661.244 111.849 661.786 111.789C660.641 108.536 660.099 105.224 660.219 101.79C660.219 100.646 658.412 100.646 658.412 101.79Z" fill="#161616"/>
<path d="M645.157 109.44C645.217 109.5 645.217 109.5 645.277 109.56C645.217 109.259 645.097 108.958 645.036 108.657C645.097 108.597 645.157 108.476 645.217 108.416C645.518 108.416 645.82 108.416 646.121 108.416C645.518 108.054 645.579 106.067 645.579 105.585C645.639 104.561 645.82 103.658 646.181 102.694C645.579 102.694 645.036 102.694 644.434 102.694C645.036 105.404 645.157 108.054 644.675 110.825C645.277 110.825 645.82 110.825 646.422 110.825C645.458 108.295 645.277 105.705 645.94 103.116C646.241 101.971 644.494 101.489 644.193 102.634C643.47 105.585 643.651 108.476 644.675 111.307C644.976 112.03 646.242 112.271 646.422 111.307C646.904 108.235 646.844 105.284 646.181 102.212C645.94 101.248 644.735 101.429 644.434 102.212C643.651 104.32 643.349 106.91 644.313 109.018C644.795 110.102 646.362 110.524 646.724 109.078C646.784 108.777 646.723 108.416 646.482 108.175C646.422 108.115 646.422 108.115 646.362 108.054C645.579 107.392 644.253 108.657 645.157 109.44Z" fill="#161616"/>
<path d="M655.881 136.182C657.749 136.604 659.738 136.845 661.545 135.941C663.292 135.098 664.919 133.532 666.425 132.328C667.329 131.605 666.064 130.34 665.16 131.063C663.834 132.087 662.569 133.291 661.123 134.135C659.677 134.978 657.99 134.797 656.424 134.436C655.219 134.195 654.737 135.941 655.881 136.182Z" fill="#161616"/>
<path d="M664.497 117.993C664.437 117.993 664.377 117.993 664.316 117.993C664.136 117.932 664.015 117.932 663.834 117.872C663.774 117.812 663.714 117.812 663.714 117.752C663.654 117.631 663.533 117.511 663.473 117.33C663.473 117.39 663.473 117.39 663.473 117.27C663.413 117.029 663.533 116.788 663.834 116.547C664.015 116.487 664.136 116.487 664.316 116.427C664.377 116.427 664.437 116.427 664.497 116.427C664.075 116.246 663.473 116.607 663.413 117.029C663.292 117.571 663.593 117.932 664.015 118.113C664.678 118.414 665.28 117.752 665.28 117.089C665.28 116.427 664.678 115.824 664.015 116.065C663.533 116.246 663.232 116.668 663.413 117.149C663.533 117.812 664.075 118.173 664.497 117.993Z" fill="#161616"/>
<path d="M669.197 113.415C670.341 113.415 670.341 111.608 669.197 111.608C668.052 111.608 668.052 113.415 669.197 113.415Z" fill="#161616"/>
<path d="M669.317 118.474C669.438 118.595 669.558 118.715 669.679 118.836C670.04 119.197 670.582 119.197 670.944 118.836C671.305 118.474 671.305 117.932 670.944 117.571C670.823 117.45 670.703 117.33 670.582 117.21C670.221 116.848 669.679 116.848 669.317 117.21C669.016 117.511 669.016 118.113 669.317 118.474Z" fill="#161616"/>
<path d="M651.965 99.2607C654.737 92.0932 660.641 86.6724 667.931 84.4439C669.016 84.0825 668.594 82.3358 667.449 82.6972C659.497 85.1667 653.23 91.0091 650.218 98.7789C649.796 99.863 651.544 100.345 651.965 99.2607Z" fill="#161616"/>
<path d="M666.184 83.8416C670.763 99.8028 686.428 108.356 702.334 108.175C703.479 108.175 703.479 106.368 702.334 106.368C687.272 106.488 672.269 98.538 667.931 83.3598C667.57 82.2756 665.823 82.7575 666.184 83.8416Z" fill="#161616"/>
<path d="M683.717 152.686C684.079 159.612 683.476 166.479 681.849 173.285C681.789 173.646 681.91 174.128 682.271 174.309C689.802 178.284 699.141 175.393 703.057 167.804C703.6 166.78 702.033 165.876 701.491 166.9C698.057 173.586 689.863 176.296 683.175 172.743C683.295 173.104 683.476 173.405 683.597 173.767C685.223 166.84 685.886 159.793 685.525 152.746C685.464 151.541 683.657 151.541 683.717 152.686Z" fill="#161616"/>
<path d="M666.546 85.2269C664.497 86.0702 661.726 87.3952 659.015 89.7443C653.893 94.1411 651.785 99.3812 650.941 102.031C649.194 101.61 646.362 100.646 644.314 98.1164C640.096 92.8763 641.783 83.9621 646.121 79.2038C650.158 74.7467 653.532 77.3969 661.123 71.9761C665.943 68.5429 665.763 66.6155 671.125 63.1221C673.716 61.4357 677.331 59.0264 682.211 58.1832C689.561 56.9183 695.707 59.8697 704.684 64.1461C709.926 66.6758 708.781 66.6758 716.071 70.4703C728.302 76.7946 729.989 75.9513 735.11 79.9868C740.412 84.1428 743.365 88.8408 745.895 92.8763C749.45 98.5982 749.51 100.586 753.306 108.837C759.09 121.245 760.837 120.643 764.392 129.256C767.404 136.544 770.417 143.711 768.911 152.385C766.681 165.154 756.198 172.381 754.21 173.706C740.894 182.5 726.193 178.705 720.891 177.32C714.625 175.694 706.01 173.465 700.768 165.937C694.08 156.3 695.466 141.543 703.78 128.714C704.985 128.834 707.094 128.894 709.203 127.81C713.963 125.341 716.373 118.294 713.722 113.415C713.42 112.873 711.071 108.657 706.492 108.597C701.973 108.536 699.382 112.572 699.262 112.813C694.502 111.729 683.235 108.416 674.318 98.1164C670.341 93.5388 667.992 88.8408 666.546 85.2269Z" fill="#4872C8"/>
<path d="M703.78 133.352C705.677 133.352 707.214 131.814 707.214 129.918C707.214 128.022 705.677 126.485 703.78 126.485C701.883 126.485 700.346 128.022 700.346 129.918C700.346 131.814 701.883 133.352 703.78 133.352Z" fill="#F8F263"/>
<path d="M683.958 150.999C683.958 151.722 684.018 152.445 684.079 153.168C684.139 153.951 684.259 154.734 684.32 155.456C686.489 154.734 689.742 153.288 692.514 150.216C695.526 146.783 696.912 142.386 696.37 142.025C695.888 141.724 694.442 144.193 691.007 146.903C688.296 149.012 685.705 150.216 683.958 150.999Z" fill="#161616" stroke="#161616" stroke-miterlimit="10"/>
<path opacity="0.19" d="M706.431 65.1097C711.251 70.5305 718.06 78.7822 724.808 89.8045C732.459 102.212 738.243 111.668 740.412 125.1C741.738 133.472 744.991 153.89 732.038 165.756C724.567 172.562 715.047 173.586 710.287 173.706C712.758 174.851 716.373 176.296 720.891 177.38C727.157 178.886 736.858 181.175 747.281 177.26C749.329 176.477 762.886 171.116 767.525 157.323C770.597 148.168 768.248 139.736 767.284 136.363C765.597 130.4 762.584 125.281 761.018 122.57C758.367 118.113 755.595 114.499 753.125 109.018C751.619 105.766 750.655 103.116 750.655 103.116C749.39 99.8028 749.57 99.6221 748.727 97.8754C747.823 95.8878 747.221 95.3457 744.63 91.25C742.16 87.335 742.702 87.8771 741.798 86.6122C738.364 81.854 734.568 79.4447 733.664 78.9026C733.001 78.481 731.736 77.8787 729.145 76.6139C725.229 74.7467 722.277 73.4216 721.675 73.1807C718.722 72.0363 714.023 69.6873 706.431 65.1097Z" fill="#444647"/>
<path opacity="0.53" d="M666.365 84.5644C673.173 93.057 679.801 98.9596 684.801 102.875C693.176 109.44 697.996 111.187 702.093 109.922C703.358 109.56 704.322 108.958 704.925 108.536C703.539 109.078 701.732 109.982 700.105 111.729C699.804 112.09 699.502 112.451 699.261 112.813C697.936 112.512 696.068 112.03 693.839 111.247C681.126 106.669 674.077 97.8152 672.812 96.189C670.884 93.7195 668.353 89.8647 666.365 84.5644Z" fill="#125689"/>
<path opacity="0.15" d="M758.126 118.655C758.849 122.811 759.572 128.714 759.27 135.701C759.09 139.555 758.728 148.349 755.836 155.396C749.389 171.056 730.832 176.899 726.133 178.224C728.001 178.585 746.497 181.898 758.969 169.852C766.079 162.985 768.187 154.131 768.308 153.589C769.453 148.65 769.031 144.675 768.79 142.446C767.585 131.183 761.681 122.871 758.126 118.655Z" fill="#252626"/>
</svg>
