<svg width="888" height="666" viewBox="0 0 888 666" fill="none" xmlns="http://www.w3.org/2000/svg">
<g clip-path="url(#clip0)">
<path d="M309.246 279.664C312.354 285.325 312.409 292.041 309.412 297.757C308.913 298.701 310.356 299.533 310.855 298.59C314.13 292.318 314.074 284.992 310.689 278.832C310.134 277.833 308.747 278.721 309.246 279.664Z" fill="#161616"/>
<path d="M311.3 279.942C313.187 278.998 315.407 277.833 317.571 278.332C320.79 278.998 320.901 281.607 321.123 284.271C321.345 287.823 321.179 291.597 318.848 294.483C318.182 295.315 319.347 296.481 320.013 295.648C323.232 291.708 323.621 285.547 322.4 280.719C320.846 274.891 314.519 276.501 310.523 278.499C309.524 278.943 310.356 280.386 311.3 279.942Z" fill="#161616"/>
<path d="M311.3 298.923C314.408 299.311 317.516 298.09 319.569 295.704C320.235 294.871 319.07 293.706 318.404 294.538C316.628 296.647 314.075 297.646 311.3 297.313C310.245 297.147 310.245 298.812 311.3 298.923Z" fill="#161616"/>
<path d="M310.8 206.571C311.522 205.183 313.52 201.409 315.74 204.906C316.128 205.461 316.128 207.015 316.239 207.57C316.461 208.735 316.85 209.956 317.682 210.844C320.457 213.73 322.4 209.013 325.286 210.567C328.949 212.509 324.176 216.616 327.173 218.892C327.894 219.447 328.727 219.447 329.559 219.114C330.114 218.892 330.558 218.392 331.113 218.115C333.167 217.227 333.888 219.058 334.055 220.668C334.11 221.167 334.388 221.445 334.887 221.5C335.498 221.556 336.053 221.611 336.663 221.667C337.718 221.778 337.718 220.113 336.663 220.002C336.053 219.946 335.498 219.891 334.887 219.835C335.165 220.113 335.442 220.39 335.72 220.668C335.553 219.169 335.276 217.227 333.888 216.339C332.39 215.34 331.391 216.228 330.003 216.894C329.337 217.227 328.782 218.337 327.839 217.005C327.506 216.505 328.227 214.951 328.338 214.396C328.56 213.508 328.671 212.731 328.394 211.843C327.95 210.456 326.729 209.29 325.341 208.846C323.621 208.236 322.788 208.957 321.234 209.401C319.847 209.79 318.459 209.679 317.96 208.18C317.793 207.625 317.738 206.959 317.682 206.404C317.516 205.516 317.405 204.573 316.961 203.74C314.685 199.578 310.745 203.074 309.357 205.905C308.858 206.682 310.301 207.514 310.8 206.571Z" fill="#161616"/>
<path d="M321.567 201.409C322.899 200.133 324.12 199.578 325.563 200.799C326.728 201.798 326.507 202.131 326.84 203.463C327.062 204.24 327.284 204.961 327.95 205.516C328.782 206.238 329.725 206.238 330.78 206.127C331.779 206.016 332.945 205.35 333.777 206.404C334.166 206.904 334.11 208.014 334.11 208.624C334.165 210.289 334.165 212.287 336.052 212.898C336.607 213.064 337.218 212.787 337.717 212.953C338.383 212.676 338.661 212.842 338.716 213.564C338.938 214.008 339.049 214.452 338.994 215.007C339.271 216.283 339.771 217.227 340.77 218.115C341.547 218.836 342.712 217.671 341.935 216.949C340.27 215.395 341.436 213.231 340.048 211.843C338.605 210.4 336.33 212.509 335.83 209.845C335.442 207.792 336.219 205.017 333.5 204.295C331.557 203.796 329.503 205.738 328.449 203.074C328.005 201.964 328.172 200.743 327.395 199.689C325.563 197.302 322.178 198.523 320.346 200.244C319.569 200.965 320.79 202.186 321.567 201.409Z" fill="#161616"/>
<path d="M526.029 304.584C524.364 304.417 526.861 301.143 527.361 300.865C528.693 300.144 530.247 300.532 531.246 301.587C533.411 303.918 531.579 307.359 528.637 307.692C527.583 307.803 527.583 309.468 528.637 309.357C531.08 309.079 533.244 307.47 533.799 305.028C534.354 302.641 532.911 300.088 530.691 299.145C528.526 298.257 526.14 299.089 524.863 301.032C523.753 302.697 523.476 306.027 526.084 306.249C527.083 306.36 527.083 304.695 526.029 304.584Z" fill="#161616"/>
<path d="M514.818 301.199C513.653 300.144 515.04 298.035 516.372 299.2C517.76 300.366 515.873 301.976 514.596 301.032C513.764 300.366 512.931 301.809 513.764 302.475C514.929 303.363 516.705 303.086 517.76 302.031C518.981 300.81 518.703 298.923 517.427 297.868C516.15 296.814 514.319 296.869 513.32 298.257C512.432 299.478 512.543 301.254 513.653 302.309C514.43 303.086 515.651 301.92 514.818 301.199Z" fill="#161616"/>
<path d="M707.347 229.881C707.902 240.204 702.741 250.138 694.027 255.688C693.139 256.243 693.972 257.686 694.86 257.131C704.073 251.304 709.567 240.814 709.012 229.881C708.957 228.826 707.292 228.826 707.347 229.881Z" fill="#161616"/>
<path d="M708.458 231.102C713.786 234.987 711.621 242.035 708.68 246.642C705.905 251.026 701.409 256.243 695.637 255.355C694.583 255.189 694.139 256.798 695.193 256.965C702.131 257.964 707.403 252.136 710.622 246.697C713.841 241.314 715.062 233.877 709.29 229.659C708.402 229.048 707.57 230.491 708.458 231.102Z" fill="#161616"/>
<path d="M241.259 181.707C244.755 187.479 246.864 193.861 247.364 200.577C247.475 201.631 249.14 201.631 249.029 200.577C248.474 193.528 246.365 186.924 242.702 180.874C242.091 179.931 240.648 180.763 241.259 181.707Z" fill="#E8E8E8"/>
<path d="M248.03 179.875C250.916 185.092 252.525 190.753 252.914 196.692C252.969 197.746 254.634 197.746 254.579 196.692C254.19 190.476 252.47 184.537 249.473 179.043C248.973 178.099 247.53 178.932 248.03 179.875Z" fill="#E8E8E8"/>
<path d="M240.815 192.363C245.643 189.199 251.082 187.534 256.91 187.423C257.964 187.423 257.964 185.758 256.91 185.758C250.86 185.869 245.088 187.645 239.982 190.975C239.094 191.53 239.927 192.973 240.815 192.363Z" fill="#E8E8E8"/>
<path d="M240.648 199.134C246.698 195.471 253.302 193.14 260.295 192.085C261.35 191.919 260.906 190.309 259.851 190.476C252.692 191.53 245.976 193.972 239.816 197.691C238.928 198.246 239.76 199.689 240.648 199.134Z" fill="#E8E8E8"/>
<path d="M566.544 226.495C563.991 227.772 562.992 231.102 565.157 233.266C566.322 234.432 567.321 234.099 568.708 234.543C569.596 234.82 570.596 235.375 570.429 236.263C570.318 236.874 569.708 237.373 569.375 237.873C568.82 238.594 568.153 239.427 567.931 240.315C567.709 241.369 567.987 242.424 568.82 243.145C570.041 244.2 571.65 243.534 572.982 244.2C575.757 245.532 570.706 251.359 574.98 252.469C576.034 252.747 576.479 251.137 575.424 250.86C573.648 250.416 575.868 247.03 576.034 245.976C576.145 245.032 575.979 244.089 575.257 243.423C573.37 241.591 567.82 243.534 570.651 238.872C571.539 237.429 573.149 235.653 572.094 233.766C571.761 233.155 571.206 232.822 570.54 232.656C569.874 232.545 568.82 232.656 568.154 232.6C565.212 232.434 564.879 229.159 567.376 227.883C568.32 227.494 567.487 226.051 566.544 226.495Z" fill="#E8E8E8"/>
<path d="M578.865 235.819C577.034 236.541 576.978 238.539 578.088 240.037C578.81 241.092 579.975 241.314 580.919 242.035C583.25 243.756 581.196 245.199 580.808 247.197C580.142 250.638 583.805 249.472 584.859 251.692C585.747 253.524 585.414 255.577 587.69 256.41C588.689 256.798 589.133 255.189 588.134 254.8C586.524 254.245 586.746 251.193 585.858 249.972C585.581 249.528 585.192 249.25 584.804 248.917C584.582 248.751 584.249 248.806 584.082 248.695C583.694 248.64 583.416 248.362 583.305 247.807C582.528 247.308 582.417 246.808 583.083 246.253C583.583 244.699 584.582 243.756 583.527 242.146C583.139 241.536 582.417 241.092 581.807 240.703C581.307 240.37 577.7 238.15 579.365 237.484C580.308 237.04 579.864 235.431 578.865 235.819Z" fill="#E8E8E8"/>
<path d="M686.091 347.874C682.04 344.988 682.706 338.938 687.09 336.718C690.42 335.053 694.971 336.607 696.692 339.882C698.412 343.156 696.914 347.763 693.639 349.483C690.198 351.259 685.925 349.705 683.982 346.542C683.427 345.654 681.984 346.486 682.539 347.374C685.037 351.537 690.809 353.368 695.082 350.593C699.134 347.929 700.41 341.769 697.413 337.884C694.472 334.11 688.589 333.222 684.87 336.274C680.541 339.771 680.874 346.153 685.314 349.372C686.147 349.927 686.979 348.484 686.091 347.874Z" fill="#E8E8E8"/>
<path d="M303.03 363.858C303.641 361.86 304.529 361.305 305.583 362.248C305.861 362.359 306.138 362.526 306.36 362.637C306.749 362.748 307.248 362.859 307.637 362.803C308.469 362.692 309.135 362.193 309.524 361.527C310.911 359.307 309.357 357.142 307.97 355.422C307.248 354.589 305.916 353.479 306.083 352.203C306.305 349.761 307.748 350.76 308.969 350.593C309.857 350.482 310.634 350.149 311.078 349.317C311.522 348.595 311.411 347.652 311.3 346.875C311.244 346.431 311.078 345.931 311.078 345.487C310.689 344.322 311.244 343.6 312.743 343.323C313.464 343.822 314.075 344.433 314.574 345.21C315.185 346.098 316.628 345.265 316.017 344.377C314.519 342.268 310.079 339.382 309.357 343.767C309.024 345.987 311.078 348.318 307.803 348.873C306.194 349.15 305.084 349.15 304.584 351.037C304.14 352.591 304.751 354.09 305.694 355.311C306.138 355.866 306.638 356.365 307.082 356.865C307.637 357.42 308.025 358.03 308.303 358.752C307.637 359.418 307.026 360.084 306.36 360.75C305.861 360.861 304.584 359.806 303.863 359.751C300.644 359.529 298.923 363.858 302.142 365.245C303.197 365.689 304.029 364.246 303.03 363.858Z" fill="#E8E8E8"/>
<path d="M316.572 361.471C315.684 360.028 314.297 357.808 314.907 355.977C315.351 354.589 317.238 353.979 318.07 352.869C319.347 351.148 319.181 348.873 318.015 347.152C317.793 347.596 317.516 347.985 317.294 348.429C320.457 348.651 323.121 346.764 324.065 343.711C324.398 342.657 322.788 342.268 322.455 343.267C321.734 345.598 319.736 346.93 317.294 346.764C316.683 346.708 316.239 347.485 316.572 348.04C317.294 349.095 317.571 350.593 316.85 351.759C316.184 352.758 315.296 352.813 314.574 353.535C313.908 354.201 313.464 354.867 313.298 355.866C312.854 358.141 314.075 360.417 315.185 362.304C315.684 363.247 317.127 362.415 316.572 361.471Z" fill="#E8E8E8"/>
<path d="M486.069 74.7029C489.011 78.0884 490.842 82.0289 491.619 86.4134C491.786 87.4679 493.395 87.0239 493.229 85.9694C492.396 81.3074 490.343 77.0894 487.235 73.4819C486.513 72.7049 485.348 73.8704 486.069 74.7029Z" fill="#E8E8E8"/>
<path d="M487.512 74.8693C489.399 73.1488 496.947 66.3778 499.722 68.3203C501.11 69.3193 502.331 71.5948 503.219 73.0933C504.329 74.9803 505.217 76.9783 505.938 79.0318C506.271 80.0308 507.881 79.5868 507.548 78.5878C506.604 75.9793 505.439 73.4263 503.94 71.0953C502.997 69.5968 501.554 67.0438 499.833 66.3223C497.891 65.4898 495.504 67.2103 493.895 68.1538C491.175 69.7078 488.678 71.5948 486.347 73.7038C485.57 74.4253 486.735 75.5908 487.512 74.8693Z" fill="#E8E8E8"/>
<path d="M493.395 87.468C497.724 83.805 502.442 80.808 507.659 78.5325C508.658 78.0885 507.77 76.6454 506.826 77.0894C501.498 79.4204 496.67 82.5285 492.23 86.3025C491.397 86.9685 492.563 88.134 493.395 87.468Z" fill="#E8E8E8"/>
<path d="M503.052 71.8168C505.161 70.0408 509.879 65.5453 512.487 68.4868C514.374 70.5958 515.595 74.0368 516.705 76.5898C517.149 77.5888 518.592 76.7008 518.148 75.7573C517.094 73.3708 515.984 71.0953 514.652 68.8753C513.986 67.7098 513.153 65.9338 511.766 65.4343C510.156 64.8793 508.436 66.0448 507.159 66.8218C505.272 67.9318 503.552 69.2083 501.887 70.5958C501.054 71.3728 502.275 72.5383 503.052 71.8168Z" fill="#E8E8E8"/>
<path d="M498.945 81.9735C501.554 83.139 503.774 84.693 505.827 86.691C506.216 87.0795 506.826 86.9685 507.159 86.5245C509.601 83.0279 512.82 80.364 516.705 78.5325C517.704 78.0885 516.816 76.6454 515.873 77.0894C511.71 79.0319 508.325 81.918 505.716 85.6365C506.16 85.581 506.604 85.5255 507.048 85.47C504.939 83.361 502.553 81.7515 499.833 80.5305C498.779 80.142 497.946 81.5295 498.945 81.9735Z" fill="#E8E8E8"/>
<path d="M511.044 143.689C510.933 143.079 510.766 142.468 510.655 141.858C511.155 141.358 511.654 140.914 512.265 140.581C512.598 140.359 512.986 140.137 513.319 139.86C513.985 139.305 514.429 138.75 514.762 137.973C515.151 136.974 515.04 136.03 514.929 134.976C514.873 134.643 514.818 134.254 514.762 133.921C514.707 133.533 514.929 129.037 516.705 130.48C517.537 131.146 518.703 129.981 517.87 129.315C516.649 128.316 515.373 128.482 514.263 129.537C512.376 131.368 513.264 133.533 513.375 135.753C513.541 139.083 509.212 139.249 508.824 142.302C508.657 143.689 509.212 144.966 510.655 145.243C511.654 145.465 512.098 143.856 511.044 143.689Z" fill="#E91E63"/>
<path d="M517.149 139.083C518.481 140.137 520.368 139.36 520.646 137.64C520.923 136.141 519.924 134.754 520.035 133.255C520.202 131.202 521.589 129.426 523.476 128.704C524.475 128.316 524.031 126.706 523.032 127.095C521.201 127.761 519.758 128.982 518.981 130.813C518.592 131.646 518.37 132.589 518.37 133.533C518.37 133.977 518.426 134.421 518.481 134.809C518.481 134.809 519.314 138.639 518.37 137.862C517.482 137.251 516.317 138.417 517.149 139.083Z" fill="#E91E63"/>
<path d="M373.959 322.233C372.96 321.678 372.849 320.401 373.571 319.569C374.292 318.736 375.624 318.403 376.679 318.57C377.567 318.736 378.566 319.18 378.954 320.068C379.398 321.067 378.732 322.788 377.4 322.621C376.346 322.455 375.902 324.064 376.956 324.231C378.843 324.508 380.508 323.232 380.786 321.289C381.119 319.236 379.454 317.571 377.567 317.071C375.624 316.516 373.182 317.127 372.017 318.903C370.962 320.512 371.406 322.788 373.182 323.676C374.07 324.175 374.903 322.732 373.959 322.233Z" fill="#EC615B"/>
<path d="M286.269 125.818C286.602 124.708 286.935 123.543 287.213 122.433C287.546 122.544 287.879 122.655 288.212 122.766C288.656 122.821 289.1 123.099 289.544 123.21C290.154 123.376 290.876 123.432 291.486 123.265C292.929 122.766 293.373 121.378 293.373 119.991C293.373 118.603 292.874 117.105 293.984 115.995C294.872 115.107 296.37 114.774 297.536 115.051C301.365 115.939 300.977 120.768 299.312 123.376C298.757 124.264 300.2 125.097 300.755 124.209C302.586 121.267 303.03 116.827 300.033 114.441C297.813 112.665 294.039 112.998 292.319 115.329C291.153 116.883 291.93 118.27 291.597 120.046C291.042 122.988 286.88 120.268 284.993 120.934C281.441 122.211 282.495 126.706 285.659 127.539C286.824 127.705 287.268 126.096 286.269 125.818Z" fill="#E91E63"/>
<path d="M647.241 369.241C648.406 368.353 649.683 368.298 651.07 369.019C651.681 369.352 652.513 368.797 652.291 368.076C651.792 367.077 651.903 366.189 652.735 365.412C653.124 363.691 654.012 363.58 655.344 365.023C655.732 365.8 656.842 365.356 656.898 364.579C656.898 363.858 656.953 363.081 657.064 362.359C657.231 360.583 658.396 360.139 660.45 360.972C660.894 361.971 662.281 361.083 661.893 360.139C661.227 358.585 659.451 358.086 657.897 358.696C655.566 359.64 655.288 362.415 655.233 364.579C655.732 364.413 656.287 364.302 656.787 364.135C656.01 362.47 654.012 361.86 652.347 362.692C650.238 363.802 650.127 366.411 650.682 368.464C651.07 368.131 651.514 367.854 651.903 367.521C650.016 366.577 648.24 366.633 646.408 367.743C645.52 368.353 646.353 369.796 647.241 369.241Z" fill="#E91E63"/>
<path d="M604.117 139.305C601.12 140.193 599.011 142.746 598.623 145.909C598.234 148.906 600.01 152.625 603.34 152.958C605.782 153.18 608.224 150.405 606.726 148.129C605.116 145.632 602.008 147.463 600.732 149.239C597.124 154.401 600.343 164.502 607.78 162.115C609.834 161.449 612.387 158.952 611.221 156.565C609.778 153.624 606.559 156.787 605.727 158.452C604.006 161.893 603.562 166.833 607.114 169.275C609.889 171.162 613.719 169.941 614.607 166.666C614.829 165.945 613.774 165.168 613.219 165.834C609.39 170.662 612.331 177.322 618.547 177.544C619.602 177.6 619.602 175.935 618.547 175.879C613.885 175.713 611.443 170.718 614.385 167.055C613.941 166.777 613.441 166.5 612.997 166.222C612.165 169.386 608.28 168.886 606.781 166.555C605.449 164.391 605.893 161.449 607.114 159.285C607.392 158.73 608.89 156.121 609.778 157.786C610.222 158.674 608.557 159.951 608.002 160.284C606.282 161.227 604.006 160.95 602.674 159.507C601.287 158.064 600.843 155.844 601.009 153.901C601.12 152.847 601.342 151.626 601.842 150.738C602.064 150.405 602.341 150.072 602.563 149.739C603.951 148.407 603.895 148.795 602.341 150.96C601.231 151.071 600.288 148.018 600.232 147.297C600.177 146.575 600.288 145.854 600.454 145.188C601.009 143.134 602.508 141.58 604.561 140.97C605.616 140.637 605.172 139.027 604.117 139.305Z" fill="#E91E63"/>
<path d="M305.527 173.215C305.083 171.883 305.305 170.607 306.304 169.552C307.414 168.387 308.746 168.553 310.134 168.775C311.133 168.942 311.91 169.053 312.853 168.498C313.575 168.054 314.074 167.221 314.407 166.5C314.629 165.945 314.796 165.39 314.907 164.835C314.962 164.446 315.073 164.058 315.129 163.725C315.24 162.393 316.183 161.838 317.904 162.06C317.848 163.059 319.236 163.114 319.513 162.282C319.957 161.005 320.512 159.673 321.678 158.896C323.398 157.731 325.84 157.953 326.173 160.339C326.34 161.394 327.894 160.95 327.783 159.895C327.45 157.62 325.285 156.177 323.01 156.51C320.235 156.898 318.736 159.507 317.959 161.893C318.514 161.949 319.069 162.06 319.569 162.115C319.68 160.45 318.126 159.396 316.516 159.618C313.908 159.951 313.797 162.892 313.242 164.835C312.853 166.222 312.52 167.277 310.578 167.221C310.023 167.221 309.357 166.833 308.746 166.833C307.692 166.833 306.637 167.221 305.805 167.832C303.973 169.219 303.196 171.55 303.918 173.715C304.251 174.658 305.86 174.27 305.527 173.215Z" fill="#4872C8"/>
<path d="M616.217 227.05C620.201 227.05 623.432 223.596 623.432 219.336C623.432 215.075 620.201 211.621 616.217 211.621C612.232 211.621 609.002 215.075 609.002 219.336C609.002 223.596 612.232 227.05 616.217 227.05Z" fill="#4872C8"/>
<path d="M225.94 228.771C228.577 228.771 230.714 226.659 230.714 224.053C230.714 221.448 228.577 219.336 225.94 219.336C223.304 219.336 221.167 221.448 221.167 224.053C221.167 226.659 223.304 228.771 225.94 228.771Z" fill="#4872C8"/>
<path d="M296.592 429.681C298.799 429.681 300.588 427.743 300.588 425.352C300.588 422.961 298.799 421.023 296.592 421.023C294.385 421.023 292.596 422.961 292.596 425.352C292.596 427.743 294.385 429.681 296.592 429.681Z" fill="#4872C8"/>
<path d="M607.836 236.652C612.464 236.652 616.217 233.099 616.217 228.715C616.217 224.332 612.464 220.779 607.836 220.779C603.208 220.779 599.456 224.332 599.456 228.715C599.456 233.099 603.208 236.652 607.836 236.652Z" fill="#E91E63"/>
<path d="M441.946 66.1559C444.307 66.1559 446.22 64.0189 446.22 61.3829C446.22 58.7468 444.307 56.6099 441.946 56.6099C439.586 56.6099 437.673 58.7468 437.673 61.3829C437.673 64.0189 439.586 66.1559 441.946 66.1559Z" fill="#E91E63"/>
<path d="M676.49 320.568C679.8 320.568 682.484 317.586 682.484 313.908C682.484 310.23 679.8 307.248 676.49 307.248C673.179 307.248 670.495 310.23 670.495 313.908C670.495 317.586 673.179 320.568 676.49 320.568Z" fill="#E91E63"/>
<path d="M209.18 286.158C215.8 286.158 221.168 280.666 221.168 273.892C221.168 267.118 215.8 261.627 209.18 261.627C202.559 261.627 197.192 267.118 197.192 273.892C197.192 280.666 202.559 286.158 209.18 286.158Z" fill="#E91E63"/>
<path d="M292.707 600.565C281.94 584.359 267.51 566.71 269.397 546.064C269.12 546.342 268.842 546.619 268.565 546.897C270.23 546.841 271.673 547.119 273.227 547.785C273.837 548.062 274.725 547.618 274.448 546.841C273.893 545.287 272.894 544.399 271.784 543.234C269.73 541.069 269.564 538.849 269.675 536.019C269.841 531.523 269.064 527.416 267.177 523.309C267.011 523.698 266.844 524.142 266.678 524.53C268.121 524.031 269.564 523.531 271.007 523.032C271.395 522.865 271.728 522.477 271.562 522.033C268.01 511.71 269.786 500.11 270.563 489.51C271.395 478.188 272.505 466.921 273.837 455.655C273.393 455.877 273.005 456.154 272.561 456.376C279.998 461.149 283.994 469.308 287.102 477.244C290.654 486.291 293.706 495.504 296.259 504.883C301.587 524.197 304.806 544.122 305.916 564.157C306.527 575.313 306.471 586.524 305.75 597.68C305.694 598.734 307.359 598.734 307.415 597.68C310.023 556.609 303.752 514.707 288.545 476.412C285.27 468.142 281.052 459.873 273.393 454.933C272.783 454.545 272.228 455.044 272.117 455.655C270.729 467.31 269.619 478.965 268.787 490.62C268.01 501.109 266.456 512.32 269.897 522.477C270.063 522.144 270.285 521.811 270.452 521.478C269.009 521.977 267.566 522.477 266.123 522.976C265.568 523.143 265.401 523.698 265.623 524.197C266.733 526.639 267.566 529.192 267.843 531.912C268.065 534.187 267.732 536.407 267.899 538.683C268.01 540.237 268.287 541.68 269.231 543.012C270.341 544.566 272.117 545.565 272.783 547.396C273.171 547.063 273.615 546.786 274.004 546.453C272.228 545.676 270.452 545.287 268.509 545.343C268.01 545.343 267.732 545.731 267.677 546.175C265.79 567.154 280.331 585.081 291.264 601.509C291.875 602.286 293.318 601.453 292.707 600.565Z" fill="#E8E8E8"/>
<path d="M273.893 459.54C286.547 493.506 294.15 529.304 296.315 565.49C296.925 575.702 297.092 585.969 296.87 596.237C296.87 597.291 298.535 597.291 298.535 596.237C299.367 560.051 294.872 523.754 285.159 488.844C282.384 478.799 279.11 468.864 275.502 459.096C275.169 458.097 273.56 458.541 273.893 459.54Z" fill="#E8E8E8"/>
<path d="M269.397 494.616C277.611 499.722 284.327 506.771 289.044 515.262C289.544 516.206 290.987 515.373 290.487 514.43C285.659 505.716 278.721 498.446 270.23 493.173C269.342 492.618 268.509 494.061 269.397 494.616Z" fill="#E8E8E8"/>
<path d="M271.062 474.136C275.724 477.633 279.498 481.962 282.44 486.957C282.995 487.901 284.438 487.068 283.883 486.124C280.775 480.852 276.779 476.356 271.895 472.693C271.062 472.083 270.23 473.526 271.062 474.136Z" fill="#E8E8E8"/>
<path d="M295.482 540.237C296.481 533.355 298.424 526.64 301.31 520.313C301.754 519.369 300.311 518.481 299.867 519.48C296.925 525.974 294.927 532.745 293.873 539.849C293.706 540.848 295.316 541.292 295.482 540.237Z" fill="#E8E8E8"/>
<path d="M299.478 508.713C304.584 491.786 313.409 476.468 322.233 461.261C321.734 461.205 321.234 461.15 320.735 461.039C325.286 483.239 329.06 505.55 331.946 528.027C332.223 527.75 332.501 527.472 332.778 527.195C330.836 527.084 328.893 526.973 326.951 526.862C326.285 526.806 325.785 527.861 326.34 528.305C329.67 530.858 329.337 535.298 328.949 539.072C328.449 544.067 327.894 549.006 327.339 554.001C327.672 553.724 328.061 553.446 328.394 553.224C326.895 552.891 325.452 552.78 323.898 552.78C323.288 552.78 322.844 553.502 323.177 554.057C327.45 561.383 320.79 569.042 317.682 575.369C314.574 581.751 312.576 588.633 311.577 595.682C311.411 596.736 313.02 597.18 313.187 596.126C314.352 587.579 317.127 579.476 321.401 571.983C324.62 566.322 328.338 559.607 324.62 553.224C324.398 553.668 324.12 554.057 323.898 554.501C325.286 554.445 326.618 554.556 327.95 554.889C328.505 555 328.949 554.667 329.004 554.112C329.615 548.396 330.503 542.679 330.78 536.963C330.947 533.411 330.447 529.581 327.506 527.25C327.284 527.75 327.117 528.194 326.895 528.693C328.838 528.804 330.78 528.915 332.723 529.026C333.111 529.026 333.611 528.638 333.555 528.194C330.614 505.605 326.84 483.072 322.233 460.761C322.067 460.04 321.068 459.984 320.735 460.539C311.855 475.857 302.975 491.342 297.813 508.38C297.591 509.268 299.201 509.712 299.478 508.713Z" fill="#E8E8E8"/>
<path d="M320.679 463.092C315.074 496.17 311.244 529.581 309.191 563.103C309.135 564.157 310.8 564.157 310.856 563.103C312.854 529.747 316.683 496.503 322.233 463.536C322.455 462.481 320.846 462.037 320.679 463.092Z" fill="#E8E8E8"/>
<path d="M303.863 496.67C306.138 504.384 308.802 511.932 311.799 519.369C312.188 520.368 313.797 519.924 313.409 518.925C310.412 511.488 307.803 503.885 305.472 496.226C305.139 495.171 303.53 495.615 303.863 496.67Z" fill="#E8E8E8"/>
<path d="M114.164 529.415C133.2 523.143 154.068 519.036 174.159 520.09C184.593 520.645 194.528 523.864 204.407 526.861C214.008 529.747 223.61 532.745 233.267 535.52C244.145 538.628 255.134 541.125 266.4 541.902C267.455 541.958 267.455 540.293 266.4 540.237C245.643 538.905 225.608 531.579 205.85 525.585C196.47 522.754 187.146 519.591 177.323 518.647C167.222 517.704 156.954 518.647 146.964 520.035C135.642 521.644 124.487 524.253 113.664 527.805C112.721 528.138 113.165 529.748 114.164 529.415Z" fill="#E8E8E8"/>
<path d="M173.382 519.424C189.588 515.872 205.85 512.32 221.834 507.714C237.54 503.163 252.858 496.004 269.231 494.006C270.285 493.895 270.285 492.23 269.231 492.341C253.08 494.339 237.984 501.276 222.444 505.827C206.183 510.6 189.588 514.207 172.994 517.87C171.884 518.037 172.328 519.646 173.382 519.424Z" fill="#E8E8E8"/>
<path d="M293.262 490.232C297.702 489.954 302.198 489.899 306.638 490.065C307.692 490.121 307.692 488.456 306.638 488.4C302.142 488.234 297.702 488.289 293.262 488.567C292.208 488.678 292.208 490.343 293.262 490.232Z" fill="#E8E8E8"/>
<path d="M135.476 595.071C154.124 592.407 172.605 597.125 190.92 600.011C199.634 601.398 208.403 602.231 217.227 602.009C227.106 601.731 236.985 600.732 246.753 602.453C247.808 602.619 248.252 601.01 247.197 600.843C237.596 599.178 227.994 600.011 218.282 600.344C208.514 600.677 198.912 599.678 189.311 598.124C171.329 595.182 153.291 590.909 135.032 593.517C133.977 593.628 134.421 595.238 135.476 595.071Z" fill="#E8E8E8"/>
<path d="M246.365 616.827C246.587 615.106 253.191 615.883 254.357 615.883C255.8 615.883 261.128 615.051 261.849 616.605C261.96 616.216 262.071 615.828 262.127 615.439C259.407 617.271 256.41 618.048 253.136 617.826C252.081 617.77 252.081 619.435 253.136 619.491C256.688 619.713 259.962 618.825 262.959 616.882C263.348 616.605 263.459 616.161 263.237 615.717C262.737 614.662 261.905 614.385 260.795 614.218C258.186 613.83 255.3 614.163 252.692 614.163C250.194 614.163 245.033 613.219 244.644 616.771C244.533 617.881 246.254 617.881 246.365 616.827Z" fill="#E8E8E8"/>
<path d="M247.586 589.355C246.531 589.91 245.421 589.743 244.311 588.855C244.256 589.299 244.2 589.743 244.145 590.187C245.532 589.133 247.142 588.467 248.918 588.522C250.361 588.578 251.637 589.355 253.08 589.41C254.412 589.466 255.633 588.911 256.965 588.744C259.074 588.411 261.017 588.855 262.904 589.91C263.847 590.409 264.68 589.022 263.736 588.467C262.349 587.69 260.961 587.135 259.352 587.024C257.076 586.802 254.967 588.023 252.803 587.745C251.027 587.523 249.584 586.802 247.697 586.968C246.032 587.135 244.589 587.801 243.257 588.8C242.868 589.077 242.646 589.743 243.09 590.132C244.589 591.353 246.143 591.741 247.974 591.075C249.029 590.631 248.585 589.022 247.586 589.355Z" fill="#E8E8E8"/>
<path d="M163.448 612.887C166.278 616.383 170.052 613.109 173.216 612.443C175.824 611.888 177.878 613.442 180.431 613.442C183.15 613.442 186.092 612.165 188.478 613.886C189.366 614.496 190.199 613.053 189.311 612.443C187.868 611.388 186.314 611.222 184.538 611.333C181.874 611.555 179.765 611.888 177.101 611.055C175.269 610.445 173.715 610.445 171.884 611.111C169.664 611.943 166.5 614.163 164.502 611.721C163.947 610.889 162.726 612.11 163.448 612.887Z" fill="#E8E8E8"/>
<path d="M342.713 601.787C346.376 600.344 349.317 600.788 353.147 601.232C355.533 601.509 357.198 600.677 359.307 599.733C361.527 598.734 363.026 599.234 365.024 600.343C365.856 600.787 366.633 601.176 367.577 601.343C370.407 601.898 374.237 600.011 376.623 602.064C377.456 602.786 378.621 601.564 377.789 600.898C375.68 599.123 373.404 599.511 370.796 599.733C368.631 599.9 366.966 599.511 365.135 598.457C364.025 597.846 362.97 597.291 361.694 597.291C360.528 597.291 359.474 597.791 358.419 598.235C355.922 599.345 354.423 599.678 351.648 599.234C348.374 598.734 345.377 598.901 342.269 600.122C341.27 600.566 341.714 602.175 342.713 601.787Z" fill="#E8E8E8"/>
<path d="M707.958 512.654C727.661 503.607 747.474 494.505 768.231 488.178C789.155 481.851 810.911 478.743 832.778 479.243C845.21 479.52 857.642 480.963 869.852 483.461C870.906 483.683 871.35 482.073 870.296 481.851C848.54 477.356 826.173 476.357 804.14 478.965C782.273 481.518 761.349 487.956 740.981 496.226C729.548 500.888 718.281 506.049 707.07 511.211C706.182 511.655 707.015 513.098 707.958 512.654Z" fill="#E8E8E8"/>
<path d="M798.146 514.485C811.133 509.768 824.453 506.105 838.05 503.663C845.043 502.386 852.036 501.498 859.14 500.832C864.246 500.388 873.737 498.224 877.4 503.108C878.01 503.94 879.508 503.108 878.842 502.275C875.679 498.057 870.185 498.446 865.412 498.723C857.864 499.167 850.26 500 842.768 501.165C827.394 503.552 812.298 507.548 797.702 512.876C796.703 513.264 797.147 514.874 798.146 514.485Z" fill="#E8E8E8"/>
<path d="M708.014 478.854C723.221 475.524 739.149 477.3 753.191 484.016C754.134 484.46 755.022 483.017 754.023 482.573C739.538 475.691 723.221 473.804 707.57 477.245C706.515 477.467 706.959 479.076 708.014 478.854Z" fill="#E8E8E8"/>
<path d="M741.924 555.222C744.311 552.392 748.085 555.611 750.582 556.61C752.636 557.442 754.245 557.22 756.243 556.332C759.462 554.889 762.071 556.166 765.29 556.055C768.62 555.944 771.339 552.78 774.392 555.555C775.169 556.277 776.39 555.111 775.557 554.39C773.559 552.614 771.395 552.281 768.897 553.169C767.621 553.668 766.677 554.279 765.234 554.39C764.124 554.445 763.014 554.168 761.904 554.057C760.572 553.89 759.24 553.668 757.964 553.89C755.855 554.279 754.19 555.944 751.859 555.333C750.194 554.889 748.806 553.724 747.197 553.058C744.921 552.17 742.313 552.003 740.648 554.001C740.037 554.889 741.203 556.055 741.924 555.222Z" fill="#E8E8E8"/>
<path d="M805.916 597.846C802.364 586.524 800.754 574.758 801.198 562.881C800.754 563.103 800.366 563.381 799.922 563.603C801.143 564.213 802.419 564.824 803.64 565.434C804.251 565.712 804.861 565.379 804.917 564.713C805.694 553.28 808.247 542.124 812.409 531.413C812.021 531.579 811.577 531.746 811.188 531.912C811.854 532.245 812.52 532.578 813.242 532.967C813.519 533.133 814.019 533.133 814.241 532.856C818.57 527.417 823.343 522.422 828.671 517.926C828.227 517.871 827.783 517.815 827.339 517.76C831.279 523.254 831.002 530.469 830.724 536.907C830.391 544.067 829.448 551.115 827.838 558.108C824.675 571.65 819.18 584.526 811.577 596.181C810.966 597.069 812.409 597.902 813.02 597.014C821.067 584.748 826.839 571.04 829.892 556.665C831.39 549.672 832.278 542.568 832.5 535.464C832.667 529.137 832.722 522.255 828.837 516.872C828.504 516.428 827.949 516.317 827.505 516.705C822.177 521.201 817.404 526.14 813.075 531.635C813.408 531.579 813.741 531.524 814.074 531.524C813.408 531.191 812.742 530.858 812.021 530.469C811.521 530.192 811.022 530.469 810.8 530.969C806.582 541.791 804.084 553.113 803.252 564.713C803.696 564.491 804.084 564.213 804.528 563.991C803.307 563.381 802.031 562.77 800.81 562.16C800.255 561.882 799.589 562.215 799.533 562.881C799.089 574.869 800.699 586.802 804.306 598.235C804.639 599.289 806.249 598.845 805.916 597.846Z" fill="#E8E8E8"/>
<path d="M830.613 555.777C834.387 547.674 838.827 539.904 843.822 532.523C843.489 532.634 843.212 532.8 842.879 532.911C846.098 533.744 847.874 530.802 849.539 528.582C852.591 524.475 856.421 521.201 860.916 518.703C860.528 518.537 860.084 518.37 859.695 518.204C864.746 533.966 861.527 550.283 852.092 563.714C847.652 570.041 842.546 576.09 837.329 581.807C832.112 587.412 826.395 592.463 819.513 595.959C818.57 596.459 819.402 597.901 820.346 597.402C827.339 593.85 833.222 588.688 838.494 582.972C844.044 576.923 849.483 570.54 854.09 563.769C863.358 550.172 866.355 533.577 861.305 517.815C861.138 517.316 860.583 517.038 860.084 517.316C857.087 518.981 854.312 520.979 851.814 523.421C850.704 524.531 849.65 525.752 848.651 527.028C847.43 528.582 845.82 531.968 843.323 531.357C842.934 531.246 842.601 531.413 842.379 531.746C837.384 539.127 832.944 546.897 829.17 555C828.726 555.888 830.169 556.776 830.613 555.777Z" fill="#E8E8E8"/>
<path d="M822.788 527.639C818.958 538.073 814.296 548.562 811.799 559.44C809.246 570.54 807.692 581.917 805.805 593.128C805.638 594.183 807.248 594.627 807.414 593.572C809.357 582.361 810.855 570.928 813.408 559.884C815.906 549.006 820.568 538.572 824.397 528.083C824.786 527.084 823.176 526.64 822.788 527.639Z" fill="#E8E8E8"/>
<path d="M852.036 535.908C845.876 545.787 839.715 555.666 833.555 565.489C827.949 574.48 821.9 583.305 818.015 593.184C817.626 594.183 819.236 594.627 819.624 593.628C823.62 583.582 829.892 574.536 835.608 565.378C841.547 555.832 847.541 546.286 853.479 536.685C854.034 535.797 852.591 534.964 852.036 535.908Z" fill="#E8E8E8"/>
<path d="M808.136 537.961C808.691 543.567 810.023 548.95 812.076 554.167C812.465 555.166 814.074 554.722 813.686 553.723C811.688 548.673 810.356 543.4 809.801 537.961C809.69 536.907 808.025 536.851 808.136 537.961Z" fill="#E8E8E8"/>
<path d="M812.687 564.657C819.069 559.163 824.952 553.168 830.391 546.73C831.057 545.898 829.892 544.732 829.226 545.565C823.787 552.003 817.904 557.997 811.521 563.491C810.689 564.213 811.91 565.379 812.687 564.657Z" fill="#E8E8E8"/>
<path d="M838.05 538.295C837.551 543.9 837.662 549.45 838.383 555C838.494 556.055 840.159 556.055 840.048 555C839.327 549.45 839.216 543.845 839.715 538.295C839.826 537.185 838.161 537.185 838.05 538.295Z" fill="#E8E8E8"/>
<path d="M184.316 358.253C176.268 356.033 170.441 348.207 170.552 339.827C170.663 330.447 179.099 320.457 188.922 320.679C199.245 320.957 204.795 333.5 203.796 342.546C202.631 353.313 191.919 360.084 181.652 357.254C180.597 356.976 180.153 358.586 181.208 358.863C189.477 361.139 198.413 357.92 202.853 350.483C207.293 342.99 205.794 333.056 201.077 326.007C196.304 318.903 187.313 317.127 179.931 321.401C172.883 325.563 168.054 334.166 169.053 342.38C170.052 350.483 175.991 357.642 183.872 359.807C184.926 360.14 185.37 358.53 184.316 358.253Z" fill="#E8E8E8"/>
<path d="M167.555 400.377C169.275 402.375 171.551 403.707 174.215 403.984C175.602 404.151 176.99 403.984 178.322 403.485C180.431 402.763 182.151 401.209 184.593 401.653C187.646 402.153 189.921 404.262 193.14 403.873C196.637 403.485 199.689 400.987 203.352 401.265C206.682 401.542 209.513 403.818 212.787 404.484C215.673 405.094 217.505 404.04 219.947 402.763C226.218 399.433 233.378 403.651 239.927 401.431C240.926 401.098 240.482 399.489 239.483 399.822C233.6 401.764 227.439 398.545 221.501 400.266C218.226 401.209 216.173 403.651 212.454 402.708C209.624 401.986 207.182 400.266 204.296 399.766C201.576 399.267 199.19 400.21 196.692 401.154C195.249 401.709 193.695 402.319 192.086 402.319C190.088 402.319 188.423 401.209 186.647 400.543C184.094 399.6 182.207 399.933 179.765 401.043C175.769 402.874 171.717 402.819 168.72 399.211C168.054 398.379 166.833 399.544 167.555 400.377Z" fill="#E8E8E8"/>
<path d="M210.456 385.891C214.841 388.333 219.891 384.726 224.22 387.001C225.941 387.889 227.051 389.332 229.16 389.055C230.88 388.833 232.212 387.501 233.544 386.502C236.541 384.171 238.983 384.726 242.258 386.058C244.7 387.057 247.031 387.667 249.639 387.612C255.522 387.501 261.35 384.948 267.177 386.89C268.176 387.223 268.62 385.614 267.621 385.281C262.626 383.616 257.631 385.059 252.581 385.669C249.584 386.058 246.753 386.002 243.923 384.892C241.592 384.004 239.261 382.672 236.652 383.005C234.932 383.227 233.655 384.226 232.323 385.281C231.213 386.169 230.159 387.279 228.66 387.279C227.162 387.334 226.274 386.169 224.997 385.503C220.668 383.116 215.507 386.779 211.233 384.393C210.345 383.893 209.513 385.336 210.456 385.891Z" fill="#E8E8E8"/>
<path d="M702.908 351.26C706.238 350.372 708.624 350.372 711.566 352.314C713.009 353.258 714.507 353.979 716.228 354.312C719.28 354.867 722.444 354.146 725.385 353.369C728.993 352.37 732.656 351.038 736.43 351.038C740.426 351.038 743.7 353.813 747.752 353.48C755.3 352.814 760.017 345.321 768.12 346.209C775.169 346.986 782.162 351.426 789.099 348.041C790.043 347.597 789.21 346.154 788.267 346.598C781.052 350.094 773.226 344.211 765.789 344.489C762.404 344.6 759.518 346.043 756.632 347.708C753.135 349.817 749.306 352.703 744.921 351.648C742.923 351.204 741.203 350.094 739.205 349.65C737.651 349.317 736.097 349.317 734.543 349.484C731.102 349.817 727.827 350.982 724.553 351.87C720.723 352.869 716.727 353.591 713.12 351.426C711.621 350.483 710.289 349.373 708.513 349.04C706.46 348.651 704.406 349.206 702.464 349.706C701.465 349.928 701.853 351.537 702.908 351.26Z" fill="#E8E8E8"/>
<path d="M763.347 365.912C766.511 364.08 770.174 363.747 773.504 365.301C775.502 366.189 777.056 367.355 779.331 367.188C784.493 366.8 788.045 362.249 793.428 364.691C795.038 365.412 796.592 366.189 798.423 365.912C800.699 365.523 802.308 363.692 804.362 362.915C809.412 360.972 815.129 363.803 820.401 362.637C821.456 362.415 821.012 360.806 819.957 361.028C814.74 362.138 809.357 359.474 804.195 361.194C801.809 361.971 799.977 364.247 797.369 364.247C794.76 364.247 792.707 362.138 789.987 362.193C784.992 362.304 780.996 367.299 775.89 364.857C771.339 362.637 767.01 361.971 762.404 364.635C761.571 364.968 762.404 366.411 763.347 365.912Z" fill="#E8E8E8"/>
<path d="M720.113 448.829C723.665 447.719 726.162 448.607 729.381 449.994C731.157 450.716 732.822 450.882 734.709 450.549C737.04 450.05 739.149 448.94 741.425 448.329C744.866 447.441 746.808 449.328 749.805 450.494C754.245 452.214 757.853 449.051 761.96 448.052C767.177 446.775 771.95 450.494 777.222 449.717C778.277 449.55 777.833 447.941 776.778 448.107C771.672 448.884 767.066 445.221 761.904 446.387C759.462 446.942 757.353 448.274 754.967 448.995C751.47 450.05 749.472 448.163 746.42 446.942C742.257 445.332 738.594 447.996 734.598 448.884C731.712 449.55 729.77 448.107 727.161 447.219C724.664 446.387 722.111 446.498 719.669 447.275C718.614 447.552 719.058 449.162 720.113 448.829Z" fill="#E8E8E8"/>
<path opacity="0.22" d="M826.728 617.271C752.414 631.479 678.044 645.632 603.729 659.84C514.763 632.09 425.852 604.34 336.885 576.59C455.489 577.034 574.092 577.422 692.64 577.866C737.373 591.02 782.051 604.173 826.728 617.271Z" fill="#666666"/>
<path opacity="0.19" d="M740.37 596.292C677.711 611.333 614.996 626.373 552.336 641.414C481.629 619.824 410.867 598.235 340.16 576.59C436.064 568.542 532.023 560.495 627.927 552.447C665.39 567.099 702.852 581.696 740.37 596.292Z" fill="#666666"/>
<path d="M336.608 408.757C337.44 464.091 338.328 519.424 339.161 574.813C409.424 590.686 479.631 606.504 549.894 622.377C549.783 558.33 549.617 494.283 549.506 430.236C478.521 423.021 407.537 415.861 336.608 408.757Z" fill="white" stroke="#161616" stroke-width="2" stroke-miterlimit="10"/>
<path d="M704.573 394.161C704.295 455.211 704.018 516.261 703.74 577.311C652.625 592.352 601.454 607.337 550.338 622.377C550.172 557.609 550.005 492.896 549.839 428.127C601.398 416.861 653.013 405.539 704.573 394.161Z" fill="white" stroke="#161616" stroke-width="2" stroke-miterlimit="10"/>
<path d="M548.063 429.681C477.855 422.411 407.703 415.14 337.551 407.87C383.783 396.104 430.014 384.338 476.246 372.572C551.837 379.842 627.483 387.113 703.074 394.439C651.404 406.149 599.733 417.915 548.063 429.681Z" fill="white" stroke="#161616" stroke-width="2" stroke-miterlimit="10"/>
<path d="M599.456 384.504C581.418 383.283 563.436 382.062 545.399 380.841C509.879 393.828 474.359 406.815 438.894 419.802C438.561 478.688 438.228 537.573 437.84 596.458C453.768 600.288 469.697 604.062 485.625 607.892C484.959 546.897 484.238 485.958 483.572 424.964C522.2 411.533 560.828 397.991 599.456 384.504Z" fill="#161616" stroke="#161616" stroke-width="2" stroke-miterlimit="10"/>
<path d="M614.996 602.73C629.703 598.235 644.466 593.739 659.174 589.243C658.674 528.249 658.119 467.31 657.62 406.316C585.581 397.824 513.486 389.333 441.447 380.841C428.96 383.949 416.528 387.057 404.04 390.221C474.525 401.154 545.01 412.032 615.551 422.966C615.384 482.906 615.218 542.79 614.996 602.73Z" fill="#161616" stroke="#161616" stroke-width="2" stroke-miterlimit="10"/>
<path d="M618.714 301.809C623.82 303.918 624.653 317.127 621.878 327.45C611.222 367.022 542.235 383.061 538.961 377.012C537.573 374.403 549.45 369.464 574.425 344.711C601.953 317.405 611.999 299.09 618.714 301.809Z" fill="white" stroke="#161616" stroke-width="2" stroke-miterlimit="10"/>
<path d="M476.745 327.839C478.077 334.11 481.352 341.381 502.386 361.583C516.483 375.125 523.587 381.896 525.585 380.564C529.637 377.789 516.206 351.093 503.441 332.057C496.892 322.289 485.403 305.25 479.576 307.47C475.413 309.024 475.08 320.013 476.745 327.839Z" fill="white" stroke="#161616" stroke-width="2" stroke-miterlimit="10"/>
<path d="M529.692 403.763C537.845 403.763 544.455 396.78 544.455 388.167C544.455 379.554 537.845 372.572 529.692 372.572C521.539 372.572 514.929 379.554 514.929 388.167C514.929 396.78 521.539 403.763 529.692 403.763Z" fill="#161616" stroke="#161616" stroke-width="2" stroke-miterlimit="10"/>
<path d="M529.97 381.84C538.35 373.681 546.842 365.023 555.333 355.977C574.092 335.997 590.798 316.294 605.616 297.202C608.835 296.814 615.162 296.425 617.826 300.033C621.711 305.194 615.551 315.406 612.665 320.235C597.957 344.71 551.171 370.74 529.97 381.84Z" fill="#161616" stroke="#161616" stroke-width="2" stroke-miterlimit="10"/>
<path d="M480.13 306.638C482.184 304.751 488.566 308.58 492.34 310.856C523.642 329.67 527.472 374.181 528.082 382.284C502.552 349.317 474.969 311.466 480.13 306.638Z" fill="#161616" stroke="#161616" stroke-width="2" stroke-miterlimit="10"/>
<path d="M348.207 438.728C373.515 439.172 398.934 439.061 424.187 440.226C449.717 441.392 475.025 444.943 500.222 449.328C514.43 451.825 528.638 454.545 542.846 457.32C543.9 457.542 544.344 455.932 543.29 455.71C518.426 450.882 493.506 446.109 468.365 442.724C442.946 439.338 417.527 438.228 391.886 437.784C377.344 437.562 362.748 437.285 348.207 437.062C347.153 437.062 347.153 438.728 348.207 438.728Z" fill="#161616"/>
<path d="M563.825 456.487C606.338 443.722 649.683 433.788 693.583 426.795C694.638 426.628 694.194 425.019 693.139 425.185C649.294 432.178 605.949 442.113 563.38 454.878C562.381 455.155 562.826 456.765 563.825 456.487Z" fill="#161616"/>
<path d="M487.457 532.911C487.457 549.728 487.457 566.489 487.457 583.305C487.457 584.36 489.122 584.36 489.122 583.305C489.122 566.489 489.122 549.728 489.122 532.911C489.122 531.856 487.457 531.856 487.457 532.911Z" fill="#161616"/>
<path d="M492.951 573.26C492.951 581.64 492.951 590.076 492.951 598.457C492.951 599.511 494.616 599.511 494.616 598.457C494.616 590.076 494.616 581.64 494.616 573.26C494.616 572.15 492.951 572.15 492.951 573.26Z" fill="#161616"/>
<path d="M607.836 490.12C607.836 503.551 607.836 516.982 607.836 530.413C607.836 531.468 609.501 531.468 609.501 530.413C609.501 516.982 609.501 503.551 609.501 490.12C609.501 489.066 607.836 489.066 607.836 490.12Z" fill="#161616"/>
<path d="M610.833 546.009C610.833 555.055 610.833 564.158 610.833 573.204C610.833 574.259 612.498 574.259 612.498 573.204C612.498 564.158 612.498 555.055 612.498 546.009C612.498 544.954 610.833 544.954 610.833 546.009Z" fill="#161616"/>
<path d="M407.98 487.956C407.98 495.226 407.98 502.497 407.98 509.767C407.98 510.822 409.645 510.822 409.645 509.767C409.645 502.497 409.645 495.226 409.645 487.956C409.645 486.901 407.98 486.901 407.98 487.956Z" fill="#161616"/>
<path d="M403.263 515.65C403.263 521.534 403.263 527.417 403.263 533.3C403.263 534.354 404.928 534.354 404.928 533.3C404.928 527.417 404.928 521.534 404.928 515.65C404.928 514.596 403.263 514.596 403.263 515.65Z" fill="#161616"/>
<path opacity="0.21" d="M701.021 577.089C650.849 592.351 600.677 607.669 550.505 622.932C550.505 559.218 550.505 495.504 550.505 431.79C600.954 420.246 651.404 408.702 701.853 397.213C701.631 457.153 701.354 517.093 701.021 577.089Z" fill="#666666"/>
<path opacity="0.21" d="M704.351 577.81C653.235 591.796 602.175 605.782 551.06 619.768C550.727 563.991 550.394 508.269 550.005 452.491C572.594 473.193 595.237 493.894 617.826 514.651C646.464 505.161 675.158 495.67 703.796 486.18C704.018 516.705 704.184 547.285 704.351 577.81Z" fill="#666666"/>
<path opacity="0.14" d="M621.211 304.695C618.492 304.14 615.606 322.843 606.115 338.217C597.513 352.147 580.363 368.464 542.568 377.899C547.452 377.455 554.889 376.456 563.602 373.903C572.649 371.295 610.833 360.195 620.878 330.391C624.985 318.07 623.431 305.139 621.211 304.695Z" fill="#666666"/>
<path opacity="0.2" d="M484.182 423.576C500.222 434.454 516.317 445.332 532.356 456.21C517.593 453.657 502.885 451.159 488.122 448.606C488.733 478.243 491.175 511.488 496.836 547.563C500.555 571.261 505.161 593.295 510.267 613.497C502.442 611.332 494.56 609.168 486.735 606.948C485.902 545.842 485.07 484.681 484.182 423.576Z" fill="#666666"/>
<path opacity="0.13" d="M488.067 424.075C511.655 420.69 535.298 417.304 558.885 413.919C548.507 412.531 538.128 411.144 527.75 409.812C520.59 412.476 514.707 414.308 510.6 415.528C506.382 416.749 503.219 417.526 498.501 419.358C494.006 421.078 490.398 422.854 488.067 424.075Z" fill="#666666"/>
<path d="M680.208 564.824C678.654 566.267 677.156 567.765 675.602 569.208C678.266 579.476 680.93 589.743 683.594 600.011C685.703 598.956 687.867 597.957 689.976 596.903C686.757 586.191 683.483 575.48 680.208 564.824Z" fill="#161616" stroke="#161616" stroke-width="3" stroke-miterlimit="10"/>
<path d="M683.261 559.995C681.707 559.551 680.208 559.107 678.654 558.663C678.377 553.335 678.044 548.007 677.766 542.679C686.813 539.405 695.915 536.13 704.961 532.8C705.738 533.022 706.571 533.244 707.348 533.466C699.356 542.291 691.308 551.171 683.261 559.995Z" fill="#161616" stroke="#161616" stroke-width="3" stroke-miterlimit="10"/>
<path d="M682.983 542.679C683.205 548.562 683.483 554.39 683.705 560.273C691.419 558.053 699.078 555.888 706.793 553.668C706.904 547.064 707.015 540.515 707.181 533.91C699.078 536.852 691.031 539.738 682.983 542.679Z" fill="white" stroke="#161616" stroke-width="3" stroke-miterlimit="10"/>
<path d="M680.43 564.657C689.976 562.215 699.467 559.773 709.013 557.331C708.68 560.162 708.513 563.381 708.624 566.877C709.013 576.09 711.455 583.638 713.73 588.855C705.794 591.519 697.857 594.239 689.921 596.903C686.757 586.136 683.594 575.424 680.43 564.657Z" fill="white" stroke="#161616" stroke-width="3" stroke-miterlimit="10"/>
<path d="M690.254 558.275C690.198 559.274 690.365 560.273 690.753 561.216C691.142 562.215 692.751 561.771 692.363 560.772C692.03 559.94 691.919 559.107 691.919 558.275C691.974 557.22 690.309 557.22 690.254 558.275Z" fill="#161616"/>
<path d="M695.359 557.387C695.248 558.275 695.415 559.163 695.748 559.94C695.914 560.328 696.303 560.661 696.747 560.495C697.135 560.384 697.524 559.884 697.302 559.496C697.024 558.774 696.913 558.108 696.969 557.387C697.024 556.943 696.58 556.554 696.136 556.554C695.692 556.554 695.359 556.943 695.359 557.387Z" fill="#161616"/>
<path d="M688.311 598.234C689.477 603.673 694.694 608.613 698.967 611.943C703.685 615.606 709.235 617.77 715.118 618.436C716.172 618.547 716.172 616.882 715.118 616.771C709.401 616.105 703.907 613.885 699.411 610.167C695.637 607.059 690.975 602.619 689.921 597.79C689.699 596.736 688.089 597.18 688.311 598.234Z" fill="#161616"/>
<path d="M692.196 596.792C697.635 605.061 704.85 612.72 715.062 614.385C716.117 614.552 716.561 612.942 715.506 612.776C705.683 611.166 698.856 603.896 693.584 595.959C693.029 595.016 691.586 595.848 692.196 596.792Z" fill="#161616"/>
<path d="M715.95 613.386C716.339 611.666 716.893 610.001 717.726 608.391C718.059 607.781 718.559 607.17 718.781 606.56C718.281 605.561 718.115 605.616 718.392 606.671C718.503 607.226 718.559 607.781 718.614 608.391C718.725 609.945 718.614 611.444 718.448 612.998C718.392 613.664 718.447 615.939 718.003 616.439C717.559 616.938 716.561 616.883 716.006 616.938C714.951 616.994 714.951 618.659 716.006 618.603C717.116 618.548 718.281 619.047 719.169 618.104C720.057 617.105 719.891 615.162 720.057 613.941C720.335 611.832 720.446 609.668 720.224 607.503C720.113 606.504 720.168 605.117 719.225 604.617C719.003 604.506 718.614 604.451 718.392 604.617C716.117 606.393 714.951 610.389 714.34 612.998C714.063 613.997 715.673 614.441 715.95 613.386Z" fill="#161616"/>
<path d="M705.017 592.352C710.178 598.623 718.17 601.62 726.162 600.566C727.217 600.399 726.773 598.845 725.718 598.956C718.281 599.955 710.9 596.958 706.182 591.186C705.516 590.354 704.351 591.519 705.017 592.352Z" fill="#161616"/>
<path d="M700.577 594.46C706.793 601.176 715.617 604.894 724.775 604.617C725.829 604.561 725.829 602.896 724.775 602.952C716.006 603.229 707.681 599.733 701.742 593.295C701.076 592.462 699.855 593.683 700.577 594.46Z" fill="#161616"/>
<path d="M727.383 599.511C727.661 598.457 727.994 597.402 728.382 596.403C728.493 596.07 729.492 592.907 729.881 592.907C729.603 592.685 729.326 592.518 729.104 592.296C729.659 593.961 729.27 596.292 729.104 597.957C728.882 600.011 728.438 602.009 727.883 604.007C727.605 605.061 729.215 605.505 729.492 604.451C730.103 602.342 730.547 600.177 730.769 597.957C730.935 596.126 731.324 593.628 730.713 591.852C730.602 591.519 730.269 591.242 729.936 591.242C727.439 591.408 726.329 597.18 725.829 599.067C725.496 600.122 727.106 600.566 727.383 599.511Z" fill="#161616"/>
<path d="M724.164 604.506C725.496 605.061 726.883 605.283 728.326 605.006C729.381 604.839 728.937 603.23 727.882 603.396C726.939 603.563 725.94 603.452 724.996 603.063C724.053 602.619 723.165 604.062 724.164 604.506Z" fill="#161616"/>
<path d="M693.806 605.061C694.028 603.729 695.193 602.897 696.525 603.063C697.58 603.174 697.58 601.509 696.525 601.398C694.527 601.176 692.529 602.619 692.196 604.617C691.974 605.672 693.584 606.116 693.806 605.061Z" fill="#161616"/>
<path d="M698.689 610.001C698.911 608.891 699.744 608.114 700.798 607.892C701.853 607.67 701.409 606.06 700.354 606.282C698.745 606.615 697.413 607.892 697.08 609.501C696.858 610.611 698.412 611.055 698.689 610.001Z" fill="#161616"/>
<path d="M703.851 613.941C704.24 612.776 705.183 611.943 706.404 611.721C707.459 611.499 707.015 609.89 705.96 610.112C704.184 610.445 702.797 611.777 702.242 613.497C701.909 614.496 703.518 614.94 703.851 613.941Z" fill="#161616"/>
<path d="M709.29 611.999C708.014 612.887 707.403 614.33 707.681 615.884C707.847 616.938 709.457 616.494 709.29 615.44C709.179 614.663 709.512 613.886 710.123 613.442C711.011 612.831 710.178 611.388 709.29 611.999Z" fill="#161616"/>
<path d="M717.893 607.225C716.838 610.056 717.393 613.719 717.393 616.716C717.393 617.77 719.058 617.77 719.058 616.716C719.058 613.885 718.503 610.333 719.502 607.669C719.835 606.67 718.226 606.226 717.893 607.225Z" fill="#161616"/>
<path d="M708.957 598.901C708.957 598.013 709.512 597.236 710.4 597.014C711.455 596.736 711.011 595.127 709.956 595.404C708.402 595.793 707.292 597.291 707.292 598.901C707.292 599.955 708.957 599.955 708.957 598.901Z" fill="#161616"/>
<path d="M704.462 595.959C704.906 595.071 705.738 594.516 706.737 594.35C707.181 594.294 707.403 593.739 707.292 593.351C707.181 592.851 706.737 592.685 706.293 592.796C704.906 593.018 703.685 593.906 703.019 595.182C702.575 596.07 704.018 596.903 704.462 595.959Z" fill="#161616"/>
<path d="M717.893 602.175C717.893 601.731 718.115 601.343 718.559 601.121C719.502 600.621 718.67 599.178 717.726 599.678C716.783 600.177 716.228 601.176 716.283 602.175C716.228 603.23 717.893 603.23 717.893 602.175Z" fill="#161616"/>
<path d="M687.035 550.06C688.145 550.06 689.255 550.06 690.365 550.06C691.419 550.06 691.419 548.396 690.365 548.396C689.255 548.396 688.145 548.396 687.035 548.396C685.98 548.396 685.98 550.06 687.035 550.06Z" fill="#161616"/>
<path d="M700.299 546.509C701.132 545.676 701.964 544.844 702.797 544.011C703.574 543.234 702.353 542.069 701.631 542.846C700.799 543.678 699.966 544.511 699.134 545.343C698.412 546.065 699.578 547.23 700.299 546.509Z" fill="#161616"/>
<path d="M694.027 552.503C695.581 553.002 697.246 552.281 698.079 550.949C698.634 550.005 697.191 549.173 696.636 550.116C696.192 550.893 695.304 551.171 694.471 550.949C693.417 550.616 693.028 552.225 694.027 552.503Z" fill="#161616"/>
<path d="M705.35 569.818C702.464 570.651 699.578 571.483 696.692 572.316C696.303 571.539 695.804 570.429 695.582 568.986C695.304 567.376 695.415 566.044 695.582 565.156C698.69 564.546 701.798 563.935 704.906 563.325C704.628 564.157 704.351 565.6 704.628 567.321C704.795 568.375 705.072 569.208 705.35 569.818Z" fill="#E91E63"/>
<path opacity="0.24" d="M688.755 540.848C688.922 546.398 689.144 552.003 689.31 557.553C695.027 556.055 700.743 554.612 706.46 553.113C706.515 547.008 706.571 540.959 706.571 534.854C700.688 536.907 694.694 538.85 688.755 540.848Z" fill="#666666"/>
<path opacity="0.24" d="M688.755 563.658C689.532 567.432 690.531 571.428 691.641 575.535C693.473 582.14 695.582 588.189 697.746 593.628C702.741 591.907 707.681 590.243 712.676 588.522C711.455 585.914 710.289 582.805 709.346 579.253C707.181 570.817 707.459 563.436 708.125 558.385C701.687 560.161 695.249 561.937 688.755 563.658Z" fill="#666666"/>
<path d="M397.602 121.989C397.824 126.485 398.213 133.034 398.934 140.859C400.71 160.34 401.765 177.156 406.26 190.476C409.646 200.522 417.638 219.336 437.618 238.262C436.452 242.091 434.565 246.92 431.402 252.137C427.517 258.519 423.077 263.07 419.747 266.012C403.319 249.972 394.716 233.988 390.165 223.665C379.009 198.246 378.732 175.103 378.51 157.953C378.343 144.023 379.509 132.312 380.73 123.932C378.732 122.045 375.679 119.103 371.85 115.607C364.857 109.28 362.193 107.226 362.637 106.338C363.025 105.561 365.911 105.617 377.899 109.89C367.576 96.6256 362.97 89.5216 364.08 88.4671C365.079 87.5236 370.629 91.5196 380.785 100.455C373.237 81.6961 372.016 76.0906 373.015 75.5911C374.014 75.0916 377.899 79.5871 388.777 97.6246C387.057 83.0836 387.612 79.8091 388.5 79.5871C390.054 79.2541 393.495 88.3006 394.494 91.0201C396.825 97.2361 398.102 102.564 398.768 106.172C408.147 98.7901 410.034 99.4561 410.478 99.9001C412.088 101.343 407.814 108.669 406.76 110.501C403.707 115.829 400.211 119.603 397.602 121.989Z" fill="white" stroke="#161616" stroke-width="2" stroke-miterlimit="10"/>
<path opacity="0.15" d="M373.515 76.4792C372.571 76.9787 376.068 86.3027 380.619 94.2393C381.895 96.4038 382.672 97.4583 389.388 107.559C392.107 111.666 394.327 114.996 395.826 117.216C393.883 125.208 391.774 136.197 391.219 149.406C390.831 158.619 390.22 176.879 396.658 198.746C403.651 222.5 415.806 239.649 424.686 250.028C428.959 246.198 433.233 242.369 437.506 238.539C419.136 220.89 411.033 203.186 407.314 193.14C402.042 178.821 400.599 165.057 399.322 153.069C397.935 140.582 397.768 130.037 397.879 122.322C400.71 120.102 404.928 116.217 408.036 110.168C408.702 108.836 412.365 101.787 410.533 100.233C408.591 98.5683 401.542 103.896 398.601 106.172C392.107 84.6932 389.499 79.8647 388.444 80.0867C387.834 80.1977 387.667 81.9737 387.445 84.8042C387.001 90.5762 388 95.2937 388.944 98.2352C388.888 98.3462 388.888 98.3463 373.515 76.4792Z" fill="#666666"/>
<path opacity="0.2" d="M409.035 105.284C406.76 106.338 401.931 108.947 398.102 114.497C394.605 119.547 393.662 124.431 393.384 126.929C392.607 134.699 392.441 143.579 393.44 153.18C396.936 187.368 412.976 212.454 423.354 225.83C416.195 214.008 406.982 195.86 401.709 172.161C397.158 151.848 396.992 134.199 397.824 121.49C399.989 119.214 402.431 116.328 404.762 112.776C406.538 110.112 407.925 107.559 409.035 105.284Z" fill="#666666"/>
<path d="M492.23 235.431C488.4 237.207 485.181 238.428 483.294 241.925C479.576 248.751 484.515 257.853 485.736 260.129C488.844 265.901 493.284 269.453 496.67 271.562C507.437 266.9 523.532 258.02 537.795 241.647C556.221 220.502 561.549 198.08 564.324 186.036C568.043 169.608 568.209 155.567 567.71 146.021C570.429 141.303 574.37 134.643 579.42 126.651C583.86 119.547 586.302 115.829 585.359 114.83C584.637 114.108 581.862 114.719 572.039 121.767C575.591 107.948 576.756 100.788 575.48 100.289C574.259 99.8446 570.818 105.45 565.157 117.161C565.989 101.177 565.601 93.0736 563.991 92.8516C562.326 92.5741 559.274 101.288 554.834 118.881C552.225 106.727 550.338 100.733 549.117 100.844C547.674 101.01 547.23 109.613 547.674 126.596C539.294 121.989 534.521 120.324 533.355 121.712C531.746 123.654 537.129 131.313 549.506 144.8C549.783 150.017 549.728 158.342 547.73 168.165C546.731 173.105 539.627 207.848 515.429 221.612C507.603 226.107 500.333 231.657 492.23 235.431Z" fill="white" stroke="#161616" stroke-width="2" stroke-miterlimit="10"/>
<path opacity="0.16" d="M575.48 100.178C574.592 99.9002 573.093 105.006 566.988 113.775C565.545 115.884 564.879 116.661 564.324 118.326C562.826 123.155 565.49 126.207 565.379 130.259C565.268 133.145 563.769 137.196 556.887 142.08C558.053 146.243 559.329 152.181 559.718 159.341C561.216 187.923 546.231 208.847 541.014 217.56C536.075 225.83 521.312 247.253 485.403 260.406C485.681 261.794 486.68 265.623 490.121 268.676C492.23 270.563 494.45 271.395 495.782 271.728C503.219 268.676 513.542 263.459 524.198 254.69C541.014 240.815 549.173 225.663 553.058 218.226C568.764 188.367 568.764 159.23 567.71 144.689C570.873 139.694 573.648 135.309 575.813 131.868C583.583 119.547 586.025 115.607 585.081 114.663C584.582 114.164 582.917 114.386 577.533 118.049C575.702 119.159 573.87 120.324 572.039 121.434C575.979 104.84 576.257 100.4 575.48 100.178Z" fill="#666666"/>
<path opacity="0.28" d="M577.755 128.705C564.99 136.53 561.993 143.19 561.716 147.963C561.605 149.85 561.938 150.35 562.326 154.845C562.326 154.845 561.993 163.059 562.104 173.327C562.271 187.979 556.221 201.243 548.84 217.338C544.955 225.774 539.183 236.874 530.635 249.029C536.796 242.924 543.401 235.098 549.339 225.386C568.32 194.028 568.32 162.06 567.21 146.687C570.707 140.637 574.203 134.643 577.755 128.705Z" fill="#666666"/>
<path opacity="0.11" d="M533.188 122.655C545.565 128.982 549.061 130.037 549.45 129.482C549.783 128.927 547.729 126.762 545.842 125.541C545.065 125.042 544.011 124.542 541.902 123.654C538.128 122.045 537.129 121.934 536.407 121.934C534.964 121.878 533.854 122.322 533.188 122.655Z" fill="#666666"/>
<path d="M368.131 472.527C367.687 475.302 370.24 478.577 375.235 485.181C377.899 488.678 380.341 491.342 381.951 493.062C379.453 497.558 375.069 507.215 377.233 518.759C377.899 522.477 379.065 528.638 382.395 529.415C388.167 530.802 396.769 515.096 400.155 507.659C403.984 499.278 405.649 491.675 406.482 486.291C400.71 478.521 394.882 470.751 389.11 462.981C377.622 463.98 368.853 467.643 368.131 472.527Z" fill="#161616" stroke="#161616" stroke-width="2" stroke-miterlimit="10"/>
<path d="M436.064 353.924C439.727 381.507 434.065 392.385 427.683 397.047C421.911 401.265 416.194 399.878 402.541 403.818C390.609 407.315 381.452 412.31 375.402 416.195C376.179 421.745 377.788 428.849 381.007 436.563C386.113 448.773 393.217 457.376 398.268 462.537C397.269 464.646 393.106 472.749 383.394 476.856C375.513 480.242 368.409 479.021 365.8 478.466C356.92 470.252 343.268 454.989 337.107 432.512C334.61 423.354 331.557 411.533 336.052 398.324C338.883 390.054 343.268 385.392 352.092 376.068C354.978 373.016 367.576 359.973 389.888 348.096C402.93 341.159 409.535 337.662 417.36 339.272C427.295 341.436 433.455 349.761 436.064 353.924Z" fill="#E91E63"/>
<path opacity="0.21" d="M423.076 352.259C414.085 357.698 401.598 365.634 387.168 376.013C362.193 393.995 350.76 403.596 346.653 413.586C342.657 423.299 345.487 441.058 381.562 476.301C383.505 475.912 386.557 474.969 389.61 472.86C394.549 469.474 396.825 464.923 397.657 462.87C393.606 458.707 388.777 452.824 384.448 445.054C378.288 433.954 375.846 423.576 374.791 416.527C386.113 408.591 396.048 405.316 403.263 403.818C414.03 401.542 422.744 402.431 429.404 395.549C432.789 392.052 434.121 388.056 435.342 384.393C438.783 374.126 437.507 365.024 436.452 360.306C432.012 357.698 427.516 354.978 423.076 352.259Z" fill="#666666"/>
<path opacity="0.16" d="M419.746 360.084C418.581 365.19 416.694 370.906 413.864 376.9C403.985 397.546 387.723 408.98 378.677 414.308C385.947 409.479 392.385 406.926 396.936 405.483C398.49 404.984 400.099 404.54 417.138 400.1C424.908 398.046 427.128 397.491 429.459 395.271C430.846 393.939 433.122 391.219 434.898 381.34C435.786 376.29 436.674 368.908 436.064 359.751C430.569 359.862 425.13 359.973 419.746 360.084Z" fill="#666666"/>
<path opacity="0.17" d="M374.847 414.974C373.349 422.022 371.573 435.564 376.235 451.382C379.176 461.372 383.783 468.92 387.335 473.859C389 472.916 391.331 471.306 393.606 468.753C395.549 466.533 396.77 464.369 397.547 462.704C393.495 458.541 388.611 452.658 384.338 444.833C377.9 433.067 375.68 422.078 374.847 414.974Z" fill="#666666"/>
<path d="M406.815 469.752C410.478 474.914 414.196 480.02 417.859 485.181C415.861 490.454 410.811 506.049 418.248 518.37C419.524 520.479 421.8 524.253 424.963 524.309C431.679 524.42 436.618 507.77 437.617 504.551C439.282 499.056 441.003 490.565 440.004 479.631C437.506 463.592 425.851 454.934 417.859 456.71C410.533 458.319 407.203 468.642 406.815 469.752Z" fill="#161616" stroke="#161616" stroke-width="2" stroke-miterlimit="10"/>
<path d="M475.468 352.092C480.186 381.84 470.584 392.163 467.088 395.215C463.813 398.046 460.65 399.156 442.945 405.039C436.341 407.259 426.628 410.478 414.751 414.363C415.528 419.913 417.138 427.017 420.357 434.731C425.463 446.941 432.567 455.544 437.617 460.705C436.618 462.814 432.456 470.917 422.743 475.024C414.862 478.41 407.758 477.189 405.15 476.634C396.27 468.42 382.617 453.157 376.456 430.68C373.959 421.522 370.906 409.701 375.402 396.492C378.232 388.223 382.617 383.561 391.441 374.237C394.327 371.184 406.926 358.142 429.237 346.265C442.279 339.327 448.884 335.831 456.71 337.44C466.755 339.549 472.86 347.93 475.468 352.092Z" fill="#E91E63"/>
<path opacity="0.21" d="M438.949 350.871C437.173 356.366 433.677 365.246 427.017 374.625C410.478 397.824 391.83 399.212 386.502 412.199C382.506 421.911 385.336 439.671 421.411 474.914C423.576 474.026 426.351 472.694 429.237 470.529C433.399 467.421 436.008 463.925 437.562 461.483C433.455 457.209 428.682 451.326 424.353 443.667C417.97 432.29 415.306 421.689 414.085 414.363C426.684 410.09 436.84 406.926 443.611 404.817C457.153 400.71 464.091 398.934 469.474 392.108C472.804 387.834 474.192 383.339 475.08 380.397C477.855 371.351 477.078 363.47 476.301 358.919C463.869 356.31 451.437 353.591 438.949 350.871Z" fill="#666666"/>
<path opacity="0.16" d="M459.595 358.641C458.43 363.803 456.599 369.519 453.713 375.458C442.28 398.823 421.911 410.256 412.365 414.751C422.022 411.699 430.735 408.924 438.339 406.482C438.339 406.482 442.279 405.206 451.936 401.765C464.257 397.325 466.366 396.214 468.475 394.105C472.194 390.331 473.193 386.113 474.692 379.953C475.802 375.236 477.023 367.799 475.857 358.364C470.474 358.475 465.034 358.586 459.595 358.641Z" fill="#666666"/>
<path opacity="0.17" d="M414.696 413.586C413.197 420.634 411.421 434.176 416.083 449.994C419.025 459.984 423.631 467.532 427.183 472.471C428.848 471.528 431.179 469.918 433.455 467.365C435.397 465.145 436.618 462.981 437.395 461.316C433.344 457.153 428.46 451.27 424.186 443.445C417.748 431.679 415.528 420.69 414.696 413.586Z" fill="#666666"/>
<path d="M436.175 234.599C425.408 242.591 420.302 254.856 419.136 257.742C418.415 259.463 416.361 264.902 415.417 272.394C414.307 280.941 415.196 288.101 416.084 292.818C416.472 299.423 416.25 310.356 411.644 322.788C408.369 331.724 403.929 338.384 400.432 342.879C407.536 348.318 420.912 357.143 439.949 361.25C455.211 364.58 468.198 363.581 476.357 362.249C481.13 348.762 485.792 333.389 489.621 316.295C493.229 300.2 495.615 285.215 497.114 271.673C494.727 270.507 487.734 266.844 484.182 258.741C483.96 258.242 478.854 246.198 484.515 238.983C487.901 234.71 492.674 235.209 492.674 233.877C492.674 230.325 458.819 217.838 436.175 234.599Z" fill="white" stroke="#161616" stroke-width="2" stroke-miterlimit="10"/>
<path opacity="0.13" d="M450.993 228.771C449.883 230.769 449.495 236.097 449.495 239.094C449.495 242.258 449.828 244.922 450.216 246.809C450.216 251.748 455.544 276.168 451.826 299.367C447.552 326.007 433.178 346.542 426.185 355.478C431.79 358.086 440.171 361.194 450.771 362.582C461.316 363.914 470.141 363.026 476.246 361.971C480.242 350.538 484.016 337.94 487.346 324.231C491.897 305.472 494.727 287.99 496.448 272.394C493.562 270.507 484.46 264.069 482.24 252.914C481.629 249.695 480.519 244.256 483.794 239.372C486.735 234.932 491.453 233.544 493.118 233.156C471.473 225.053 453.99 223.332 450.993 228.771Z" fill="#666666"/>
<path opacity="0.17" d="M482.35 256.632C483.072 266.345 482.905 278.333 480.241 291.708C473.304 326.84 453.546 350.316 442.89 361.194C447.33 362.36 453.269 363.47 460.317 363.47C466.644 363.525 472.027 362.693 476.19 361.749C483.904 341.214 490.731 317.294 494.56 290.321C495.448 284.105 496.17 278.055 496.669 272.117C494.227 270.674 490.897 268.287 487.678 264.624C485.181 261.738 483.46 258.908 482.35 256.632Z" fill="#666666"/>
<path opacity="0.14" d="M444.5 236.763C447.275 241.98 452.602 245.255 458.319 245.366C467.31 245.588 474.58 237.873 473.526 235.153C472.804 233.266 467.31 232.156 444.5 236.763Z" fill="#666666"/>
<path d="M429.181 164.557C427.405 164.391 425.74 173.937 421.911 188.7C415.917 211.954 412.309 217.948 416.083 225.94C416.749 227.328 419.413 232.878 425.241 235.098C431.346 237.429 440.17 235.875 444.444 230.658C454.156 218.781 434.953 194.028 430.846 168.831C430.624 167.721 430.18 164.668 429.181 164.557Z" fill="#4872C8"/>
<path d="M445.055 222.61C445.554 224.664 446.109 227.827 445.61 231.601C445.332 233.932 444.722 235.875 444.167 237.429C446.553 238.095 450.216 238.816 454.6 238.594C459.762 238.317 463.814 236.818 466.2 235.708C465.368 233.877 464.591 231.879 463.869 229.603C462.593 225.663 461.926 222 461.538 218.836C460.761 219.78 458.153 222.555 453.713 223.498C449.55 224.386 446.22 223.11 445.055 222.61Z" fill="white" stroke="#161616" stroke-width="2" stroke-miterlimit="10"/>
<path d="M429.681 170.94C424.186 185.37 424.575 204.961 435.564 218.947C437.284 221.167 438.949 222.777 440.059 223.776C447.718 224.497 453.601 223.276 457.153 222.222C459.651 221.5 462.204 220.723 464.923 218.892C470.973 214.84 473.47 208.735 474.414 205.738C476.19 207.181 477.577 207.403 478.521 207.348C483.516 207.015 488.677 197.746 485.625 191.53C483.96 188.145 480.408 186.757 478.965 186.313C477.855 181.929 473.803 168.387 461.038 160.783C457.764 158.841 447.94 153.013 439.56 157.009C434.01 159.618 431.845 165.279 429.681 170.94Z" fill="white" stroke="#161616" stroke-width="2" stroke-miterlimit="10"/>
<path d="M446.553 225.94C446.386 225.996 446.164 226.051 445.998 226.162C445.11 226.495 445.276 227.716 446.22 227.772C450.826 228.216 456.543 225.163 460.261 222.666C461.149 222.055 460.317 220.612 459.429 221.223C455.932 223.554 450.549 226.495 446.22 226.107C446.275 226.662 446.386 227.217 446.442 227.716C446.608 227.661 446.83 227.605 446.997 227.494C447.996 227.161 447.552 225.552 446.553 225.94Z" fill="#161616"/>
<path d="M446.719 226.717C450.271 226.218 453.768 225.274 457.098 223.942C458.097 223.554 457.653 221.944 456.654 222.333C453.268 223.665 449.827 224.608 446.275 225.108C445.221 225.274 445.665 226.884 446.719 226.717Z" fill="#161616"/>
<path d="M446.942 225.829C448.163 225.94 449.439 225.885 450.66 225.552C451.715 225.274 451.271 223.665 450.216 223.942C449.162 224.22 448.052 224.275 446.942 224.164C445.887 224.053 445.887 225.718 446.942 225.829Z" fill="#161616"/>
<path d="M457.209 197.413C458.263 197.413 458.263 195.748 457.209 195.748C456.154 195.748 456.154 197.413 457.209 197.413Z" fill="#161616"/>
<path d="M462.37 196.581C462.37 196.525 462.37 196.47 462.37 196.47C462.37 196.026 461.982 195.637 461.538 195.637C461.094 195.637 460.705 196.026 460.705 196.47C460.705 196.525 460.705 196.581 460.705 196.581C460.705 197.025 461.094 197.413 461.538 197.413C461.982 197.358 462.37 197.025 462.37 196.581Z" fill="#161616"/>
<path d="M459.762 200.632C460.817 200.632 460.817 198.967 459.762 198.967C458.708 198.967 458.708 200.632 459.762 200.632Z" fill="#161616"/>
<path d="M431.29 193.639C432.345 193.639 432.345 191.974 431.29 191.974C430.236 191.974 430.236 193.639 431.29 193.639Z" fill="#161616"/>
<path d="M435.231 192.418C436.286 192.418 436.286 190.753 435.231 190.753C434.177 190.753 434.121 192.418 435.231 192.418Z" fill="#161616"/>
<path d="M434.287 196.303C435.342 196.303 435.342 194.638 434.287 194.638C433.177 194.638 433.177 196.303 434.287 196.303Z" fill="#161616"/>
<path d="M426.85 181.429C425.74 179.931 423.021 175.824 423.132 170.218C423.187 166.333 424.519 163.503 425.241 162.004C427.738 156.898 431.512 154.123 434.62 151.959C437.506 149.905 442.89 146.131 450.549 145.41C460.705 144.411 468.42 149.406 473.748 152.902C484.015 159.618 488.677 168.331 489.676 170.218C491.397 173.548 492.285 176.434 493.672 180.763C495.171 185.536 495.171 186.868 497.669 197.857C500.111 208.68 500.443 209.068 500.221 211.455C499.555 219.613 494.283 225.108 493.45 225.996C486.013 233.544 476.356 233.155 473.082 233.044C468.642 232.878 466.755 231.657 466.033 231.157C461.649 227.994 461.371 222.055 461.371 220.834C463.092 219.835 465.367 218.281 467.476 215.895C471.583 211.288 472.86 206.238 473.304 203.74C477.577 205.017 481.851 203.352 483.627 200.244C486.125 195.693 482.628 189.088 478.687 188.533C478.077 188.422 476.412 188.367 474.247 190.198C472.471 186.091 469.308 180.153 463.702 174.27C456.82 166.999 449.439 163.281 444.999 161.394C442.501 162.448 438.783 164.446 435.175 167.943C429.847 172.938 427.738 178.543 426.85 181.429Z" fill="#4872C8"/>
<path opacity="0.14" d="M459.595 169.941C461.871 173.604 465.423 180.597 465.256 189.699C464.923 211.122 444.333 223.11 443.056 223.776C444.388 223.998 457.375 226.051 466.422 216.838C471.195 211.954 472.638 206.293 473.082 203.685C474.025 204.018 476.134 204.517 478.576 203.796C479.187 203.629 482.739 202.575 483.904 199.245C484.459 197.746 484.293 196.359 484.182 195.582C484.126 194.638 483.904 192.418 482.239 190.476C481.629 189.81 480.685 188.7 479.131 188.367C476.634 187.867 474.691 189.699 474.414 189.921C473.137 186.868 471.195 183.094 468.309 179.098C465.201 175.158 462.148 172.105 459.595 169.941Z" fill="#666666"/>
<path opacity="0.18" d="M457.875 237.873C456.21 233.155 454.545 228.382 452.935 223.665C455.655 222.777 458.43 221.833 461.149 220.945C462.648 225.829 464.091 230.769 465.589 235.653C463.036 236.43 460.483 237.151 457.875 237.873Z" fill="#666666"/>
<path opacity="0.21" d="M473.692 201.243C472.305 204.351 469.863 208.902 465.478 213.231C458.263 220.39 450.049 222.721 446.331 223.554C447.94 223.665 457.653 224.331 464.868 218.337C468.808 215.062 470.862 210.9 470.862 210.9C471.916 208.735 472.527 206.515 472.804 205.572C473.248 203.851 473.526 202.353 473.692 201.243Z" fill="#666666"/>
<path opacity="0.18" d="M461.538 237.207C459.928 232.323 458.375 227.383 456.765 222.499C458.153 222.055 459.54 221.556 460.928 221.112C462.426 225.996 463.98 230.88 465.479 235.764C464.202 236.208 462.87 236.707 461.538 237.207Z" fill="#666666"/>
<path d="M445.054 181.596C443.556 187.534 442.335 193.528 441.336 199.578C441.169 200.577 440.836 201.742 441.891 202.297C443.112 202.963 446.053 202.02 447.33 201.742C448.384 201.52 447.94 199.911 446.886 200.133C445.998 200.355 444.388 200.854 443.556 200.743C442.446 200.577 442.723 200.799 443.056 199.522C443.5 197.635 443.722 195.582 444.111 193.695C444.888 189.81 445.72 185.925 446.664 182.095C446.941 181.041 445.332 180.597 445.054 181.596Z" fill="#161616"/>
<path d="M431.124 187.257C433.288 184.759 437.062 184.704 439.282 187.09C439.837 187.701 440.725 186.813 440.17 186.202C437.506 183.316 432.844 183.372 430.236 186.369C429.736 186.979 430.624 187.867 431.124 187.257Z" fill="#161616"/>
<path d="M453.935 187.867C456.876 185.98 460.816 186.813 462.703 189.81C463.147 190.476 464.202 189.865 463.758 189.199C461.538 185.647 456.821 184.537 453.269 186.813C452.603 187.201 453.269 188.311 453.935 187.867Z" fill="#161616"/>
<path d="M434.565 177.655C436.563 176.601 438.783 176.656 440.725 177.766C441.447 178.155 442.057 177.1 441.336 176.712C439.005 175.38 436.285 175.324 433.899 176.601C433.233 176.934 433.843 178.044 434.565 177.655Z" fill="#161616"/>
<path d="M454.6 177.988C457.32 177.544 459.928 178.266 462.093 179.875C462.759 180.375 463.369 179.265 462.703 178.821C460.206 176.989 457.264 176.323 454.267 176.767C453.49 176.934 453.823 178.099 454.6 177.988Z" fill="#161616"/>
<path d="M436.896 208.791C443.001 210.678 449.439 209.29 454.267 205.128C454.878 204.628 453.99 203.74 453.379 204.24C448.884 208.125 442.89 209.346 437.229 207.57C436.452 207.292 436.119 208.513 436.896 208.791Z" fill="#161616"/>
</g>
<defs>
<clipPath id="clip0">
<rect width="888" height="666" fill="white"/>
</clipPath>
</defs>
</svg>
