<svg width="1600" height="1200" viewBox="0 0 1600 1200" fill="none" xmlns="http://www.w3.org/2000/svg">
<path d="M303.7 885.1C309.5 885.6 315.3 886.2 321.1 886.7C323 886.9 323 883.9 321.1 883.7C315.3 883.2 309.5 882.6 303.7 882.1C301.8 881.9 301.8 884.9 303.7 885.1Z" fill="#161616"/>
<path d="M226.2 889.9C240.6 889.9 255 889.9 269.4 889.9C273.3 889.9 273.3 883.9 269.4 883.9C255 883.9 240.6 883.9 226.2 883.9C222.4 883.9 222.4 889.9 226.2 889.9Z" fill="#161616"/>
<path d="M301.3 887.6C336.2 887.6 371 887.6 405.9 887.6C409.8 887.6 409.8 881.6 405.9 881.6C371 881.6 336.2 881.6 301.3 881.6C297.4 881.6 297.4 887.6 301.3 887.6Z" fill="#161616"/>
<path d="M398.1 888.6C415.7 886.7 430 899.5 439.8 912.7C449.1 925.1 456.8 939.1 469 949C481.7 959.3 497.8 962.4 513.7 963.7C533.4 965.3 553.2 965.8 573 965.8C595.8 965.8 618.5 964.8 641.2 963C645 962.7 645.1 956.7 641.2 957C601.1 960.2 560.7 960.7 520.5 958.2C502.9 957.1 484.5 955 470.8 942.8C458.8 932.2 451.5 917.6 441.5 905.4C430.9 892.4 415.6 880.7 397.9 882.7C394.4 883 394.3 889 398.1 888.6Z" fill="#161616"/>
<path d="M678.7 957.1C697.2 957 712.2 969.6 722.2 984.2C732.7 999.5 740.2 1017 748.5 1033.5C755.7 1047.8 762.3 1063.2 778.6 1068.7C786.1 1071.3 794.3 1071.6 802.2 1071.7C812.2 1071.9 822.2 1071.7 832.2 1071.3C836 1071.2 836.1 1065.2 832.2 1065.3C822.2 1065.7 812.2 1065.8 802.2 1065.7C793.6 1065.6 784.4 1065.3 776.5 1061.4C768.6 1057.5 764 1050.2 760 1042.6C755.4 1033.9 751.1 1025.1 746.7 1016.3C732.7 988.5 715.5 950.9 678.9 951C674.8 951.1 674.8 957.1 678.7 957.1Z" fill="#161616"/>
<path d="M864 1069.5C899.2 1069.5 934.5 1069.5 969.7 1069.5C973.6 1069.5 973.6 1063.5 969.7 1063.5C934.5 1063.5 899.2 1063.5 864 1063.5C860.2 1063.5 860.2 1069.5 864 1069.5Z" fill="#161616"/>
<path d="M1002.7 1067.2C1025.4 1067.2 1048.2 1067.2 1070.9 1067.2C1074.8 1067.2 1074.8 1061.2 1070.9 1061.2C1048.2 1061.2 1025.4 1061.2 1002.7 1061.2C998.9 1061.2 998.9 1067.2 1002.7 1067.2Z" fill="#161616"/>
<path d="M1048.7 1091.2C1117 1091.2 1185.4 1091.2 1253.7 1091.2C1257.6 1091.2 1257.6 1085.2 1253.7 1085.2C1185.4 1085.2 1117 1085.2 1048.7 1085.2C1044.9 1085.2 1044.9 1091.2 1048.7 1091.2Z" fill="#161616"/>
<path d="M1320.5 1053.3C1309.2 1025.9 1308.5 995.2 1318.6 967.3C1319.3 965.5 1316.4 964.7 1315.7 966.5C1305.4 994.8 1306.1 1026.2 1317.6 1054.1C1318.3 1055.9 1321.2 1055.1 1320.5 1053.3Z" fill="#E8E8E8"/>
<path d="M1315.3 965.7C1315.6 971.3 1318.1 976.4 1322.3 980.1C1323.8 981.4 1325.9 979.2 1324.4 978C1320.7 974.8 1318.5 970.6 1318.3 965.7C1318.2 963.8 1315.2 963.8 1315.3 965.7Z" fill="#E8E8E8"/>
<path d="M1326.1 977.7C1317.9 941.2 1342.7 907.3 1360 877.5C1359.1 877.4 1358.2 877.3 1357.3 877.1C1368.2 907.2 1378.2 938.6 1372.3 970.9C1367 1000.5 1351.7 1027.1 1336.8 1052.8C1335.8 1054.5 1338.4 1056 1339.4 1054.3C1354.7 1027.9 1370.5 1000.5 1375.5 970C1380.8 937.7 1371.1 906.4 1360.2 876.3C1359.8 875.1 1358.1 874.8 1357.5 875.9C1339.7 906.5 1314.8 941 1323.3 978.4C1323.7 980.4 1326.6 979.6 1326.1 977.7Z" fill="#E8E8E8"/>
<path d="M1375.3 926.5C1378.8 918.1 1382.6 909.9 1386.9 901.9C1388.9 898.1 1391 894.4 1393.3 890.7C1394.2 889.2 1394.7 887.3 1396.7 887.2C1398 887.1 1401.2 889.5 1402.4 890.1C1404.1 891 1405.6 888.4 1403.9 887.5C1401.5 886.3 1397.4 882.9 1394.6 884.1C1391.3 885.5 1389.2 891.8 1387.5 894.7C1381.8 904.7 1376.9 915 1372.4 925.6C1371.7 927.5 1374.6 928.2 1375.3 926.5Z" fill="#E8E8E8"/>
<path d="M1403.5 889.6C1405.8 886.6 1406.9 883.1 1405.7 879.4C1405.4 878.5 1404.6 877.6 1404.4 876.6C1403.6 873.4 1405.5 872 1407.2 869.7C1409.4 866.9 1411.6 864.1 1413.8 861.3C1422.7 849.8 1431.7 838.3 1440.6 826.8C1439.7 826.4 1438.9 826.1 1438 825.7C1440.5 848.2 1450.1 869.2 1452.7 891.7C1454.1 903.6 1452.7 915.2 1449.4 926.6C1447.8 932.2 1446 937.7 1443.9 943.1C1441.9 948.3 1438.8 954.5 1432.7 955.3C1431.6 955.4 1430.7 956.5 1431.4 957.6C1433.4 960.7 1435.5 963.7 1435.7 967.5C1435.9 971 1434.8 974.5 1433.4 977.7C1431.1 982.9 1427.9 987.8 1424.7 992.5C1417.9 1002.4 1409.8 1011.2 1400.7 1018.9C1384.6 1032.5 1366.1 1043.3 1353.4 1060.4C1352.2 1062 1354.9 1063.4 1356 1061.9C1370.6 1042.3 1393 1031.1 1410.3 1014.2C1419.1 1005.6 1426.8 995.8 1432.9 985.1C1435.4 980.7 1437.9 975.9 1438.6 970.8C1439.4 965 1437.2 960.8 1434.1 956.1C1433.7 956.9 1433.2 957.6 1432.8 958.4C1441.7 957.3 1445.3 948.5 1448 941C1452.4 928.5 1456.3 915.7 1456.4 902.3C1456.6 875.9 1443.9 851.7 1441.1 825.7C1441 824.6 1439.4 823.5 1438.5 824.6C1429.8 835.8 1421 847.1 1412.3 858.3C1410.3 860.9 1408.3 863.4 1406.3 866C1404.7 868.1 1402.1 870.4 1401.2 873C1400.7 874.3 1400.7 875.3 1401.1 876.6C1402.3 880.7 1404.8 883.1 1401.4 887.5C1400.2 889 1402.4 891.1 1403.5 889.6Z" fill="#E8E8E8"/>
<path d="M1432.5 867.3C1419.9 932.1 1379.6 986.2 1353.1 1045.4C1352.3 1047.1 1354.9 1048.7 1355.7 1046.9C1382.3 987.4 1422.7 933.1 1435.4 868C1435.8 866.2 1432.9 865.4 1432.5 867.3Z" fill="#E8E8E8"/>
<path d="M1351.3 914C1349.2 959.5 1336.4 1003.3 1323.7 1046.7C1323.2 1048.6 1326.1 1049.3 1326.6 1047.5C1339.4 1003.8 1352.1 959.7 1354.3 914C1354.4 912.1 1351.4 912.1 1351.3 914Z" fill="#E8E8E8"/>
<path d="M1330.7 928.6C1338 943.9 1341.8 960.4 1341.8 977.4C1341.8 979.3 1344.8 979.3 1344.8 977.4C1344.7 959.9 1340.8 942.9 1333.3 927.1C1332.5 925.4 1329.9 926.9 1330.7 928.6Z" fill="#E8E8E8"/>
<path d="M1368.4 913.8C1363.7 922 1359 930.3 1354.2 938.5C1350.3 945.3 1346.4 951.8 1345.6 959.7C1345.4 961.6 1348.4 961.6 1348.6 959.7C1349.5 951.2 1354.6 943.8 1358.7 936.6C1362.8 929.5 1366.8 922.4 1370.9 915.3C1372 913.6 1369.4 912.1 1368.4 913.8Z" fill="#E8E8E8"/>
<path d="M1412.9 861C1414.7 884.6 1416.4 908.5 1412 931.9C1411.6 933.8 1414.5 934.6 1414.9 932.7C1419.4 909 1417.8 884.9 1415.9 861C1415.7 859.1 1412.7 859.1 1412.9 861Z" fill="#E8E8E8"/>
<path d="M1389.3 978.4C1410.4 953.7 1441.9 937.8 1456 907.3C1456.8 905.6 1454.2 904 1453.4 905.8C1439.4 936 1408.1 951.7 1387.1 976.3C1385.9 977.7 1388 979.9 1389.3 978.4Z" fill="#E8E8E8"/>
<path d="M526.8 884.7C578.4 881.2 630 877.7 681.6 874.3C707.4 872.6 733.2 870.8 759 869.1C784.4 867.4 810.2 864.4 835.7 865.4C884 867.3 927.2 890.6 970.1 910.5C1012.9 930.3 1057.5 946.2 1103.3 957.6C1155.1 970.6 1208.3 977.9 1261.7 979.6C1263.6 979.7 1263.6 976.7 1261.7 976.6C1164.7 973.5 1068.3 951.5 979.8 911.6C938.6 893 898 869.9 852.5 863.8C827.7 860.5 802.7 863.1 777.9 864.7C752.1 866.4 726.3 868.2 700.5 869.9C642.6 873.8 584.7 877.7 526.8 881.6C524.9 881.8 524.9 884.8 526.8 884.7Z" fill="#E8E8E8"/>
<path d="M1025.7 901.2C1107.7 904.4 1187.3 881.7 1268.2 872.9C1291 870.4 1314 869.1 1337 869.7C1338.9 869.8 1338.9 866.8 1337 866.7C1255 864.5 1175.5 887.4 1094.5 895.7C1071.7 898 1048.7 899.1 1025.8 898.2C1023.8 898.1 1023.8 901.1 1025.7 901.2Z" fill="#E8E8E8"/>
<path d="M999.3 953.3C1045.7 967.9 1093.8 976.8 1142.3 979.8C1144.2 979.9 1144.2 976.9 1142.3 976.8C1094 973.8 1046.2 965 1000.1 950.4C998.2 949.8 997.4 952.7 999.3 953.3Z" fill="#E8E8E8"/>
<path d="M551 694.6C596.4 694 640.7 683 685.7 679.2C732.2 675.2 777.4 683.4 822.9 692.3C913.2 709.8 1002.7 730.8 1091.4 755.1C1116.2 761.9 1140.9 769.4 1165.8 776.1C1189.7 782.5 1213.9 787.6 1238.7 788C1240.6 788 1240.6 785 1238.7 785C1193 784.3 1148.9 768 1105.4 755.9C1060.8 743.5 1016 731.9 970.9 721.2C926.2 710.6 881.2 700.8 836.1 691.9C792.2 683.2 747.7 673.5 702.8 675.2C651.8 677.1 602 691 551 691.7C549.1 691.7 549.1 694.7 551 694.6Z" fill="#E8E8E8"/>
<path d="M1039.3 713.5C1119.8 745.3 1208.1 742.7 1292.6 732.8C1316.7 730 1340.8 726.6 1364.8 723.1C1366.7 722.8 1365.9 719.9 1364 720.2C1279.9 732.4 1193.1 744.8 1108.5 729.8C1085.1 725.7 1062.2 719.4 1040.1 710.6C1038.3 709.9 1037.5 712.8 1039.3 713.5Z" fill="#E8E8E8"/>
<path d="M1222.8 357.7C1197.2 348.8 1186.5 316.9 1192.6 292.3C1198.6 268.1 1220.8 249.9 1245.5 247.5C1269.7 245.2 1294.2 258.8 1305.7 280.1C1317.3 301.8 1314.5 331.1 1297 348.8C1274.3 371.8 1238.7 370.5 1212.4 354.9C1210.7 353.9 1209.2 356.5 1210.9 357.5C1236.1 372.5 1268.9 374.8 1293 356.3C1314.1 340.2 1320.8 310.8 1311.7 286.2C1302.7 261.8 1278.1 244.7 1252.1 244.2C1226.1 243.7 1200.8 260.5 1191.7 284.9C1181.5 312.3 1192.5 350.3 1222 360.5C1223.9 361.3 1224.6 358.4 1222.8 357.7Z" fill="#E8E8E8"/>
<path d="M661.4 370.7C763 359.3 851.3 422.6 942.7 455.4C967.8 464.4 993.5 471.2 1020 474.2C1021.9 474.4 1021.9 471.4 1020 471.2C920.5 460.2 838.4 394.7 741.8 373.1C715.4 367.2 688.2 364.7 661.3 367.8C659.5 367.9 659.5 370.9 661.4 370.7Z" fill="#E8E8E8"/>
<path d="M981.5 435.5C1041.9 448.1 1104.2 450.5 1165.4 442.5C1167.3 442.3 1167.3 439.2 1165.4 439.5C1104.5 447.5 1042.5 445.2 982.3 432.6C980.4 432.2 979.6 435.1 981.5 435.5Z" fill="#E8E8E8"/>
<path d="M332.8 550.1C453.3 583.6 575.6 617.4 701.2 622.4C736.5 623.8 771.8 622.8 806.9 619C808.8 618.8 808.8 615.8 806.9 616C682.1 629.6 557.3 606.1 436.7 575.1C402.2 566.2 367.9 556.7 333.5 547.2C331.8 546.7 331 549.6 332.8 550.1Z" fill="#E8E8E8"/>
<path d="M263.3 415.3C267.2 415.3 267.2 409.3 263.3 409.3C259.4 409.3 259.4 415.3 263.3 415.3Z" fill="#161616"/>
<path d="M275.7 479.1C270.6 476.5 267.1 471 268.5 465.1C270.1 458.8 276.6 454.7 282.9 456.6C289.8 458.7 292.7 466.7 289.3 472.9C286 479.1 278.9 481.1 272.6 478.3C270.8 477.5 269.3 480.1 271.1 480.9C278.7 484.2 287.1 482.3 291.6 475C295.9 467.8 293.5 458.1 285.8 454.5C278.4 451 269.7 454.5 266.5 462C263.2 469.6 267.1 478 274.3 481.7C275.9 482.6 277.4 480 275.7 479.1Z" fill="#161616"/>
<path d="M271.9 464.2C274.2 465.7 276.6 467.2 278.9 468.7C280.5 469.8 282 467.2 280.4 466.1C278.1 464.6 275.7 463.1 273.4 461.6C271.8 460.6 270.3 463.2 271.9 464.2Z" fill="#161616"/>
<path d="M285.3 465.7C286.5 464.5 287.6 463.4 288.8 462.2C290.2 460.8 288 458.7 286.7 460.1C285.5 461.3 284.4 462.4 283.2 463.6C281.8 465 284 467.1 285.3 465.7Z" fill="#161616"/>
<path d="M267.5 474C266.4 475 265.3 476 264.2 477.1C262.8 478.4 264.9 480.5 266.3 479.2C267.4 478.2 268.5 477.2 269.6 476.1C271.1 474.8 268.9 472.6 267.5 474Z" fill="#161616"/>
<path d="M272.4 478.9C271.6 480.3 270.9 481.6 270.1 483C269.2 484.7 271.8 486.2 272.7 484.5C273.5 483.1 274.2 481.8 275 480.4C276 478.7 273.4 477.2 272.4 478.9Z" fill="#161616"/>
<path d="M258.1 467.7C259.6 468.5 261.1 468.7 262.7 468.4C263.5 468.3 263.9 467.3 263.7 466.6C263.5 465.7 262.7 465.4 261.9 465.6C261.1 465.7 260.3 465.6 259.6 465.2C258.9 464.8 258 465 257.5 465.7C257.1 466.3 257.3 467.4 258.1 467.7Z" fill="#161616"/>
<path d="M267.6 449.5C268.6 450.7 269.5 451.8 270.5 453C271 453.6 272.1 453.5 272.6 453C273.2 452.4 273.1 451.5 272.6 450.9C271.6 449.7 270.7 448.6 269.7 447.4C269.2 446.8 268.1 446.9 267.6 447.4C267 448 267.1 448.9 267.6 449.5Z" fill="#161616"/>
<path d="M282.1 454.5C282.9 453.2 283.6 451.8 284.4 450.5C285.4 448.8 282.8 447.3 281.8 449C281 450.3 280.3 451.7 279.5 453C278.6 454.6 281.1 456.1 282.1 454.5Z" fill="#161616"/>
<path d="M292.6 459C294.1 457.8 295.7 456.7 297.2 455.5C297.8 455 298.2 454.2 297.7 453.4C297.3 452.8 296.3 452.4 295.6 452.9C294.1 454.1 292.5 455.2 291 456.4C290.4 456.9 290 457.7 290.5 458.5C290.9 459.1 291.9 459.5 292.6 459Z" fill="#161616"/>
<path d="M293.9 470.6C295.4 471.4 297 472.2 298.5 473C300.2 473.9 301.7 471.3 300 470.4C298.5 469.6 296.9 468.8 295.4 468C293.7 467.1 292.2 469.7 293.9 470.6Z" fill="#161616"/>
<path d="M291.3 481.9C292.2 483.1 293.2 484.2 294.1 485.4C294.6 486 295.7 485.9 296.2 485.4C296.8 484.8 296.7 483.9 296.2 483.3C295.3 482.1 294.3 481 293.4 479.8C292.9 479.2 291.8 479.3 291.3 479.8C290.7 480.4 290.8 481.3 291.3 481.9Z" fill="#161616"/>
<path d="M321.7 647.6C311.7 641.2 324.4 625.3 333.4 633.8C336.7 636.9 336.3 642.1 333.5 645.4C329.9 649.8 323.6 649.4 319.1 646.6C317.5 645.6 316 648.1 317.6 649.2C323.4 652.9 331.5 652.8 336 647.1C339.9 642.2 339.6 634.7 334.4 630.8C321.9 621.3 307.2 641.8 320.2 650.2C321.9 651.3 323.4 648.7 321.7 647.6Z" fill="#161616"/>
<path d="M319.7 636.7C321.8 637.8 323.9 639 325.9 640.1C327.6 641 329.1 638.4 327.4 637.5C325.3 636.4 323.2 635.2 321.2 634.1C319.5 633.2 318 635.8 319.7 636.7Z" fill="#161616"/>
<path d="M332.8 638.5C333.5 636.8 334.9 635.5 336.5 634.7C338.2 633.8 336.7 631.2 335 632.1C332.6 633.3 330.9 635.3 329.9 637.7C329.6 638.4 330.2 639.3 330.9 639.5C331.8 639.8 332.4 639.3 332.8 638.5Z" fill="#161616"/>
<path d="M316.8 649.3C316.8 649 316.7 649.5 316.7 649.6C316.8 649.4 316.6 649.7 316.6 649.8C316.7 649.6 316.5 649.9 316.5 649.9C316.4 650 316.4 650 316.5 649.9C316.4 650 316.3 650 316.2 650C315.5 650.4 315.3 651.4 315.7 652.1C316.1 652.8 317 653 317.8 652.6C319.1 651.9 319.8 650.6 319.9 649.2C320 648.4 319.2 647.7 318.4 647.7C317.5 647.8 316.9 648.4 316.8 649.3Z" fill="#161616"/>
<path d="M324.5 650C324.5 651.2 324.5 652.3 324.5 653.5C324.5 655.4 327.5 655.4 327.5 653.5C327.5 652.3 327.5 651.2 327.5 650C327.5 648.1 324.5 648 324.5 650Z" fill="#161616"/>
<path d="M316.3 642.2C315.4 642.2 314.5 642.2 313.5 642.2C311.6 642.2 311.6 645.2 313.5 645.2C314.4 645.2 315.3 645.2 316.3 645.2C318.2 645.2 318.2 642.2 316.3 642.2Z" fill="#161616"/>
<path d="M322.5 630.2C322.3 629 322 627.9 321.8 626.7C321.6 625.9 320.7 625.4 320 625.7C319.2 625.9 318.8 626.7 319 627.5C319.2 628.7 319.5 629.8 319.7 631C319.9 631.8 320.8 632.3 321.5 632C322.2 631.8 322.6 631 322.5 630.2Z" fill="#161616"/>
<path d="M332.7 631.3C333.4 630.1 334.1 629 334.8 627.8C335.8 626.1 333.2 624.6 332.2 626.3C331.5 627.5 330.8 628.6 330.1 629.8C329.1 631.4 331.7 632.9 332.7 631.3Z" fill="#161616"/>
<path d="M337 639C337.9 639 338.8 639 339.8 639C341.7 639 341.7 636 339.8 636C338.9 636 338 636 337 636C335.1 636 335.1 639 337 639Z" fill="#161616"/>
<path d="M170.2 603C155.3 593.7 167.2 567.8 184 574.3C192.2 577.4 194.2 587.7 191.6 595.3C188 605.8 176 605.3 167.3 602.5C165.5 601.9 164.7 604.8 166.5 605.4C176.3 608.6 189.2 608.6 193.9 597.6C197.9 588.4 195.2 575.4 185.2 571.5C165 563.7 150.7 594.4 168.7 605.6C170.3 606.7 171.8 604.1 170.2 603Z" fill="#161616"/>
<path d="M168.4 579.6C172 582.7 175.6 585.8 179.3 588.9C180.8 590.1 182.9 588 181.4 586.8C177.8 583.7 174.2 580.6 170.5 577.5C169.1 576.3 166.9 578.4 168.4 579.6Z" fill="#161616"/>
<path d="M186.4 587.3C188.5 585 190.6 582.7 192.6 580.4C193.9 579 191.8 576.8 190.5 578.3C188.4 580.6 186.3 582.9 184.3 585.2C183 586.6 185.1 588.8 186.4 587.3Z" fill="#161616"/>
<path d="M159.3 588.9C157.2 589.5 155.3 590.6 153.8 592.1C152.5 593.5 154.6 595.6 155.9 594.2C157.1 593 158.4 592.2 160 591.7C162 591.3 161.2 588.4 159.3 588.9Z" fill="#161616"/>
<path d="M164.2 601.1C163 602.2 161.9 603.4 160.7 604.5C159.3 605.8 161.4 608 162.8 606.6C164 605.5 165.1 604.3 166.3 603.2C167.7 601.9 165.5 599.7 164.2 601.1Z" fill="#161616"/>
<path d="M174.8 606.1C175.1 607.9 175.4 609.8 175.6 611.6C175.7 612.4 176.7 612.8 177.4 612.6C178.3 612.4 178.6 611.6 178.4 610.8C178.1 609 177.8 607.1 177.6 605.3C177.5 604.5 176.5 604.1 175.8 604.3C175 604.5 174.6 605.3 174.8 606.1Z" fill="#161616"/>
<path d="M162.6 580.1C161.2 579.4 159.8 578.7 158.5 578C156.8 577.1 155.3 579.7 157 580.6C158.4 581.3 159.8 582 161.1 582.7C162.8 583.6 164.3 581 162.6 580.1Z" fill="#161616"/>
<path d="M174.4 573.4C173.8 571.7 173.6 570 173.7 568.3C173.8 566.4 170.8 566.4 170.7 568.3C170.5 570.3 170.8 572.3 171.5 574.2C172.1 576 175 575.2 174.4 573.4Z" fill="#161616"/>
<path d="M185.3 572.5C186.2 570.9 187.1 569.3 188.1 567.6C189.1 565.9 186.5 564.4 185.5 566.1C184.6 567.7 183.7 569.3 182.7 571C181.7 572.6 184.3 574.1 185.3 572.5Z" fill="#161616"/>
<path d="M191.6 582.2C193.6 582.3 195.6 581.8 197.2 580.6C197.9 580.1 198.2 579.3 197.7 578.5C197.3 577.9 196.3 577.5 195.6 578C194.4 578.9 193.1 579.3 191.5 579.2C189.7 579.1 189.7 582.1 191.6 582.2Z" fill="#161616"/>
<path d="M194.7 592.9C195.9 593.8 197 594.7 198.2 595.7C198.8 596.2 199.7 596.3 200.3 595.7C200.8 595.2 200.9 594.1 200.3 593.6C199.1 592.7 198 591.8 196.8 590.8C196.2 590.3 195.3 590.2 194.7 590.8C194.2 591.3 194.1 592.4 194.7 592.9Z" fill="#161616"/>
<path d="M189.5 604.4C190.4 606.5 192.2 608.2 194.2 609.1C194.9 609.4 195.8 609.3 196.3 608.6C196.7 608 196.5 606.9 195.8 606.5C194.1 605.8 192.9 604.6 192.1 602.9C191.8 602.2 190.7 602 190 602.4C189.3 602.7 189.2 603.6 189.5 604.4Z" fill="#161616"/>
<path d="M207 311C192.7 303 208.3 278.9 222.1 289C227.4 292.9 228.6 300.2 225.4 305.8C221.7 312.3 213.3 313.6 207.1 310C205.4 309 203.9 311.6 205.6 312.6C213 316.9 223 315.4 227.7 307.9C232.2 300.7 230.5 290.7 223.3 286C206.1 274.8 188 303.8 205.5 313.5C207.2 314.6 208.7 312 207 311Z" fill="#161616"/>
<path d="M206.3 294.8C209.8 296.5 213.2 298.3 216.7 300C218.4 300.9 219.9 298.3 218.2 297.4C214.7 295.7 211.3 293.9 207.8 292.2C206.1 291.4 204.6 294 206.3 294.8Z" fill="#161616"/>
<path d="M221.9 297.9C223.8 296.3 225.7 294.7 227.6 293.1C229.1 291.8 226.9 289.7 225.5 291C223.6 292.6 221.7 294.2 219.8 295.8C218.3 297 220.4 299.1 221.9 297.9Z" fill="#161616"/>
<path d="M197.3 306.1C195.4 307.5 193.5 308.8 191.6 310.2C190 311.3 191.5 313.9 193.1 312.8C195 311.4 196.9 310.1 198.8 308.7C200.4 307.5 198.9 304.9 197.3 306.1Z" fill="#161616"/>
<path d="M206.5 310.7C205.4 312.6 204.4 314.5 203.3 316.4C202.3 318.1 204.9 319.6 205.9 317.9C207 316 208 314.1 209.1 312.2C210 310.5 207.4 309 206.5 310.7Z" fill="#161616"/>
<path d="M197.3 297.1C195.2 297 193.2 296.7 191.2 296.2C189.3 295.7 188.5 298.6 190.4 299.1C192.6 299.7 194.9 300.1 197.3 300.1C199.2 300.1 199.2 297.1 197.3 297.1Z" fill="#161616"/>
<path d="M204.5 287.5C203.7 285.5 202.2 284 200.1 283.3C198.3 282.7 197.5 285.6 199.3 286.2C200.3 286.5 201.2 287.3 201.6 288.3C201.9 289.1 202.6 289.6 203.4 289.3C204.2 289.2 204.8 288.3 204.5 287.5Z" fill="#161616"/>
<path d="M215.7 285.9C216.2 284 216.7 282.1 217.2 280.2C217.7 278.3 214.8 277.5 214.3 279.4C213.8 281.3 213.3 283.2 212.8 285.1C212.3 287 215.2 287.8 215.7 285.9Z" fill="#161616"/>
<path d="M214.7 314.7C215.8 316.3 216.9 318 217.9 319.6C219 321.2 221.6 319.7 220.5 318.1C219.4 316.5 218.3 314.8 217.3 313.2C216.3 311.5 213.7 313 214.7 314.7Z" fill="#161616"/>
<path d="M224.2 309.4C225.6 310.2 226.9 311 228.3 311.8C230 312.8 231.5 310.2 229.8 309.2C228.4 308.4 227.1 307.6 225.7 306.8C224.1 305.8 222.6 308.4 224.2 309.4Z" fill="#161616"/>
<path d="M230.2 300.1C231.6 299.8 232.9 299.5 234.3 299.2C236.2 298.8 235.4 295.9 233.5 296.3C232.1 296.6 230.8 296.9 229.4 297.2C227.5 297.6 228.3 300.5 230.2 300.1Z" fill="#161616"/>
<path d="M228 288.8C228.1 287.7 228.5 286.7 229.3 285.8C230.6 284.4 228.5 282.2 227.2 283.7C225.9 285.1 225.2 286.9 225.1 288.8C225 289.6 225.8 290.3 226.6 290.3C227.3 290.3 227.9 289.6 228 288.8Z" fill="#161616"/>
<path d="M116.4 422C113.9 417.7 114.8 411.7 119.5 409.4C123.7 407.3 129.4 408.7 131.4 413.2C133 417 131.9 422.1 128.1 424.1C124.1 426.3 119 424.6 116.7 420.9C115.7 419.2 113.1 420.8 114.1 422.4C117.1 427.4 123.9 429.6 129.2 426.9C134.6 424.1 136.5 416.8 133.9 411.5C131.1 405.9 123.9 404 118.4 406.7C112.1 409.7 110.4 417.8 113.8 423.6C114.8 425.2 117.4 423.7 116.4 422Z" fill="#161616"/>
<path d="M114.4 413.8C116.9 415.3 119.5 416.8 122 418.4C123.7 419.4 125.2 416.8 123.5 415.8C121 414.3 118.4 412.8 115.9 411.2C114.3 410.2 112.8 412.8 114.4 413.8Z" fill="#161616"/>
<path d="M126.7 415.1C128 413.9 129.2 412.6 130.5 411.4C131.9 410 129.8 407.9 128.4 409.3C127.1 410.5 125.9 411.8 124.6 413C123.2 414.3 125.3 416.4 126.7 415.1Z" fill="#161616"/>
<path d="M116.8 426C116.5 427.2 116.1 428.5 115.8 429.7C115.3 431.6 118.2 432.4 118.7 430.5C119 429.3 119.4 428 119.7 426.8C120.2 424.9 117.3 424.1 116.8 426Z" fill="#161616"/>
<path d="M114.3 421.5C113 422.6 111.4 423.1 109.8 423C107.9 422.9 107.9 425.9 109.8 426C112.3 426.1 114.6 425.3 116.5 423.6C117.8 422.3 115.7 420.2 114.3 421.5Z" fill="#161616"/>
<path d="M111.1 414.5C110.2 414.2 109.2 413.9 108.3 413.6C107.5 413.3 106.7 413.9 106.5 414.6C106.3 415.4 106.8 416.2 107.5 416.4C108.4 416.7 109.4 417 110.3 417.3C111.1 417.6 111.9 417 112.1 416.3C112.3 415.6 111.8 414.8 111.1 414.5Z" fill="#161616"/>
<path d="M121.6 408.5C121.6 406.9 121.6 405.4 121.6 403.8C121.6 401.9 118.6 401.9 118.6 403.8C118.6 405.4 118.6 406.9 118.6 408.5C118.6 410.4 121.6 410.4 121.6 408.5Z" fill="#161616"/>
<path d="M129 408.9C129.3 408.1 129.9 407.4 130.8 407.1C131.6 406.9 132.1 406.1 131.8 405.3C131.6 404.5 130.7 404 130 404.3C128.1 404.9 126.7 406.3 126.1 408.2C125.9 409 126.4 409.8 127.1 410C128 410.1 128.8 409.7 129 408.9Z" fill="#161616"/>
<path d="M132.7 418.4C133.8 418.1 135 418.6 135.7 419.6C136.8 421.2 139.4 419.7 138.3 418.1C136.9 416 134.4 415 131.9 415.6C130 416 130.8 418.9 132.7 418.4Z" fill="#161616"/>
<path d="M129.9 424.1C129.1 426.4 130.5 428.9 132.8 429.6C133.6 429.9 134.4 429.3 134.6 428.6C134.8 427.8 134.3 427 133.6 426.8C132.8 426.5 132.6 425.6 132.8 425C133.5 423 130.6 422.2 129.9 424.1Z" fill="#161616"/>
<path d="M353.8 336.4C352.6 331.3 354.2 325.8 359.2 323.5C364.4 321.1 370.1 324.2 371.2 329.8C373.2 340.2 356.1 346 353.5 335C353.1 333.1 350.2 333.9 350.6 335.8C354.1 350.7 377.6 343 374.1 328.6C372.5 322 365.9 318.1 359.4 320.2C352.1 322.5 349.4 330.3 351 337.2C351.4 339.1 354.3 338.3 353.8 336.4Z" fill="#161616"/>
<path d="M352.8 327.5C355.1 328.9 357.3 330.4 359.6 331.8C361.2 332.8 362.7 330.2 361.1 329.2C358.8 327.8 356.6 326.3 354.3 324.9C352.6 323.9 351.1 326.5 352.8 327.5Z" fill="#161616"/>
<path d="M366.4 329.8C367.5 328.1 368.5 326.4 369.6 324.7C370.6 323.1 368 321.5 367 323.2C365.9 324.9 364.9 326.6 363.8 328.3C362.8 329.9 365.4 331.5 366.4 329.8Z" fill="#161616"/>
<path d="M354.3 341.3C353.7 342.1 353.1 342.8 352.5 343.6C352 344.2 351.9 345.1 352.5 345.7C353 346.2 354.1 346.3 354.6 345.7C355.2 344.9 355.8 344.2 356.4 343.4C356.9 342.8 357 341.9 356.4 341.3C355.9 340.7 354.8 340.6 354.3 341.3Z" fill="#161616"/>
<path d="M351 338C350.1 339 348.9 339.7 347.6 340C345.7 340.5 346.5 343.4 348.4 342.9C350.2 342.5 351.9 341.5 353.1 340.1C354.5 338.7 352.3 336.6 351 338Z" fill="#161616"/>
<path d="M350.8 331.2C349.8 331.3 348.9 331.1 348 330.8C347.2 330.5 346.4 331.1 346.2 331.8C346 332.6 346.5 333.4 347.2 333.6C348.3 334 349.6 334.2 350.8 334.1C351.6 334 352.3 333.4 352.3 332.6C352.3 331.9 351.6 331.1 350.8 331.2Z" fill="#161616"/>
<path d="M357.7 322.9C357 322 356.4 320.9 356 319.8C355.7 319 355 318.5 354.2 318.8C353.5 319 352.9 319.9 353.2 320.6C353.8 322.2 354.6 323.7 355.7 325.1C356.2 325.7 357.3 325.6 357.8 325.1C358.3 324.4 358.2 323.6 357.7 322.9Z" fill="#161616"/>
<path d="M366.8 320.6C367 319.4 367.1 318.2 367.3 316.9C367.4 316.1 367.1 315.3 366.3 315.1C365.6 314.9 364.6 315.3 364.5 316.1C364.3 317.3 364.2 318.5 364 319.8C363.9 320.6 364.2 321.4 365 321.6C365.6 321.8 366.6 321.4 366.8 320.6Z" fill="#161616"/>
<path d="M371 330C372.5 330.2 374.1 330.4 375.6 330.6C376.4 330.7 377.1 329.8 377.1 329.1C377.1 328.2 376.4 327.7 375.6 327.6C374.1 327.4 372.5 327.2 371 327C370.2 326.9 369.5 327.8 369.5 328.5C369.5 329.4 370.2 329.9 371 330Z" fill="#161616"/>
<path d="M369.6 339.2C370.6 340.4 371.7 341.7 372.7 342.9C373.2 343.5 374.3 343.4 374.8 342.9C375.4 342.3 375.3 341.4 374.8 340.8C373.8 339.6 372.7 338.3 371.7 337.1C371.2 336.5 370.1 336.6 369.6 337.1C369 337.6 369.1 338.5 369.6 339.2Z" fill="#161616"/>
<path d="M364 343.2C364.4 345.5 364.8 347.8 365.2 350.1C365.5 352 368.4 351.2 368.1 349.3C367.7 347 367.3 344.7 366.9 342.4C366.6 340.5 363.7 341.3 364 343.2Z" fill="#161616"/>
<path d="M403.5 532.5C400.1 529.7 397.8 525.6 398.1 521.1C398.5 515.8 403.6 511.3 409 512.1C415.1 513 417.8 520.4 417.3 525.9C416.6 533.3 408.5 536.7 402.7 531.8C401.2 530.6 399.1 532.7 400.6 533.9C406 538.4 414.1 538.3 418.3 532.2C422.7 525.9 420.2 514.9 413.9 510.7C408.3 507 400.5 509.4 397 514.9C392.8 521.4 395.7 529.9 401.3 534.5C402.8 535.9 404.9 533.8 403.5 532.5Z" fill="#161616"/>
<path d="M398.3 517.3C401.3 519.2 404.3 521.2 407.3 523.1C408.9 524.2 410.4 521.6 408.8 520.5C405.8 518.6 402.8 516.6 399.8 514.7C398.2 513.6 396.7 516.2 398.3 517.3Z" fill="#161616"/>
<path d="M413 521.3C414.4 519.1 415.9 516.9 417.3 514.7C418.4 513.1 415.8 511.6 414.7 513.2C413.3 515.4 411.8 517.6 410.4 519.8C409.4 521.4 412 522.9 413 521.3Z" fill="#161616"/>
<path d="M397.3 532.4C395.9 533.8 394.6 535.1 393.2 536.5C391.8 537.9 394 540 395.3 538.6C396.7 537.2 398 535.9 399.4 534.5C400.8 533.1 398.7 531 397.3 532.4Z" fill="#161616"/>
<path d="M403 536.5C402.6 538.5 402.2 540.6 401.7 542.6C401.3 544.5 404.2 545.3 404.6 543.4C405 541.4 405.4 539.3 405.9 537.3C406.3 535.4 403.4 534.6 403 536.5Z" fill="#161616"/>
<path d="M395 523.2C393.2 523.2 391.4 523.2 389.6 523.2C387.7 523.2 387.7 526.2 389.6 526.2C391.4 526.2 393.2 526.2 395 526.2C397 526.2 397 523.2 395 523.2Z" fill="#161616"/>
<path d="M400.5 508.6C399.5 508 399.1 506.9 399.2 505.8C399.3 505 398.5 504.3 397.7 504.3C396.8 504.3 396.3 505 396.2 505.8C396 508 397.1 510 398.9 511.2C400.6 512.3 402.1 509.7 400.5 508.6Z" fill="#161616"/>
<path d="M412.1 508.9C412.5 507.1 413.1 505.4 413.9 503.8C414.8 502.1 412.2 500.6 411.3 502.3C410.3 504.1 409.6 506.1 409.2 508.1C408.8 510 411.7 510.8 412.1 508.9Z" fill="#161616"/>
<path d="M417.8 516.8C419.4 516.5 420.9 516.7 422.4 517.3C424.2 518 425 515.1 423.2 514.4C421.2 513.6 419.1 513.5 417 513.9C415.1 514.2 415.9 517.1 417.8 516.8Z" fill="#161616"/>
<path d="M419 527.6C420.5 528.2 421.6 529.4 422.2 530.9C422.5 531.6 423.6 531.8 424.3 531.4C425.1 530.9 425.2 530.1 424.8 529.3C423.9 527.1 422 525.5 419.8 524.6C419 524.3 418.2 524.9 418 525.6C417.7 526.6 418.2 527.3 419 527.6Z" fill="#161616"/>
<path d="M417.2 534.9C416.9 537.8 417.7 540.7 419.3 543.2C420.3 544.8 422.9 543.3 421.9 541.7C420.6 539.6 420 537.4 420.3 534.9C420.4 532.9 417.4 533 417.2 534.9Z" fill="#161616"/>
<path d="M205.9 694.3C204 692.4 206.3 688.7 208.8 690.5C211.5 692.4 208.7 696 206.1 694.5C204.4 693.5 202.9 696.1 204.6 697.1C207 698.5 210.2 697.8 211.9 695.6C213.8 693.2 213 689.9 210.6 688.2C208.3 686.5 205 686.8 203.3 689.2C201.7 691.4 201.8 694.6 203.7 696.6C205.1 697.8 207.2 695.6 205.9 694.3Z" fill="#161616"/>
<path d="M203.7 688.4C202.7 688.1 201.7 687.7 200.7 687.4C199.9 687.1 199.1 687.7 198.9 688.4C198.7 689.2 199.2 690 199.9 690.2C200.9 690.5 201.9 690.9 202.9 691.2C203.7 691.5 204.5 690.9 204.7 690.2C205 689.4 204.5 688.6 203.7 688.4Z" fill="#161616"/>
<path d="M203.7 691.2C207 690.5 209.5 687.3 209.3 683.9C209.2 682 206.2 682 206.3 683.9C206.4 686.1 205 687.9 202.9 688.3C201.1 688.7 201.8 691.6 203.7 691.2Z" fill="#161616"/>
<path d="M212.7 692.4C214 692.1 215.3 691.7 216.6 691.4C218.5 690.9 217.7 688 215.8 688.5C214.5 688.8 213.2 689.2 211.9 689.5C210 690 210.8 692.9 212.7 692.4Z" fill="#161616"/>
<path d="M210 697.5C210.7 698.5 211.3 699.5 212 700.5C212.4 701.2 213.3 701.5 214.1 701C214.8 700.6 215.1 699.6 214.6 698.9C213.9 697.9 213.3 696.9 212.6 695.9C212.2 695.2 211.3 694.9 210.5 695.4C209.8 695.8 209.5 696.8 210 697.5Z" fill="#161616"/>
<path d="M206.5 692.4C204.4 693.9 202.9 695.9 201.9 698.3C201.6 699.1 202.2 699.9 202.9 700.1C203.8 700.3 204.4 699.8 204.7 699.1C205.4 697.5 206.5 696 207.9 695C208.6 694.5 208.9 693.7 208.4 692.9C208.2 692.3 207.2 692 206.5 692.4Z" fill="#161616"/>
<path d="M345.8 272.1C355.5 282.3 366 291.5 377.3 299.8C378.9 300.9 380.4 298.3 378.8 297.2C367.7 289 357.4 279.9 347.9 269.9C346.6 268.6 344.5 270.7 345.8 272.1Z" fill="#161616"/>
<path d="M249.7 509.9C279.6 508.3 309.5 513.4 337.1 525.1C338.9 525.8 340.4 523.3 338.6 522.5C310.5 510.6 280.2 505.2 249.7 506.9C247.8 507.1 247.8 510.1 249.7 509.9Z" fill="#161616"/>
<path d="M391.7 663.1C403.3 656.3 414.8 649.5 426.4 642.6C428.1 641.6 426.6 639 424.9 640C413.3 646.8 401.8 653.6 390.2 660.5C388.5 661.5 390 664.1 391.7 663.1Z" fill="#161616"/>
<path d="M261.5 699.2C278.4 683 298.2 670.4 320.1 662.1C321.9 661.4 321.1 658.5 319.3 659.2C297 667.7 276.7 680.5 259.4 697.1C258 698.4 260.1 700.6 261.5 699.2Z" fill="#161616"/>
<path d="M299.6 611.9C311.2 610.1 322.8 608.3 334.5 606.4C336.4 606.1 335.6 603.2 333.7 603.5C322.1 605.3 310.5 607.1 298.8 609C296.9 609.3 297.7 612.2 299.6 611.9Z" fill="#161616"/>
<path d="M102.5 562.4C117.2 568.5 132.9 570.9 148.8 569.6C150.7 569.4 150.7 566.4 148.8 566.6C133.2 567.9 117.8 565.5 103.3 559.5C101.5 558.8 100.7 561.7 102.5 562.4Z" fill="#161616"/>
<path d="M102.3 363.6C127.7 367.9 151.5 378.7 171.3 395.2C172.8 396.4 174.9 394.3 173.4 393.1C153.2 376.2 129 365 103 360.7C101.2 360.4 100.4 363.3 102.3 363.6Z" fill="#161616"/>
<path d="M160.8 411.8C170.8 417.4 181.3 421.7 192.4 424.7C194.3 425.2 195.1 422.3 193.2 421.8C182.4 418.9 172.1 414.7 162.3 409.2C160.7 408.2 159.2 410.8 160.8 411.8Z" fill="#161616"/>
<path d="M212.3 252C231.5 261.4 248.1 275.1 260.9 292.2C262 293.7 264.6 292.2 263.5 290.7C250.4 273.2 233.5 259 213.9 249.4C212.1 248.6 210.6 251.2 212.3 252Z" fill="#161616"/>
<path d="M294.7 340.4C303.3 344.6 311.9 348.9 320.4 353.1C322.1 354 323.6 351.4 321.9 350.5C313.3 346.3 304.7 342 296.2 337.8C294.5 336.9 292.9 339.5 294.7 340.4Z" fill="#161616"/>
<path d="M845.7 996.7C852.1 1009 858.5 1021.4 864.9 1033.7C856.8 1037.9 845.1 1043.9 830.6 1050.8C811.3 1060 802 1063.8 802.5 1067.3C803.1 1071.2 815.8 1072.1 825.8 1072.8C833.5 1073.3 848.4 1074 895.7 1064.6C905.9 1062.6 910.8 1061.4 913.5 1057.1C918.2 1049.6 912.6 1038.9 906 1024.2C900.7 1012.4 893.5 995.4 886.1 973.5C872.7 981.1 859.2 988.9 845.7 996.7Z" fill="#191919"/>
<path d="M628.1 598.9C643.1 653.5 659.3 697.7 672.6 730.4C683.6 757.3 693.1 777.8 697.1 786.2C716.5 827.1 733.4 855.9 740.4 868.2C758.4 899.5 784.2 947.1 816.5 1016.7C824.2 1017.7 843.2 1019.1 863.8 1009.1C889.5 996.7 900.5 974.9 903.5 968.4C880.8 926.5 865.7 890.9 856.2 866.3C830.3 799.5 827 762.1 800.4 675.2C787.4 632.8 774.6 596.9 764.1 569.2C718.9 579.2 673.5 589 628.1 598.9Z" fill="white" stroke="#191919" stroke-width="2" stroke-miterlimit="10"/>
<path opacity="0.09" d="M694.8 586.6C735.6 683.8 775.6 784.3 814.5 888C830.1 929.7 845.3 971 859.9 1012C866.9 1008.2 876 1002.4 885.2 993.7C894.1 985.2 900.3 976.8 904.4 970.1C895.3 954.9 881.4 930.3 867.7 898.5C857.2 874.2 848.8 850.1 807.4 695C803 678.5 793.6 643.1 774.2 598.9C768.9 586.8 764.2 577.1 761.1 570.9C739.1 576.1 717 581.3 694.8 586.6Z" fill="#6C6D6D"/>
<path opacity="0.22" d="M742.9 575.2C760 619.1 776.7 665.2 792.7 713.2C826.5 815.2 852.4 912.4 872.2 1003.2C876.9 1000.3 882.4 996.4 887.9 991C895.9 983.2 901.2 975.2 904.5 969.2C886.5 936.7 874.1 909 866.1 889.7C835.9 817.1 818.4 744.2 808.4 702.8C806.8 696.2 805.9 692.2 804 685.3C793.8 648.2 784.3 633.8 771.7 594.4C770.1 589.3 767.5 581.1 764.7 570.8C757.4 572.3 750.2 573.7 742.9 575.2Z" fill="#6C6D6D"/>
<path d="M621.6 895.9C630.5 907.3 639.4 918.7 648.3 930.2C597.6 947.7 585.8 955.7 586.6 959.7C588.6 968.9 659.1 952.9 689.4 957C691.8 957.3 699.5 958.5 703.1 954.3C706.2 950.6 704.8 944.5 703.8 941.3C688 917.3 672.3 893.3 656.5 869.3C644.9 878.1 633.2 887 621.6 895.9Z" fill="#191919"/>
<path d="M775.4 601.2C782 618.7 802.3 678.3 772.6 719.5C769.7 723.6 761 734.8 723.4 755.6C685.9 776.3 651.6 789 624.9 796.9C633 810.7 643.1 826 655.7 841.8C665.6 854.2 675.4 865 684.7 874.3C665.4 891 646 907.7 626.7 924.4C608.8 916.3 579.1 900 552.8 869C535.8 849 515.7 825.2 515.9 794.2C516.1 765.4 533.9 746.2 566.9 710.7C589.3 686.6 625.8 648.2 688.3 622.8C723.1 608.6 754.2 603.3 775.4 601.2Z" fill="white" stroke="#191919" stroke-width="2" stroke-miterlimit="10"/>
<path opacity="0.17" d="M706.101 616.3C710.101 625.2 714.701 639.3 713.101 656.1C711.001 678.4 698.801 695.6 678.201 716.1C657.901 736.3 621.401 767.6 563.101 795.6C593.101 829.8 623.101 863.9 653.101 898.1C663.301 890.7 673.601 883.2 683.801 875.8C674.301 865.8 664.401 854.5 654.501 841.6C642.601 826.2 632.701 811.4 624.501 797.7C654.101 788 678.301 778 696.301 769.8C696.301 769.8 718.201 759.9 745.801 742.6C758.101 734.9 766.001 729.2 773.001 719.6C781.301 708.2 784.101 697.4 785.601 691.7C795.301 654 777.601 610.8 773.701 601.7C762.501 602.1 749.001 603.6 733.901 607.3C723.401 609.8 714.001 613 706.101 616.3Z" fill="#6C6D6D"/>
<path opacity="0.22" d="M783.5 690.2C765.7 705.1 745.5 720.5 722.8 735.5C681.4 763 641.8 783 607 797.6C628.2 826.2 649.3 854.8 670.5 883.4C674.9 880.4 679.3 877.4 683.8 874.3C673.4 862.8 662.601 849.8 651.701 835.2C641.601 821.6 632.801 808.5 625.201 796.1C633.601 793.9 645.201 790.5 658.701 785.6C688.101 774.9 707.8 763.7 729.1 751.4C759.1 734.1 765.601 727.2 770.201 720.7C778.301 709.6 781.8 698.1 783.5 690.2Z" fill="#6C6D6D"/>
<path d="M725.3 358.1C710.5 352 693.1 380.1 691.5 382.7C685.6 392.5 684.2 399.6 678.7 418.6C665.2 465.1 658.2 488.6 644.9 500.8C633 511.7 620.5 512.2 617.2 512.1C603.2 512 591.7 502.3 569.2 482.8C550.3 466.4 548.3 461.4 537.4 457.3C531.8 455.2 515.6 449 502.9 461.1C494.8 468.8 489.9 483 492.1 486.6C494.9 491.2 510 480.3 510.1 480.7C510.2 480.9 505.8 482.7 501.7 487.6C499.7 490 496.2 495.2 497 497C498.5 500.5 511.9 484.4 523.9 490.4C532.1 494.5 532.5 505.3 542 509.5C547.6 512 552.9 510.6 556.3 509.3C560.9 518.9 568.6 532.7 580.6 545.2C587.7 552.7 613 578.3 648.2 574.5C685.4 570.4 708.1 536 715.1 525.4C719.1 519.3 748.6 473.1 744.2 412.9C743.5 403.2 740.6 364.5 725.3 358.1Z" fill="white" stroke="#191919" stroke-width="2" stroke-miterlimit="10"/>
<path opacity="0.25" d="M723.6 358.1C718 360.6 725 388.7 719.3 425.4C713.9 460.7 699.7 484.5 693.3 495.3C684.7 509.9 673.4 528.9 654.1 538.6C628.2 551.7 599.2 542.5 579.8 525.3C574 520.2 569.1 506.8 556.2 496.4C550.6 491.9 546 489.5 540.7 486.8C527.7 480.2 516 474.2 504.1 479.4C498.4 481.9 493.3 486.6 493.6 487.5C493.9 488.4 500.5 485.4 506.4 482.6C498.5 493 497 496.2 497.4 497C497.8 497.8 500.2 495.7 505.8 492.9C511.8 489.9 516.1 487.9 520.9 489.6C523.4 490.5 525.1 492 526.2 492.9C530.2 496.5 530.9 499.8 534.9 503.9C537.4 506.4 539.6 507.6 540.7 508.2C543.1 509.5 548.3 511.7 555.6 509.9C560.6 520 583.9 564.9 624.8 573.1C645.8 577.3 662.5 570.1 669.1 567.1C705.2 550.7 723.4 511.7 728.2 500.9C742.9 467.4 752.8 415.1 737.7 377.4C734.1 368.3 727.5 356.4 723.6 358.1Z" fill="#6C6D6D"/>
<path opacity="0.29" d="M741.8 402.5C739.3 413.3 735.2 428.8 729.2 446.7C717.3 482.2 706.6 514.1 685.7 536.7C659.9 564.7 629 567 611.6 565.9C623.8 572.8 633.9 574.3 640.4 574.4C689.4 575.9 723.6 511.1 734.2 481.9C736.1 476.7 739.9 466 742.1 450.7C745.1 430.3 743.4 412.9 741.8 402.5Z" fill="#6C6D6D"/>
<path d="M647.1 378.1C631.1 395.1 627.2 414.1 621 444.4C611.6 490 616.2 527.6 620.5 561.2C624.1 589.3 629.4 612.1 633.4 627.4C638.9 631.7 671.1 656 715.8 649.5C755.8 643.6 778.7 617.1 783.9 610.7C785.6 601.2 788 587.2 790.8 570.2C806.7 471.6 815.7 422.1 803.7 398.7C796.7 385 781.2 364.7 742.4 350.1C731.2 348.9 679.3 343.9 647.1 378.1Z" fill="#E91E63"/>
<path opacity="0.19" d="M650.6 374.7C682.3 386.4 698 403.7 705.4 413.9C746.4 470.2 721.2 553.6 691.7 600C679.8 618.7 666.8 632.1 657.3 640.7C666.1 644.9 688.6 654.1 717.3 649.8C755.9 643.9 778 617.6 783.1 611.2C787.2 570.8 793.5 539.1 798.8 517.2C803.4 498 805.5 480.7 809.8 446.1C811.3 433.9 813.1 418.1 805.2 401.6C800.7 392.2 794.8 386.1 790.4 381.6C783.8 374.9 770.5 363.5 748.8 356.5C738.6 354 721.1 351.2 699.7 354.8C676.2 358.7 659.4 368.6 650.6 374.7Z" fill="#6C6D6D"/>
<path opacity="0.18" d="M801.3 391C799.5 391.1 803.3 418.8 797.4 457C786.5 527.7 751.5 576.7 738 594.1C726.7 608.6 709 628.6 683.1 648.3C692.4 649.7 704.8 650.3 719 647.6C752.7 641.3 774.1 620.6 782.3 611.7C784.4 599.5 787.8 580.4 792.1 556.8C802.2 501.6 804.2 495 805.8 477.8C810.2 430.9 803.4 391 801.3 391Z" fill="#6C6D6D"/>
<path d="M787.1 378.4C768.5 372.3 746.8 400.3 744.8 402.9C737.4 412.6 735.6 419.7 728.7 438.6C711.8 484.9 703.1 508.3 686.4 520.4C671.5 531.3 655.9 531.7 651.7 531.7C634.2 531.6 619.8 521.9 591.7 502.5C568 486.2 565.6 481.2 552 477.1C545 475 524.8 468.9 508.9 480.9C498.8 488.6 492.6 502.7 495.4 506.3C498.9 510.9 517.8 500.1 517.9 500.4C518 500.6 512.5 502.3 507.4 507.2C504.9 509.6 500.5 514.7 501.5 516.6C503.4 520.1 520.2 504.1 535.2 510C545.4 514.1 546 524.8 557.9 529C564.9 531.5 571.6 530.1 575.8 528.8C581.6 538.3 591.2 552.1 606.2 564.5C615.1 571.9 646.8 597.5 690.7 593.7C737.3 589.7 765.6 555.4 774.4 544.8C779.5 538.7 816.4 492.7 810.8 432.9C809.9 423.2 806.3 384.7 787.1 378.4Z" fill="white" stroke="#191919" stroke-width="2" stroke-miterlimit="10"/>
<path opacity="0.25" d="M785.1 378.3C778.1 380.8 786.9 408.7 779.8 445.3C773 480.4 755.3 504.1 747.2 514.8C736.4 529.3 722.3 548.2 698.1 557.9C665.7 570.9 629.4 561.7 605.1 544.7C597.9 539.6 591.8 526.3 575.6 515.9C568.6 511.4 562.9 509.1 556.2 506.4C539.9 499.8 525.3 493.9 510.4 499.1C503.2 501.6 496.9 506.3 497.2 507.1C497.5 508 505.8 505 513.2 502.2C503.3 512.6 501.4 515.8 501.9 516.6C502.5 517.4 505.4 515.3 512.4 512.5C519.9 509.5 525.3 507.5 531.3 509.2C534.4 510.1 536.6 511.6 537.9 512.5C543 516 543.8 519.4 548.8 523.4C551.9 525.9 554.7 527.1 556.1 527.7C559.1 529 565.7 531.2 574.8 529.4C581.1 539.5 610.2 584.1 661.4 592.3C687.7 596.5 708.5 589.3 716.8 586.3C762 570 784.8 531.2 790.7 520.4C809 487 821.5 435 802.6 397.5C798.2 388.5 789.9 376.6 785.1 378.3Z" fill="#6C6D6D"/>
<path opacity="0.29" d="M807.9 422.5C804.7 433.2 799.7 448.7 792.2 466.5C777.3 501.8 763.9 533.6 737.8 556.1C705.5 583.9 666.9 586.2 645.1 585.1C660.4 592 673 593.4 681.1 593.6C742.4 595 785.2 530.6 798.5 501.5C800.9 496.4 805.7 485.7 808.4 470.5C812 450.1 809.9 432.9 807.9 422.5Z" fill="#6C6D6D"/>
<path d="M504.2 362C484.7 420.2 484.1 468.9 486.2 498.6C491.5 576.7 522.5 634.3 541 667.8C553.9 691.2 566.7 709.8 576.4 722.8C579.7 723.1 583.1 723.3 586.4 723.6C587.4 710.8 589 693.3 591.8 672.8C593.8 657.9 602.2 598.7 625.9 522.4C638 483.3 655.4 435.7 680.5 383.3C669.6 380.2 658.6 377.2 647.7 374.1C639.6 406.6 619.9 424.9 608.8 422.3C598.2 419.8 589.4 397 593.2 367.7C586.4 366.6 579.5 365.5 572.7 364.4C560.3 393.7 542.8 409.8 533.6 406.7C525.3 403.9 521.7 384.8 524.2 362.2C517.6 362.1 510.9 362 504.2 362Z" fill="#161616" stroke="#161616" stroke-width="2" stroke-miterlimit="10"/>
<path d="M497.9 361.7C487.1 390.8 473.9 438.2 476.7 496.9C477.9 521.5 484 593.1 531.5 666.1C547.6 690.9 564.4 709.4 577 721.9C578 709.1 579.6 691.6 582.4 671.1C584.4 656.2 592.8 597 616.5 520.7C628.6 481.6 646 434 671.1 381.6C661.6 378.3 652.2 375 642.7 371.7C633.3 405.8 611.4 423.9 599.4 420.7C588.3 417.7 580 394.6 583.8 366.1C577.2 365.4 570.6 364.7 563.9 364C551.7 393.1 533.7 408.4 524.2 405.2C515.8 402.3 512 384 514.3 362.6C508.8 362.2 503.3 362 497.9 361.7Z" fill="white" stroke="#161616" stroke-width="2" stroke-miterlimit="10"/>
<path d="M524.6 492.7C526.3 482.9 534 474.8 543.8 472.9C558.6 470.1 563.1 487.2 562 498.8C561.8 500.7 564.8 500.7 565 498.8C566.3 486.6 561.4 468.6 546.2 469.6C534.1 470.4 523.8 480.1 521.7 492C521.3 493.8 524.2 494.6 524.6 492.7Z" fill="#4F4F4F"/>
<path d="M521.1 494.6C535.6 494.8 549.8 496.9 563.7 501.1C565.6 501.7 566.3 498.8 564.5 498.2C550.4 493.9 535.9 491.7 521.1 491.6C519.1 491.6 519.1 494.6 521.1 494.6Z" fill="#4F4F4F"/>
<path d="M518.3 493.5C514.8 504.6 513.3 515.9 513.6 527.5C513.7 529.4 516.7 529.4 516.6 527.5C516.2 516.2 517.8 505.1 521.1 494.3C521.8 492.5 518.9 491.7 518.3 493.5Z" fill="#4F4F4F"/>
<path d="M514.3 530.1C528.6 536.7 544.2 539.3 559.9 537.3C561.8 537.1 561.8 534.1 559.9 534.3C544.8 536.2 529.7 534 515.8 527.6C514.1 526.7 512.6 529.3 514.3 530.1Z" fill="#4F4F4F"/>
<path d="M562.8 500.9C562.8 512.4 561.9 523.8 559.9 535.2C559.6 537.1 562.5 537.9 562.8 536C564.8 524.4 565.8 512.7 565.8 500.9C565.8 499 562.8 499 562.8 500.9Z" fill="#4F4F4F"/>
<path d="M538.3 510.7C537.6 510 539 507.9 539.9 508.3C540.8 508.7 540.4 510.9 539.4 510.4C539.2 510.3 539.2 510 539.1 510C539.3 510.1 539.3 510 539.2 510C539 510.1 539 510.4 538.7 510.5C537.5 511 538.1 508.7 538.6 508.7C539.1 508.7 539.3 511 538.9 511.2C538.4 511.3 537.9 510.2 537.9 509.9C537.8 509.4 537.9 508.9 538.3 508.6C539.3 507.8 540.1 508.7 540.3 509.7C540.4 510.2 540.3 510.9 540 511.3C539.9 511.4 539.4 511.5 539.3 511.4C538.7 509.6 535.8 510.4 536.4 512.2C537.6 515.6 542.1 514.8 543.1 511.7C544.1 508.5 541.8 504.8 538.2 505.5C534.9 506.2 534 510.2 536 512.7C537.1 514 539 514.8 540.5 513.8C541.9 512.9 542.2 511.1 542.1 509.6C541.9 507.9 541 506.2 539.2 505.8C537.4 505.4 536 506.8 535.4 508.4C534.8 509.9 535 511.7 536.2 512.8C537.3 513.8 539.1 513.8 540.3 513.1C541.8 512.3 542.7 510.4 542 508.8C541.4 507.4 539.7 506.7 538.2 507.2C536.6 507.7 535.9 509.5 536.3 511C536.7 512.6 538.3 513.6 540 513.5C544.1 513.1 544.7 506.9 540.9 505.5C537 504.1 533.4 510 536.3 512.9C537.6 514.1 539.7 512 538.3 510.7Z" fill="#4F4F4F"/>
<path d="M537.5 511.3C536.9 514.7 536.2 518.1 535.6 521.5C535.2 523.4 538.1 524.2 538.5 522.3C539.1 518.9 539.8 515.5 540.4 512.1C540.7 510.2 537.8 509.4 537.5 511.3Z" fill="#4F4F4F"/>
<path d="M536.4 511.1C535.7 514.7 535.3 518.3 535.3 521.9C535.3 523.8 538.3 523.8 538.3 521.9C538.3 518.5 538.6 515.2 539.3 511.9C539.7 510 536.8 509.2 536.4 511.1Z" fill="#4F4F4F"/>
<path d="M539.1 511.1C538.1 514.6 537 518 536 521.5C535.5 523.4 538.3 524.1 538.9 522.3C539.9 518.8 541 515.4 542 511.9C542.5 510 539.6 509.2 539.1 511.1Z" fill="#4F4F4F"/>
<path d="M538.3 509.6C540.2 509.6 540.2 506.6 538.3 506.6C536.4 506.6 536.4 509.6 538.3 509.6Z" fill="#4F4F4F"/>
<path d="M578.3 370C576.7 383.6 578.7 397 584 409.6C584.4 410.5 585.7 409.7 585.3 408.8C580.1 396.5 578.2 383.2 579.8 369.9C579.9 369 578.4 369 578.3 370Z" fill="#4F4F4F"/>
<path d="M507.2 368.1C506.4 379.5 507.9 390.7 511.8 401.5C512.1 402.4 513.6 402 513.2 401.1C509.3 390.5 507.8 379.4 508.6 368.1C508.8 367.1 507.3 367.1 507.2 368.1Z" fill="#4F4F4F"/>
<path d="M648.5 379.3C652.3 381.5 656.2 383.4 660.3 385C661.2 385.4 661.6 383.9 660.7 383.6C656.8 382 653 380.2 649.3 378.1C648.4 377.5 647.6 378.8 648.5 379.3Z" fill="#4F4F4F"/>
<path d="M640.6 204.2C638.8 209.8 637 215.4 635.4 221.3C628.5 245.2 623.9 268.1 620.8 289.4C625.8 289.6 630.7 289.7 635.7 289.9C634.5 294.6 630.5 311.7 639.3 330.5C647.5 348.1 661.7 356.2 666.2 358.5C664.9 365.1 663.7 371.7 662.4 378.3C666 380 686.8 389.6 710.6 380.3C730.4 372.6 739.5 356.8 741.8 352.4C732.3 336.4 729.7 322.3 728.9 314.2C727.5 300.3 729.8 288.9 731.8 278.7C733.9 268.3 736.6 259.9 738.8 253.9C745.6 235.3 738.8 203.4 718.4 189.4C698.3 175.5 664.7 180.2 640.6 204.2Z" fill="white" stroke="#161616" stroke-width="2" stroke-miterlimit="10"/>
<path d="M633.5 290.4C636.1 290.4 638.8 290.4 641.4 290.5C642.4 290.5 642.4 289 641.4 289C638.8 288.9 636.1 288.9 633.5 288.9C632.5 288.9 632.5 290.4 633.5 290.4Z" fill="#161616"/>
<path d="M724.4 230C713.2 231.2 709.9 240.4 693.4 258.2C676.7 276.2 666.2 287.5 649.5 292.5C638.7 295.7 633.9 293.8 628.6 299.2C619.4 308.5 622.2 326.4 625.6 335.8C629.5 346.7 636.7 353.9 642.7 359.8C648.4 365.5 653.8 369.4 657.7 371.9C654.2 364.6 654.2 362.4 654.9 361.9C656.6 360.7 661.6 369.2 668.9 369.3C671 369.3 674.9 368.6 684.8 356.9C691.5 348.9 696.1 343.5 699.9 335.3C707.9 317.6 700.9 311.5 706.5 287.5C707.4 283.8 713.9 255.5 724.3 255C728.1 254.8 731.4 258.4 732.9 261C735.9 266.5 734.5 274.3 728.8 280.5C730.5 279.7 746.4 271.8 748.5 255.8C748.8 253.3 750 244 743.9 237C736.7 228.8 725.3 229.9 724.4 230Z" fill="#161616" stroke="#161616" stroke-width="2" stroke-miterlimit="10"/>
<path d="M646.364 260.857C648.443 261.146 650.547 258.364 651.064 254.645C651.581 250.925 650.315 247.675 648.237 247.386C646.158 247.097 644.053 249.878 643.536 253.598C643.019 257.318 644.285 260.568 646.364 260.857Z" fill="#161616"/>
<path d="M640.3 248C645.2 245.8 650.3 244.4 655.5 243.5C657.4 243.2 656.6 240.3 654.7 240.6C649.2 241.5 643.9 243.1 638.7 245.4C637 246.2 638.5 248.8 640.3 248Z" fill="#161616"/>
<path d="M636 214.5C637.9 208.2 641.8 198 650.3 188C653.3 184.5 659.6 177 668.6 172.7C685.8 164.4 710 168.6 725.9 183.9C741.4 198.9 746.9 222.7 740 244.7C705.4 234.6 670.7 224.6 636 214.5Z" fill="#4872C8"/>
<path d="M577.4 207.5C630.9 222 684.4 236.6 737.9 251.1C743.5 252.6 745.9 243.9 740.3 242.4C686.8 227.9 633.3 213.3 579.8 198.8C574.2 197.3 571.8 206 577.4 207.5Z" fill="#161616"/>
<path d="M689.4 168.8C702.9 173.8 711.9 186.5 711.9 200.4C711.9 212.5 705 223.8 694.1 229.8C709.4 234.1 724.6 238.3 739.9 242.6C741.3 238.6 742.9 232.4 742.9 224.9C743 207.4 734.6 195 731.8 191.2C728.8 187.1 718.1 173.4 699.8 169.8C695.6 168.8 691.9 168.7 689.4 168.8Z" fill="#3A5FAB"/>
</svg>
