<svg width="908" height="681" viewBox="0 0 908 681" fill="none" xmlns="http://www.w3.org/2000/svg">
<path d="M129.617 578.963C157.538 580.212 185.459 580.836 213.38 580.779C214.458 580.779 214.458 579.077 213.38 579.077C185.459 579.133 157.538 578.509 129.617 577.261C128.539 577.204 128.539 578.906 129.617 578.963Z" fill="#E8E8E8"/>
<path d="M215.082 536.741C219.452 553.142 223.538 569.656 227.284 586.227C227.511 587.306 229.156 586.852 228.929 585.773C225.127 569.202 221.098 552.688 216.728 536.287C216.444 535.266 214.799 535.72 215.082 536.741Z" fill="#E8E8E8"/>
<path d="M291.128 537.99C289.539 553.596 287.95 569.259 286.417 584.865C286.304 585.944 288.006 585.944 288.12 584.865C289.709 569.259 291.298 553.596 292.83 537.99C292.887 536.912 291.184 536.912 291.128 537.99Z" fill="#E8E8E8"/>
<path d="M227.738 587.759C237.669 589.519 247.714 590.313 257.815 590.029C267.463 589.746 278.018 589.008 287.212 585.943C288.233 585.603 287.779 583.957 286.758 584.298C277.621 587.305 267.349 588.043 257.815 588.327C247.884 588.611 237.953 587.816 228.192 586.114C227.114 585.887 226.659 587.532 227.738 587.759Z" fill="#E8E8E8"/>
<path d="M215.764 537.309C227.511 540.6 240.279 540.657 252.424 540.714C265.476 540.827 278.529 540.09 291.468 538.614C292.546 538.501 292.546 536.798 291.468 536.912C278.869 538.387 266.214 539.068 253.559 539.011C241.244 538.955 228.192 538.955 216.218 535.663C215.139 535.379 214.685 537.025 215.764 537.309Z" fill="#E8E8E8"/>
<path d="M210.883 531.463C210.997 532.542 211.11 533.677 211.224 534.755C211.28 535.436 211.28 536.287 211.564 536.911C212.245 538.387 214.515 537.876 215.82 537.876C216.899 537.876 216.899 536.174 215.82 536.174C215.196 536.174 214.572 536.174 213.891 536.174C213.04 536.174 213.04 536.003 212.983 535.152C212.869 533.904 212.756 532.712 212.642 531.463C212.472 530.385 210.77 530.328 210.883 531.463Z" fill="#E8E8E8"/>
<path d="M212.018 532.372C226.205 534.017 240.45 534.812 254.751 534.925C261.788 534.982 268.825 534.868 275.919 534.641C279.437 534.528 282.955 534.358 286.474 534.188C288.12 534.131 290.39 533.563 292.035 533.904C294.022 534.244 293.908 535.947 294.135 537.706C294.305 537.366 294.532 537.025 294.703 536.685C293.965 536.685 293.227 536.685 292.49 536.685C291.411 536.458 290.957 538.103 292.035 538.33C293.17 538.557 294.022 538.557 295.1 538.33C295.611 538.217 295.781 537.706 295.668 537.309C295.384 535.323 295.611 532.826 293.227 532.315C291.809 531.974 290.049 532.372 288.574 532.428C286.701 532.542 284.885 532.599 283.012 532.712C275.067 533.053 267.065 533.28 259.064 533.28C243.287 533.28 227.567 532.542 211.904 530.669C210.94 530.556 210.94 532.258 212.018 532.372Z" fill="#E8E8E8"/>
<path d="M224.333 573.629C228.873 579.588 234.207 584.752 240.223 589.178C241.131 589.803 241.982 588.327 241.074 587.703C235.286 583.447 230.121 578.453 225.751 572.721C225.127 571.87 223.652 572.721 224.333 573.629Z" fill="#E8E8E8"/>
<path d="M220.53 556.32C229.383 569.089 240.279 580.268 252.878 589.405C253.786 590.029 254.637 588.554 253.729 587.93C241.414 578.963 230.689 567.954 222.006 555.469C221.382 554.561 219.906 555.412 220.53 556.32Z" fill="#E8E8E8"/>
<path d="M217.069 541.111C232.391 559.271 249.416 576.239 269.733 588.838C270.641 589.405 271.549 587.93 270.584 587.362C250.381 574.877 233.47 558.022 218.261 539.919C217.58 539.068 216.388 540.316 217.069 541.111Z" fill="#E8E8E8"/>
<path d="M233.356 540.147C247.941 557.115 264.114 573.232 282.161 586.511C283.069 587.136 283.92 585.66 283.012 585.036C265.079 571.87 249.019 555.753 234.548 538.955C233.81 538.104 232.618 539.295 233.356 540.147Z" fill="#E8E8E8"/>
<path d="M251.97 541.338C261.844 553.426 273.194 564.208 285.793 573.459C286.701 574.083 287.552 572.607 286.644 571.983C274.159 562.846 262.923 552.121 253.162 540.146C252.481 539.295 251.289 540.487 251.97 541.338Z" fill="#E8E8E8"/>
<path d="M267.179 540.714C273.535 547.865 280.799 553.994 288.857 559.158C289.765 559.725 290.617 558.25 289.709 557.682C281.764 552.632 274.613 546.503 268.371 539.522C267.633 538.671 266.441 539.863 267.179 540.714Z" fill="#E8E8E8"/>
<path d="M188.637 447.19C192.326 454.965 194.823 463.137 196.242 471.649C196.298 472.046 196.696 472.273 197.036 472.273C197.377 472.273 199.193 472.217 199.306 472.784C199.363 473.011 198.228 474.316 198.114 474.6C197.774 475.508 197.774 476.586 198.114 477.494C198.568 478.573 199.42 479.31 200.441 479.708C200.782 479.878 201.179 479.935 201.576 479.991C201.917 480.048 202.257 480.048 202.598 479.991C203.052 479.935 202.995 479.991 202.484 480.218C201.917 481.07 201.122 481.183 200.895 482.432C200.725 483.623 201.292 484.758 201.746 485.78C203.619 489.752 204.697 493.952 206.23 498.095C211.507 512.169 221.609 523.802 233.016 533.393C233.867 534.074 235.059 532.882 234.207 532.201C222.46 522.327 212.018 510.239 207.081 495.427C206.457 493.498 205.889 491.568 205.208 489.696C204.641 488.05 203.562 486.347 203.052 484.702C202.484 483.794 202.541 482.772 203.279 481.751C203.506 481.58 203.733 481.41 203.96 481.24C204.13 480.956 204.47 480.786 204.641 480.445C204.868 479.821 204.697 479.254 204.243 478.8C203.506 478.062 202.371 478.459 201.406 478.175C197.717 477.097 200.725 474.6 201.009 472.784C201.406 470.401 198.455 470.684 196.866 470.571C197.15 470.798 197.433 470.968 197.66 471.195C196.242 462.569 193.631 454.227 189.886 446.339C189.659 445.317 188.183 446.168 188.637 447.19Z" fill="#E8E8E8"/>
<path d="M189.261 446.792C207.705 451.73 223.879 464.271 235.626 479.14C248.111 494.916 255.886 513.871 260.085 533.45C260.312 534.528 261.958 534.074 261.731 532.996C257.475 513.133 249.53 493.952 236.874 477.948C224.957 462.909 208.499 450.197 189.772 445.203C188.637 444.863 188.183 446.509 189.261 446.792Z" fill="#E8E8E8"/>
<path d="M195.958 453.83C218.544 475.792 235.967 502.748 246.692 532.428C247.09 533.45 248.735 532.996 248.338 531.974C237.499 502.067 219.963 474.827 197.149 452.638C196.412 451.843 195.163 453.035 195.958 453.83Z" fill="#E8E8E8"/>
<path d="M206.003 489.525C210.77 490.036 215.423 491.114 219.85 492.874C224.162 494.576 228.873 496.733 231.597 500.648C232.221 501.556 233.697 500.705 233.072 499.797C230.348 495.881 226.092 493.668 221.779 491.852C216.728 489.696 211.451 488.39 205.946 487.823C204.924 487.709 204.924 489.412 206.003 489.525Z" fill="#E8E8E8"/>
<path d="M214.458 458.426C214.401 464.953 215.48 471.365 217.579 477.551C217.92 478.573 219.566 478.119 219.225 477.097C217.182 471.082 216.161 464.839 216.161 458.426C216.161 457.348 214.458 457.348 214.458 458.426Z" fill="#E8E8E8"/>
<path d="M245.614 489.298C248.395 478.913 257.645 472.727 265.533 466.371C273.932 459.618 282.048 452.411 289.766 444.92C289.312 444.636 288.801 444.352 288.347 444.069C285.793 450.935 285.282 458.143 285.396 465.407C285.509 472.671 287.155 481.013 284.828 488.05C285.112 487.823 285.396 487.653 285.623 487.426C283.807 487.539 281.991 487.709 280.175 487.823C279.607 487.88 279.04 488.561 279.437 489.128C280.742 490.887 282.274 491.455 282.218 494.065C282.218 495.881 281.764 497.981 281.139 499.684C280.515 501.443 278.869 502.635 278.302 504.28C277.848 505.756 278.983 507.004 278.983 508.48C279.04 510.92 277.281 512.963 276.032 514.893C274.84 516.709 273.762 518.581 272.797 520.511C270.868 524.313 269.336 528.229 268.201 532.315C267.917 533.393 269.563 533.847 269.846 532.769C271.265 527.718 273.308 522.838 275.975 518.298C277.791 515.233 281.196 511.658 280.799 507.799C280.629 506.267 279.834 505.813 280.515 504.053C280.572 503.997 281.593 502.635 281.65 502.521C282.728 500.762 283.239 498.776 283.58 496.789C283.807 495.314 284.261 493.498 284.034 492.022C283.693 489.923 282.104 489.752 280.913 488.163C280.686 488.617 280.402 489.015 280.175 489.469C281.991 489.355 283.807 489.185 285.623 489.071C286.02 489.015 286.304 488.844 286.417 488.447C288.574 481.864 287.268 474.203 287.041 467.393C286.814 459.618 287.098 451.787 289.879 444.409C290.219 443.558 289.028 443.047 288.46 443.558C280.231 451.56 271.606 459.221 262.582 466.371C254.864 472.5 246.522 478.743 243.855 488.731C243.685 489.923 245.33 490.377 245.614 489.298Z" fill="#E8E8E8"/>
<path d="M283.466 452.298C277.905 462.002 272.23 471.593 266.895 481.41C261.901 490.49 257.475 499.911 255.375 510.069C255.148 511.147 256.794 511.601 257.021 510.523C259.177 500.138 263.774 490.604 268.881 481.354C274.102 471.876 279.607 462.569 284.942 453.149C285.452 452.241 283.977 451.333 283.466 452.298Z" fill="#E8E8E8"/>
<path d="M266.725 468.074C267.463 471.309 267.803 474.543 267.69 477.835C267.633 478.913 269.336 478.913 269.392 477.835C269.506 474.373 269.165 471.025 268.371 467.62C268.087 466.542 266.498 466.996 266.725 468.074Z" fill="#E8E8E8"/>
<path d="M275.975 457.235C276.599 459.675 276.713 462.059 276.429 464.499C276.316 465.577 278.018 465.577 278.132 464.499C278.472 461.888 278.302 459.335 277.621 456.781C277.337 455.759 275.691 456.213 275.975 457.235Z" fill="#E8E8E8"/>
<path d="M276.372 468.528C279.721 466.541 283.182 464.782 286.758 463.307C287.779 462.91 287.325 461.264 286.304 461.661C282.558 463.193 278.983 465.009 275.464 467.052C274.556 467.62 275.408 469.095 276.372 468.528Z" fill="#E8E8E8"/>
<path d="M261.731 497.016C263.888 495.2 266.044 493.441 268.257 491.739C270.584 489.923 273.138 487.482 275.975 486.347C276.997 485.95 276.543 484.304 275.521 484.702C272.968 485.666 270.868 487.539 268.711 489.242C265.931 491.398 263.207 493.555 260.539 495.825C259.688 496.506 260.88 497.697 261.731 497.016Z" fill="#E8E8E8"/>
<path d="M196.014 465.18C199.987 465.577 203.959 465.974 207.932 466.315C209.01 466.428 209.01 464.726 207.932 464.612C203.959 464.215 199.987 463.818 196.014 463.477C194.936 463.364 194.936 465.066 196.014 465.18Z" fill="#E8E8E8"/>
<path d="M300.151 578.396C371.258 578.396 442.309 578.396 513.417 578.396C533.45 578.396 553.483 578.396 573.515 578.396C574.594 578.396 574.594 576.693 573.515 576.693C502.408 576.693 431.357 576.693 360.249 576.693C340.216 576.693 320.183 576.693 300.151 576.693C299.016 576.693 299.016 578.396 300.151 578.396Z" fill="#E8E8E8"/>
<path d="M540.657 439.358C540.657 447.644 540.657 455.93 540.657 464.215C540.657 465.293 542.36 465.293 542.36 464.215C542.36 455.93 542.36 447.644 542.36 439.358C542.36 438.28 540.657 438.28 540.657 439.358Z" fill="#E8E8E8"/>
<path d="M501.5 468.017C529.023 468.017 556.547 468.017 584.071 468.017C585.149 468.017 585.149 466.314 584.071 466.314C556.547 466.314 529.023 466.314 501.5 466.314C500.421 466.314 500.365 468.017 501.5 468.017Z" fill="#E8E8E8"/>
<path d="M520 468.471C520 475.621 520 482.772 520 489.979C520 491.057 521.703 491.057 521.703 489.979C521.703 482.829 521.703 475.678 521.703 468.471C521.703 467.336 520 467.336 520 468.471Z" fill="#E8E8E8"/>
<path d="M562.563 468.017C562.563 474.316 562.563 480.672 562.563 486.972C562.563 488.05 564.265 488.05 564.265 486.972C564.265 480.672 564.265 474.316 564.265 468.017C564.265 466.939 562.563 466.939 562.563 468.017Z" fill="#E8E8E8"/>
<path d="M535.606 491.625C556.661 491.625 577.715 491.625 598.769 491.625C599.848 491.625 599.848 489.923 598.769 489.923C577.715 489.923 556.661 489.923 535.606 489.923C534.528 489.923 534.528 491.625 535.606 491.625Z" fill="#E8E8E8"/>
<path d="M487.993 594.853C534.472 594.853 580.95 594.853 627.428 594.853C628.506 594.853 628.506 593.151 627.428 593.151C580.95 593.151 534.472 593.151 487.993 593.151C486.915 593.151 486.915 594.853 487.993 594.853Z" fill="#E8E8E8"/>
<path d="M680.205 580.155C725.832 580.155 771.516 580.155 817.143 580.155C829.969 580.155 842.794 580.155 855.62 580.155C856.698 580.155 856.698 578.453 855.62 578.453C809.993 578.453 764.309 578.453 718.682 578.453C705.856 578.453 693.031 578.453 680.205 578.453C679.127 578.453 679.127 580.155 680.205 580.155Z" fill="#E8E8E8"/>
<path d="M114.465 609.211C161.227 609.211 208.045 609.211 254.807 609.211C255.886 609.211 255.886 607.509 254.807 607.509C208.045 607.509 161.227 607.509 114.465 607.509C113.387 607.509 113.387 609.211 114.465 609.211Z" fill="#E8E8E8"/>
<path d="M208.783 626.236C246.976 626.236 285.169 626.236 323.361 626.236C324.44 626.236 324.44 624.534 323.361 624.534C285.169 624.534 246.976 624.534 208.783 624.534C207.648 624.534 207.648 626.236 208.783 626.236Z" fill="#E8E8E8"/>
<path d="M789.392 141.024C789.392 125.19 789.392 109.414 789.392 93.5807C789.392 92.5024 787.69 92.5024 787.69 93.5807C787.69 109.414 787.69 125.19 787.69 141.024C787.69 142.102 789.392 142.102 789.392 141.024Z" fill="#E8E8E8"/>
<path d="M789.109 93.2401C809.595 93.2401 830.082 93.2401 850.569 93.2401C851.647 93.2401 851.647 91.5376 850.569 91.5376C830.082 91.5376 809.595 91.5376 789.109 91.5376C788.03 91.5376 788.03 93.2401 789.109 93.2401Z" fill="#E8E8E8"/>
<path d="M849.718 92.5025C849.604 108.563 849.491 124.623 849.32 140.683C849.32 141.762 851.023 141.762 851.023 140.683C851.136 124.623 851.25 108.563 851.42 92.5025C851.42 91.4243 849.718 91.4243 849.718 92.5025Z" fill="#E8E8E8"/>
<path d="M789.392 141.875C809.595 141.875 829.798 141.875 850.001 141.875C851.08 141.875 851.08 140.172 850.001 140.172C829.798 140.172 809.595 140.172 789.392 140.172C788.314 140.172 788.314 141.875 789.392 141.875Z" fill="#E8E8E8"/>
<path d="M791.038 96.8722C791.038 110.208 791.038 123.488 791.038 136.824C791.038 137.902 792.741 137.902 792.741 136.824C792.741 123.488 792.741 110.208 792.741 96.8722C792.741 95.7939 791.038 95.7939 791.038 96.8722Z" fill="#E8E8E8"/>
<path d="M792.287 97.7235C810.22 97.7235 828.096 97.7235 846.029 97.7235C847.107 97.7235 847.107 96.021 846.029 96.021C828.096 96.021 810.22 96.021 792.287 96.021C791.152 96.021 791.152 97.7235 792.287 97.7235Z" fill="#E8E8E8"/>
<path d="M845.121 97.2696C845.064 110.322 845.007 123.375 844.951 136.484C844.951 137.562 846.653 137.562 846.653 136.484C846.71 123.431 846.767 110.379 846.823 97.2696C846.823 96.1914 845.121 96.1914 845.121 97.2696Z" fill="#E8E8E8"/>
<path d="M792.627 137.902C810.276 137.902 827.926 137.902 845.575 137.902C846.653 137.902 846.653 136.2 845.575 136.2C827.926 136.2 810.276 136.2 792.627 136.2C791.549 136.2 791.549 137.902 792.627 137.902Z" fill="#E8E8E8"/>
<path d="M792.287 126.155C798.813 123.885 805.68 125.928 812.036 127.801C818.505 129.674 824.861 131.944 831.047 134.554C832.068 134.951 832.522 133.306 831.501 132.908C824.634 130.014 817.597 127.574 810.447 125.588C804.374 123.942 797.962 122.353 791.833 124.509C790.811 124.85 791.265 126.496 792.287 126.155Z" fill="#E8E8E8"/>
<path d="M813.852 128.085C824.577 127.46 834.622 123.147 845.235 121.955C846.313 121.842 846.313 120.139 845.235 120.253C834.622 121.445 824.577 125.701 813.852 126.382C812.717 126.496 812.717 128.198 813.852 128.085Z" fill="#E8E8E8"/>
<path d="M834.168 107.314C831.785 105.952 833.941 101.469 836.495 102.547C837.857 103.115 838.141 104.76 837.403 105.952C836.608 107.257 834.963 107.484 833.601 107.087C832.523 106.803 832.068 108.449 833.147 108.733C835.417 109.357 837.97 108.676 839.106 106.463C840.127 104.477 839.332 101.866 837.176 100.958C832.749 99.0853 829.118 106.463 833.317 108.79C834.225 109.3 835.133 107.825 834.168 107.314Z" fill="#E8E8E8"/>
<path d="M816.803 92.1051C816.86 91.1403 816.916 90.1756 817.2 89.2676C817.427 88.5298 817.994 86.7706 818.846 86.4301C820.378 85.8626 820.945 91.2538 821.059 92.2753C821.172 93.3536 822.875 93.3536 822.761 92.2753C822.591 90.2891 822.137 84.0466 818.959 84.5006C817.597 84.6708 816.632 86.2031 816.122 87.3381C815.441 88.8136 815.214 90.4593 815.157 92.0483C815.1 93.1833 816.803 93.1833 816.803 92.1051Z" fill="#E8E8E8"/>
<path d="M826.337 356.844C826.337 363.654 826.337 370.521 826.337 377.331C826.337 378.409 828.039 378.409 828.039 377.331C828.039 370.521 828.039 363.654 828.039 356.844C828.039 355.766 826.337 355.766 826.337 356.844Z" fill="#E8E8E8"/>
<path d="M805.736 379.828C821.172 379.828 836.665 379.828 852.101 379.828C853.179 379.828 853.179 378.125 852.101 378.125C836.665 378.125 821.172 378.125 805.736 378.125C804.658 378.125 804.658 379.828 805.736 379.828Z" fill="#E8E8E8"/>
<path d="M812.263 380.338C812.263 383.573 812.263 386.751 812.263 389.986C812.263 391.064 813.965 391.064 813.965 389.986C813.965 386.751 813.965 383.573 813.965 380.338C813.965 379.26 812.263 379.26 812.263 380.338Z" fill="#E8E8E8"/>
<path d="M837.062 380.849C837.062 384.652 837.062 388.511 837.062 392.313C837.062 393.391 838.765 393.391 838.765 392.313C838.765 388.511 838.765 384.652 838.765 380.849C838.765 379.714 837.062 379.714 837.062 380.849Z" fill="#E8E8E8"/>
<path d="M825.031 394.526C835.757 394.526 846.483 394.526 857.209 394.526C858.287 394.526 858.287 392.823 857.209 392.823C846.483 392.823 835.757 392.823 825.031 392.823C823.953 392.823 823.953 394.526 825.031 394.526Z" fill="#E8E8E8"/>
<path d="M432.378 560.463C450.255 548.375 459.221 542.303 461.548 541.565C467.223 539.749 485.61 533.904 501.67 543.722C513.19 550.759 523.803 566.024 519.376 576.239C516.198 583.503 506.494 585.773 497.698 587.873C484.702 590.938 473.579 589.235 467.336 587.76C464.896 590.143 460.98 593.321 455.475 595.421C446.339 598.939 435.783 598.315 435.272 596.215C435.045 595.137 437.315 593.037 448.325 588.724C447.02 587.306 445.09 585.603 442.366 584.411C434.308 580.723 426.249 584.298 424.717 585.036C432.605 589.632 434.308 592.016 433.91 593.321C432.889 596.613 416.829 597.691 412.516 590.143C412.062 589.405 410.813 586.852 411.835 582.028C413.878 573.175 421.255 568.011 432.378 560.463Z" fill="#161616"/>
<path d="M510.239 573.061C512.055 569.316 520.227 570.224 523.405 570.564C527.491 571.018 531.123 571.416 534.415 574.31C536.912 576.466 540.544 581.177 539.238 584.979C538.047 588.611 533.563 588.327 524.881 592.583C523.405 593.321 509.218 600.301 510.182 604.898C510.58 606.771 513.133 606.714 521.249 610.176C528.286 613.127 532.428 614.943 535.89 618.915C537.593 620.902 540.998 624.817 540.09 628.79C538.387 636.111 523.178 637.359 522.781 636.224C522.44 635.259 533.109 632.592 533.223 627.598C533.336 623.796 527.378 620.732 523.632 618.745C512.623 613.014 505.188 615.056 502.294 609.552C500.648 606.43 501.556 603.082 501.727 602.458C502.578 599.393 504.961 596.783 516.595 590.938C527.207 585.603 531.918 584.355 531.861 581.971C531.804 579.758 527.718 577.942 525.221 577.318C518.184 575.445 513.02 579.871 510.636 577.374C509.615 576.239 509.672 574.31 510.239 573.061Z" fill="#161616"/>
<path d="M413.31 545.595C416.885 548.262 420.461 550.929 424.036 553.596C429.143 553.086 434.194 552.632 439.302 552.121C442.48 549.056 445.658 545.935 448.836 542.871C449.063 544.8 449.517 549.17 449.687 551.27C451.673 570.167 451.843 571.813 450.652 573.97C446.736 580.95 433.513 583.787 425.909 578.907C422.22 576.523 420.801 572.948 418.134 566.081C414.899 557.796 413.764 550.532 413.31 545.595Z" fill="#161616"/>
<path d="M427.725 565.23C426.873 566.989 425.001 568.068 423.071 567.727C422.56 567.614 422.333 568.465 422.844 568.522C425.171 568.919 427.498 567.784 428.462 565.627C428.689 565.173 428.008 564.719 427.725 565.23Z" fill="white"/>
<path d="M435.613 564.662C437.486 566.478 439.983 567.273 442.536 566.876C443.104 566.819 442.82 565.968 442.309 566.081C440.039 566.422 437.826 565.684 436.18 564.095C435.783 563.698 435.216 564.265 435.613 564.662Z" fill="white"/>
<path d="M432.605 570.054C432.435 570.054 432.321 569.997 432.151 569.997C432.208 569.94 432.208 569.827 432.265 569.77C432.378 569.884 432.548 569.997 432.662 570.111C432.662 569.997 432.605 569.94 432.605 569.827C432.435 569.316 431.64 569.543 431.811 570.054C432.094 571.302 432.548 573.232 431.016 573.856C430.505 574.083 430.732 574.878 431.243 574.651C433.286 573.799 433.059 571.586 432.662 569.77C432.378 569.827 432.094 569.94 431.867 569.997C431.867 570.111 431.924 570.167 431.924 570.281C431.981 570.451 432.151 570.621 432.321 570.621C433.797 570.508 432.605 568.465 431.924 569.657C431.64 570.054 432.321 570.508 432.605 570.054Z" fill="white"/>
<path d="M432.038 570.451C432.322 571.416 432.378 572.494 433.003 573.345C433.513 574.026 434.308 574.367 435.159 574.196C435.67 574.083 435.443 573.288 434.932 573.402C433.343 573.742 433.116 571.245 432.832 570.224C432.719 569.713 431.924 569.94 432.038 570.451Z" fill="white"/>
<path d="M429.314 571.245C427.668 570.508 425.965 570.167 424.149 570.281C423.582 570.337 423.582 571.189 424.149 571.132C425.795 571.018 427.384 571.302 428.86 571.983C429.37 572.21 429.824 571.472 429.314 571.245Z" fill="white"/>
<path d="M427.838 572.38C426.419 572.494 425.171 573.061 424.206 574.026C423.809 574.423 424.433 574.991 424.83 574.65C425.682 573.856 426.703 573.345 427.895 573.231C428.349 573.175 428.349 572.323 427.838 572.38Z" fill="white"/>
<path d="M435.953 570.849C437.599 570.224 439.245 569.997 441.004 570.167C441.572 570.224 441.572 569.373 441.004 569.316C439.188 569.146 437.429 569.43 435.726 570.054C435.216 570.224 435.386 571.076 435.953 570.849Z" fill="white"/>
<path d="M437.088 572.38C438.337 572.21 439.529 572.324 440.72 572.778C441.231 572.948 441.458 572.153 440.947 571.983C439.699 571.529 438.394 571.416 437.088 571.586C436.521 571.586 436.521 572.494 437.088 572.38Z" fill="white"/>
<path d="M423.695 562.733C424.547 562.222 425.568 562.222 426.42 562.733C426.874 563.017 427.328 562.279 426.874 561.995C425.739 561.371 424.433 561.371 423.298 561.995C422.788 562.279 423.241 563.017 423.695 562.733Z" fill="white"/>
<path d="M435.613 561.598C436.464 561.144 437.429 561.031 438.45 561.144C438.961 561.201 439.245 560.406 438.677 560.35C437.486 560.179 436.294 560.35 435.216 560.917C434.648 561.087 435.102 561.825 435.613 561.598Z" fill="white"/>
<path d="M422.05 543.778C423.809 543.041 425.568 542.303 427.271 541.508C426.93 541.281 426.646 541.054 426.306 540.771C425.625 542.927 424.603 544.857 423.241 546.673C422.901 547.127 423.468 547.808 423.979 547.637C425.909 546.9 427.838 546.219 429.768 545.481C430.505 545.197 430.222 543.949 429.427 544.232C427.498 544.97 425.568 545.651 423.639 546.389C423.866 546.729 424.093 547.013 424.376 547.354C425.852 545.481 426.873 543.438 427.611 541.168C427.781 540.6 427.157 540.26 426.646 540.43C424.887 541.168 423.128 541.906 421.425 542.7C420.631 543.041 421.312 544.119 422.05 543.778Z" fill="#161616"/>
<path d="M424.887 533.45C426.079 532.769 427.271 532.315 428.576 532.031C428.349 531.691 428.122 531.407 427.838 531.066C427.328 532.201 426.703 533.336 425.965 534.358C425.682 534.812 426.079 535.266 426.533 535.323C428.065 535.436 429.484 535.039 430.676 534.131C431.3 533.62 430.676 532.542 430.052 533.053C429.03 533.847 427.895 534.188 426.59 534.074C426.76 534.415 426.93 534.698 427.157 535.039C427.895 533.961 428.519 532.882 429.03 531.747C429.257 531.237 428.86 530.669 428.292 530.783C426.874 531.066 425.511 531.577 424.263 532.315C423.525 532.769 424.149 533.847 424.887 533.45Z" fill="#161616"/>
<path d="M434.251 547.184C432.378 545.311 435.613 544.233 435.953 542.587C436.294 540.657 434.024 538.841 436.578 537.366C437.315 536.969 436.634 535.834 435.953 536.288C435.045 536.798 434.308 537.593 434.081 538.671C433.74 540.487 435.329 541.565 433.967 543.211C433.343 544.006 432.605 544.233 432.378 545.311C432.151 546.389 432.605 547.297 433.343 548.092C433.967 548.659 434.875 547.751 434.251 547.184Z" fill="#161616"/>
<path d="M590.938 385.162C448.665 395.434 306.393 405.649 164.178 415.921C160.319 312.749 156.46 209.578 152.658 106.406C295.554 104.477 438.45 102.547 581.347 100.618C584.525 195.447 587.703 290.276 590.938 385.162Z" fill="white" stroke="#161616" stroke-width="3.5" stroke-miterlimit="10"/>
<path d="M273.535 156.63C301.116 156.63 328.753 156.63 356.333 156.63C357.411 156.63 357.411 154.927 356.333 154.927C328.753 154.927 301.116 154.927 273.535 154.927C272.457 154.927 272.457 156.63 273.535 156.63Z" fill="#161616"/>
<path d="M304.521 163.61C332.952 163.61 361.384 163.61 389.816 163.61C390.894 163.61 390.894 161.908 389.816 161.908C361.384 161.908 332.952 161.908 304.521 161.908C303.386 161.908 303.386 163.61 304.521 163.61Z" fill="#161616"/>
<path d="M169.909 330.115C170.931 353.836 171.952 377.615 172.974 401.336C173.031 402.414 174.733 402.414 174.676 401.336C173.655 377.615 172.633 353.836 171.612 330.115C171.555 329.037 169.853 329.037 169.909 330.115Z" fill="#161616"/>
<path d="M294.93 316.268C297.37 316.268 299.81 316.268 302.307 316.268C303.385 316.268 303.385 314.565 302.307 314.565C299.867 314.565 297.427 314.565 294.93 314.565C293.852 314.565 293.852 316.268 294.93 316.268Z" fill="#161616"/>
<path d="M308.72 316.268C315.019 316.268 321.262 316.268 327.561 316.268C328.639 316.268 328.639 314.565 327.561 314.565C321.262 314.565 315.019 314.565 308.72 314.565C307.642 314.565 307.642 316.268 308.72 316.268Z" fill="#161616"/>
<path d="M341.805 315.36C349.296 315.36 356.787 315.36 364.335 315.36C365.413 315.36 365.413 313.657 364.335 313.657C356.844 313.657 349.353 313.657 341.805 313.657C340.727 313.657 340.727 315.36 341.805 315.36Z" fill="#161616"/>
<path d="M305.088 328.185C314.281 328.185 323.475 328.185 332.669 328.185C333.747 328.185 333.747 326.483 332.669 326.483C323.475 326.483 314.281 326.483 305.088 326.483C303.953 326.483 303.953 328.185 305.088 328.185Z" fill="#161616"/>
<path d="M318.368 321.772C329.093 321.772 339.819 321.772 350.545 321.772C351.623 321.772 351.623 320.07 350.545 320.07C339.819 320.07 329.093 320.07 318.368 320.07C317.289 320.07 317.289 321.772 318.368 321.772Z" fill="#161616"/>
<path d="M375.344 382.438C393.391 382.438 411.494 382.438 429.541 382.438C430.619 382.438 430.619 380.736 429.541 380.736C411.494 380.736 393.391 380.736 375.344 380.736C374.266 380.736 374.266 382.438 375.344 382.438Z" fill="#161616"/>
<path d="M419.893 387.035C429.371 387.035 438.904 387.035 448.382 387.035C449.46 387.035 449.46 385.333 448.382 385.333C438.904 385.333 429.371 385.333 419.893 385.333C418.815 385.333 418.815 387.035 419.893 387.035Z" fill="#161616"/>
<path d="M444.693 380.112C454.057 380.112 463.364 380.112 472.728 380.112C473.806 380.112 473.806 378.409 472.728 378.409C463.364 378.409 454.057 378.409 444.693 378.409C443.615 378.409 443.615 380.112 444.693 380.112Z" fill="#161616"/>
<path d="M492.476 226.262C509.785 226.262 527.094 226.262 544.403 226.262C545.481 226.262 545.481 224.56 544.403 224.56C527.094 224.56 509.785 224.56 492.476 224.56C491.398 224.56 491.398 226.262 492.476 226.262Z" fill="#161616"/>
<path d="M476.416 228.986C481.921 228.986 487.426 228.986 492.93 228.986C494.009 228.986 494.009 227.284 492.93 227.284C487.426 227.284 481.921 227.284 476.416 227.284C475.281 227.284 475.281 228.986 476.416 228.986Z" fill="#161616"/>
<path d="M479.594 233.583C498.095 233.583 516.652 233.583 535.152 233.583C536.231 233.583 536.231 231.88 535.152 231.88C516.652 231.88 498.095 231.88 479.594 231.88C478.516 231.88 478.516 233.583 479.594 233.583Z" fill="#161616"/>
<path d="M548.091 229.44C551.61 229.44 555.129 229.44 558.647 229.44C559.725 229.44 559.725 227.738 558.647 227.738C555.129 227.738 551.61 227.738 548.091 227.738C546.956 227.738 546.956 229.44 548.091 229.44Z" fill="#161616"/>
<path d="M534.301 298.788C539.522 298.788 544.686 298.788 549.907 298.788C550.986 298.788 550.986 297.086 549.907 297.086C544.686 297.086 539.522 297.086 534.301 297.086C533.166 297.086 533.166 298.788 534.301 298.788Z" fill="#161616"/>
<path d="M524.2 303.386C529.875 303.386 535.55 303.386 541.168 303.386C542.246 303.386 542.246 301.683 541.168 301.683C535.493 301.683 529.818 301.683 524.2 301.683C523.065 301.683 523.065 303.386 524.2 303.386Z" fill="#161616"/>
<path d="M532.428 307.982C543.608 307.982 554.788 307.982 565.968 307.982C567.046 307.982 567.046 306.28 565.968 306.28C554.788 306.28 543.608 306.28 532.428 306.28C531.35 306.28 531.35 307.982 532.428 307.982Z" fill="#161616"/>
<path d="M553.596 302.477C556.945 302.477 560.35 302.477 563.698 302.477C564.776 302.477 564.776 300.775 563.698 300.775C560.35 300.775 556.945 300.775 553.596 300.775C552.461 300.775 552.461 302.477 553.596 302.477Z" fill="#161616"/>
<path d="M319.843 231.71C327.788 231.71 335.676 231.71 343.621 231.71C344.699 231.71 344.699 230.008 343.621 230.008C335.676 230.008 327.788 230.008 319.843 230.008C318.765 230.008 318.765 231.71 319.843 231.71Z" fill="#161616"/>
<path d="M337.152 236.591C348.842 236.591 360.589 236.591 372.28 236.591C373.358 236.591 373.358 234.888 372.28 234.888C360.589 234.888 348.842 234.888 337.152 234.888C336.073 234.888 336.017 236.591 337.152 236.591Z" fill="#161616"/>
<path d="M367.967 230.064C374.607 230.064 381.303 230.064 387.943 230.064C389.021 230.064 389.021 228.362 387.943 228.362C381.303 228.362 374.607 228.362 367.967 228.362C366.889 228.362 366.889 230.064 367.967 230.064Z" fill="#161616"/>
<path d="M164.859 139.491C166.107 182.565 167.356 225.695 168.604 268.768C168.945 281.026 169.285 293.227 169.683 305.485C169.739 306.563 171.442 306.563 171.385 305.485C170.137 262.412 168.888 219.282 167.64 176.209C167.299 163.951 166.959 151.749 166.561 139.491C166.561 138.413 164.859 138.413 164.859 139.491Z" fill="#161616"/>
<path d="M577.375 280.288C578.226 308.777 579.077 337.208 579.928 365.697C579.985 366.775 581.688 366.775 581.631 365.697C580.78 337.208 579.928 308.777 579.077 280.288C579.077 279.21 577.375 279.21 577.375 280.288Z" fill="#161616"/>
<path d="M459.845 267.236C460.186 270.698 460.526 274.216 460.81 277.678C464.101 276.827 467.336 275.919 470.628 275.067C470.174 271.606 469.776 268.087 469.322 264.625C466.144 265.477 463.023 266.385 459.845 267.236Z" fill="#E91E63"/>
<path d="M457.859 293.738C461.264 293.284 464.612 292.887 468.017 292.433C468.471 296.576 468.869 300.719 469.323 304.861C466.258 304.975 463.194 305.088 460.186 305.202C459.391 301.343 458.654 297.541 457.859 293.738Z" fill="#E91E63"/>
<path d="M470.287 318.878C471.366 322.454 472.444 326.086 473.579 329.661C476.643 328.242 479.708 326.823 482.715 325.405C481.751 322.227 480.729 319.105 479.765 315.927C476.643 316.949 473.465 317.914 470.287 318.878Z" fill="#E91E63"/>
<path d="M245.954 352.701C246.692 363.711 247.43 374.72 248.168 385.673C267.463 384.425 286.758 383.233 306.053 381.984C306.393 372.11 306.79 362.179 307.131 352.304C286.758 352.474 266.328 352.588 245.954 352.701Z" fill="#4872C8"/>
<path d="M485.837 128.709C488.062 128.709 489.866 127.21 489.866 125.361C489.866 123.512 488.062 122.013 485.837 122.013C483.611 122.013 481.807 123.512 481.807 125.361C481.807 127.21 483.611 128.709 485.837 128.709Z" fill="#5222D0"/>
<path d="M212.018 153.793C213.867 153.793 215.366 152.802 215.366 151.579C215.366 150.357 213.867 149.366 212.018 149.366C210.169 149.366 208.67 150.357 208.67 151.579C208.67 152.802 210.169 153.793 212.018 153.793Z" fill="#E91E63"/>
<path d="M265.306 217.977C266.748 217.977 267.917 216.605 267.917 214.913C267.917 213.22 266.748 211.848 265.306 211.848C263.865 211.848 262.696 213.22 262.696 214.913C262.696 216.605 263.865 217.977 265.306 217.977Z" fill="#E91E63"/>
<path opacity="0.21" d="M241.358 141.535C242.379 141.365 244.366 150.842 249.246 168.037C255.659 190.68 262.015 208.954 266.612 221.439C259.631 225.752 244.025 233.981 222.744 234.264C207.705 234.435 195.844 230.576 188.807 227.625C202.598 229.157 213.72 228.76 221.495 228.022C233.81 226.887 231.654 225.582 240.961 225.128C244.82 224.957 249.87 224.957 255.035 221.836C256.907 220.701 258.269 219.453 259.177 218.545C255.545 211.054 250.892 200.044 247.146 186.254C241.188 163.838 239.882 141.819 241.358 141.535Z" fill="#6D6C6C"/>
<path opacity="0.25" d="M294.532 203.108C295.44 210.316 297.086 218.374 299.81 227C307.585 251.516 320.694 268.995 330.569 279.778C324.667 284.147 317.346 288.687 308.55 292.49C281.877 304.01 256.964 302.307 243.628 300.264C243.117 297.257 242.606 294.249 242.096 291.241C247.771 291.411 253.786 291.298 260.085 290.957C282.558 289.539 301.853 284.488 317.232 278.87C312.352 270.584 308.834 263.434 306.393 258.042C300.491 245.16 296.121 235.456 294.589 222.347C293.624 214.345 294.022 207.592 294.532 203.108Z" fill="#6D6C6C"/>
<path opacity="0.14" d="M474.941 240.677C475.508 253.616 476.87 264.341 478.062 272.059C480.843 289.765 482.886 302.023 490.15 315.814C494.69 324.383 499.797 330.682 503.486 334.768C497.073 340.273 488.447 346.515 477.381 351.509C449.574 364.165 423.469 361.611 411.267 359.568C410.643 356.787 410.019 354.006 409.395 351.169C410.927 351.282 413.31 351.396 416.205 351.453C425.852 351.68 445.942 352.02 468.982 344.302C475.452 342.146 484.532 338.514 494.747 332.498C490.717 327.107 486.745 320.694 483.283 313.26C469.606 283.92 472.33 255.432 474.941 240.677Z" fill="#6D6C6C"/>
<path opacity="0.18" d="M518.411 113.387C519.546 118.664 521.192 126.723 522.838 136.768C525.902 156.176 525.675 163.213 529.25 174.677C531.123 180.635 534.472 189.091 540.771 198.739C535.493 203.052 528.91 207.535 520.795 211.28C494.236 223.595 468.812 220.133 457.121 217.693C457.235 215.423 457.348 213.153 457.462 210.94C458.937 211.337 461.151 211.848 463.875 212.302C467.45 212.869 480.673 214.799 505.529 208.556C512.396 206.854 521.646 204.13 532.258 199.76C530.215 196.128 527.208 190.453 524.484 183.189C516.539 162.135 516.595 143.861 516.709 134.441C516.766 129.277 517.106 122.069 518.411 113.387Z" fill="#6D6C6C"/>
<path d="M179.16 138.3C173.542 168.037 179.216 198.115 184.891 227.398C185.118 228.476 186.764 228.022 186.537 226.944C180.919 198.001 175.301 168.207 180.805 138.754C180.976 137.733 179.33 137.222 179.16 138.3Z" fill="#161616"/>
<path d="M180.749 138.073C188.864 143.521 198.682 144.486 208.273 143.805C219.225 143.01 230.065 140.683 240.904 138.867C241.982 138.697 241.528 137.051 240.45 137.222C230.065 138.924 219.679 141.137 209.181 141.989C199.59 142.783 189.772 142.045 181.6 136.541C180.692 135.973 179.841 137.449 180.749 138.073Z" fill="#161616"/>
<path d="M239.769 140.059C241.358 167.186 245.444 194.88 259.177 218.715C259.745 219.679 261.22 218.828 260.653 217.863C247.089 194.255 243.06 166.845 241.471 140.059C241.415 138.981 239.712 138.981 239.769 140.059Z" fill="#161616"/>
<path d="M186.31 227.851C199.192 231.597 213.039 229.327 226.149 228.249C237.782 227.284 250.267 226.83 260.255 220.02C261.163 219.396 260.312 217.92 259.404 218.544C249.359 225.411 236.761 225.638 225.07 226.603C212.472 227.624 199.192 229.724 186.764 226.149C185.686 225.922 185.232 227.568 186.31 227.851Z" fill="#161616"/>
<path d="M208.102 151.92C206.967 151.409 208.216 150.331 208.897 150.161C209.748 149.934 211.394 149.82 211.791 150.785C212.075 151.523 211.621 152.488 210.94 152.771C209.861 153.282 208.67 152.658 207.932 151.92C207.137 151.126 205.946 152.317 206.74 153.112C208.159 154.531 210.486 155.268 212.245 153.963C213.664 152.942 214.174 150.672 212.983 149.31C211.621 147.777 208.726 147.948 207.194 149.083C205.832 150.104 205.548 152.544 207.308 153.339C208.272 153.85 209.124 152.374 208.102 151.92Z" fill="#161616"/>
<path d="M230.859 228.078C226.773 248.792 231.143 269.733 235.569 290.049C235.796 291.128 237.442 290.674 237.215 289.595C232.845 269.619 228.532 248.962 232.505 228.532C232.732 227.454 231.086 227 230.859 228.078Z" fill="#161616"/>
<path d="M254.297 206.343C267.406 203.846 280.685 202.938 293.965 203.449C293.681 203.165 293.397 202.882 293.114 202.598C290.446 229.951 302.137 256 316.324 278.643C316.892 279.551 318.367 278.7 317.8 277.792C303.783 255.375 292.149 229.668 294.816 202.598C294.873 202.144 294.362 201.747 293.965 201.747C280.515 201.236 267.065 202.201 253.843 204.698C252.764 204.925 253.218 206.57 254.297 206.343Z" fill="#161616"/>
<path d="M236.477 291.241C264.058 294.476 292.035 290.333 317.573 279.437C318.594 278.983 317.686 277.565 316.722 277.962C291.525 288.744 263.717 292.717 236.477 289.539C235.399 289.425 235.399 291.128 236.477 291.241Z" fill="#161616"/>
<path d="M264.966 213.323C264.966 213.267 265.136 212.983 265.136 212.869C265.193 212.642 265.363 212.415 265.533 212.245C265.874 211.961 266.271 211.734 266.725 211.678C267.576 211.564 268.371 212.018 268.598 212.869C268.768 213.55 268.484 214.458 267.69 214.572C266.952 214.685 266.271 214.175 266.157 213.437C265.987 212.359 264.341 212.813 264.512 213.891C264.795 215.877 267.349 216.842 268.995 215.877C270.811 214.799 270.697 212.018 269.165 210.713C267.463 209.294 264.625 210.032 263.66 211.961C263.206 212.926 263.206 214.231 264.285 214.799C265.136 215.253 266.384 214.856 266.611 213.777C266.782 212.699 265.136 212.245 264.966 213.323Z" fill="#161616"/>
<path d="M184.778 169.172C199.874 171.272 214.856 168.151 229.327 164.008C230.405 163.724 229.951 162.079 228.873 162.362C214.685 166.392 199.987 169.57 185.232 167.527C184.154 167.356 183.7 169.002 184.778 169.172Z" fill="#161616"/>
<path d="M187.616 180.295C195.447 181.146 203.279 180.352 210.826 177.968C211.848 177.628 211.451 175.982 210.372 176.322C202.995 178.649 195.334 179.387 187.616 178.592C186.537 178.479 186.537 180.181 187.616 180.295Z" fill="#161616"/>
<path d="M187.616 194.028C202.598 195.788 217.693 194.709 232.221 190.907C233.299 190.623 232.845 188.978 231.767 189.261C217.353 193.064 202.427 194.085 187.616 192.326C186.537 192.156 186.537 193.858 187.616 194.028Z" fill="#161616"/>
<path d="M243.685 281.14C258.723 281.821 273.762 280.005 288.176 275.692C289.198 275.408 288.801 273.762 287.722 274.046C273.421 278.302 258.61 280.118 243.685 279.437C242.55 279.38 242.55 281.083 243.685 281.14Z" fill="#161616"/>
<path d="M246.579 268.144C253.275 267.917 259.972 267.406 266.668 266.668C267.747 266.555 267.747 264.852 266.668 264.966C259.972 265.704 253.332 266.214 246.579 266.441C245.501 266.498 245.501 268.201 246.579 268.144Z" fill="#161616"/>
<path d="M252.027 244.763C256.453 245.331 261.05 244.196 265.42 243.571C270.243 242.834 275.01 242.153 279.834 241.415C280.912 241.245 280.458 239.599 279.38 239.769C274.954 240.45 270.47 241.131 266.044 241.755C261.447 242.436 256.68 243.685 252.027 243.061C250.948 242.89 250.948 244.593 252.027 244.763Z" fill="#161616"/>
<path d="M452.581 117.53C446.395 147.891 445.771 179.103 450.708 209.692C450.879 210.77 452.524 210.316 452.354 209.238C447.474 178.99 448.155 148.004 454.227 117.984C454.454 116.905 452.808 116.451 452.581 117.53Z" fill="#161616"/>
<path d="M454.511 117.927C475.111 113.217 496.392 112.252 517.39 115.089C518.468 115.26 518.922 113.614 517.844 113.444C496.562 110.549 474.997 111.514 454.057 116.281C453.035 116.565 453.489 118.211 454.511 117.927Z" fill="#161616"/>
<path d="M516.879 113.557C516.255 142.783 516.652 173.655 531.464 199.817C532.031 200.782 533.45 199.931 532.939 198.966C518.298 173.088 517.957 142.5 518.581 113.557C518.638 112.479 516.936 112.479 516.879 113.557Z" fill="#161616"/>
<path d="M452.014 210.599C458.37 212.529 465.18 212.642 471.763 212.699C478.857 212.756 485.95 212.302 493.044 211.337C506.607 209.521 519.83 205.832 532.485 200.498C533.507 200.101 532.599 198.625 531.634 199.022C518.979 204.357 505.643 207.989 492.023 209.748C485.667 210.543 479.254 210.997 472.841 210.94C466.088 210.94 458.994 210.883 452.525 208.897C451.39 208.67 450.992 210.316 452.014 210.599Z" fill="#161616"/>
<path d="M486.745 119.743C484.815 120.424 483.964 122.637 484.645 124.51C485.439 126.609 487.88 127.12 489.696 125.872C491.455 124.623 492.022 122.126 490.32 120.537C488.844 119.175 486.291 119.118 484.929 120.594C484.191 121.388 485.383 122.58 486.12 121.786C487.823 119.97 491.171 122.523 488.844 124.339C487.936 125.02 486.631 125.02 486.234 123.829C485.95 122.921 486.234 121.672 487.199 121.332C488.22 120.991 487.766 119.345 486.745 119.743Z" fill="#161616"/>
<path d="M453.432 143.918C468.925 144.315 484.361 144.032 499.797 143.01C500.876 142.953 500.876 141.251 499.797 141.308C484.361 142.329 468.868 142.67 453.432 142.216C452.297 142.216 452.297 143.918 453.432 143.918Z" fill="#161616"/>
<path d="M454.965 152.544C460.753 152.771 466.542 152.998 472.274 153.225C473.352 153.282 473.352 151.579 472.274 151.523C466.485 151.296 460.697 151.069 454.965 150.842C453.83 150.785 453.83 152.487 454.965 152.544Z" fill="#161616"/>
<path d="M453.376 164.575C467.96 165.37 482.715 166.051 497.073 162.873C498.151 162.646 497.697 161 496.619 161.227C482.375 164.348 467.79 163.667 453.376 162.873C452.297 162.816 452.297 164.518 453.376 164.575Z" fill="#161616"/>
<path d="M241.812 349.069C240.507 360.419 240.053 371.826 240.45 383.233C240.507 384.311 242.209 384.311 242.152 383.233C241.755 371.826 242.209 360.419 243.514 349.069C243.628 347.991 241.925 347.991 241.812 349.069Z" fill="#161616"/>
<path d="M242.379 349.751C262.582 349.751 282.842 349.467 303.045 348.843C304.123 348.786 304.123 347.083 303.045 347.14C282.842 347.764 262.582 348.048 242.379 348.048C241.301 348.048 241.301 349.751 242.379 349.751Z" fill="#161616"/>
<path d="M302.875 348.048C303.045 357.922 303.215 367.74 303.385 377.615C303.385 378.693 305.088 378.693 305.088 377.615C304.918 367.74 304.748 357.922 304.577 348.048C304.577 346.97 302.818 346.97 302.875 348.048Z" fill="#161616"/>
<path d="M240.279 381.985C240.393 385.674 246.806 384.028 248.905 383.914C254.921 383.517 260.936 383.12 266.895 382.666C279.096 381.815 291.298 381.02 303.499 380.169C304.577 380.112 304.577 378.409 303.499 378.466C293.114 379.147 282.785 379.885 272.4 380.566C267.463 380.906 262.525 381.247 257.588 381.588C256.113 381.701 241.982 383.063 241.925 381.985C241.982 380.906 240.279 380.906 240.279 381.985Z" fill="#161616"/>
<path d="M246.976 357.412C260.596 356.788 274.216 357.298 287.722 359.001C288.801 359.114 288.801 357.412 287.722 357.298C274.216 355.596 260.596 355.085 246.976 355.709C245.841 355.766 245.841 357.469 246.976 357.412Z" fill="#161616"/>
<path d="M247.487 366.038C255.091 365.47 262.753 364.846 270.357 364.279C271.435 364.222 271.435 362.519 270.357 362.576C262.753 363.144 255.091 363.768 247.487 364.335C246.409 364.392 246.409 366.095 247.487 366.038Z" fill="#161616"/>
<path d="M250.04 374.72C260.993 373.302 272.911 370.407 283.92 372.394C284.998 372.564 285.453 370.975 284.374 370.748C273.138 368.705 261.22 371.542 250.04 373.018C249.019 373.188 248.962 374.891 250.04 374.72Z" fill="#161616"/>
<path d="M397.647 252.481C388.624 284.601 389.759 318.992 400.825 350.488C401.166 351.51 402.812 351.056 402.471 350.034C391.518 318.822 390.383 284.772 399.293 252.935C399.577 251.857 397.931 251.403 397.647 252.481Z" fill="#161616"/>
<path d="M398.782 253.048C424.036 252.935 449.176 249.643 473.636 243.231C474.714 242.947 474.26 241.301 473.182 241.585C448.893 247.941 423.923 251.232 398.782 251.346C397.647 251.346 397.647 253.048 398.782 253.048Z" fill="#161616"/>
<path d="M473.181 242.209C472.16 257.986 472.841 273.876 475.679 289.482C477.097 297.37 478.8 305.258 481.921 312.636C485.042 319.957 489.355 326.596 494.406 332.669C495.087 333.52 496.335 332.328 495.598 331.477C490.433 325.291 486.064 318.424 482.999 310.933C480.105 303.783 478.516 296.122 477.211 288.574C474.487 273.308 473.863 257.702 474.827 242.209C474.941 241.131 473.238 241.131 473.181 242.209Z" fill="#161616"/>
<path d="M401.052 351.396C433.173 353.667 466.712 350.034 494.86 333.463C495.825 332.896 494.974 331.42 494.009 331.988C466.031 348.445 432.832 351.907 401.052 349.694C399.974 349.58 399.974 351.283 401.052 351.396Z" fill="#161616"/>
<path d="M435.216 258.156C434.251 256.51 436.181 254.467 437.826 255.773C439.586 257.191 437.713 259.461 435.84 258.724C434.819 258.326 434.365 259.972 435.386 260.369C436.918 260.993 438.791 260.312 439.699 258.951C440.72 257.418 440.266 255.489 438.848 254.411C435.783 251.97 431.924 255.773 433.74 259.007C434.308 259.972 435.783 259.121 435.216 258.156Z" fill="#161616"/>
<path d="M399.35 277.735C416.318 277.451 433.286 276.259 450.198 274.216C451.276 274.103 451.276 272.4 450.198 272.514C433.343 274.613 416.375 275.748 399.35 276.032C398.272 276.089 398.272 277.791 399.35 277.735Z" fill="#161616"/>
<path d="M456.27 266.328C456.781 268.938 457.292 271.606 457.802 274.216C458.029 275.294 459.675 274.84 459.448 273.762C458.937 271.152 458.427 268.484 457.916 265.874C457.746 264.796 456.1 265.25 456.27 266.328Z" fill="#161616"/>
<path d="M457.405 266.101C460.526 265.647 463.648 265.193 466.825 264.682C467.904 264.512 467.45 262.866 466.371 263.037C463.25 263.491 460.129 263.945 456.951 264.456C455.873 264.626 456.327 266.272 457.405 266.101Z" fill="#161616"/>
<path d="M466.315 264.171C466.769 266.612 467.166 269.052 467.62 271.435C467.79 272.514 469.436 272.06 469.266 270.981C468.812 268.541 468.414 266.101 467.96 263.717C467.79 262.696 466.144 263.15 466.315 264.171Z" fill="#161616"/>
<path d="M459.221 275.522C462.569 274.841 465.747 273.933 468.925 272.684C469.947 272.287 469.493 270.641 468.471 271.038C465.293 272.23 462.058 273.195 458.767 273.876C457.689 274.103 458.143 275.749 459.221 275.522Z" fill="#161616"/>
<path d="M459.505 268.03C460.129 269.449 460.98 270.584 462.229 271.549C462.683 271.889 463.534 271.889 463.648 271.151C464.102 268.087 465.18 265.363 466.996 262.809C467.62 261.901 466.145 261.05 465.52 261.958C463.648 264.568 462.456 267.519 462.002 270.697C462.456 270.584 462.967 270.47 463.421 270.3C462.342 269.449 461.548 268.427 460.98 267.122C460.526 266.157 459.051 267.009 459.505 268.03Z" fill="#161616"/>
<path d="M460.129 292.376C459.221 296.462 459.618 300.435 461.264 304.237C461.718 305.259 463.137 304.351 462.74 303.386C461.264 300.038 460.98 296.406 461.775 292.83C462.002 291.752 460.356 291.298 460.129 292.376Z" fill="#161616"/>
<path d="M461.264 292.944C464.669 292.377 468.074 291.866 471.479 291.298C471.138 290.958 470.798 290.617 470.457 290.277C469.89 293.909 470.287 297.371 471.706 300.775C472.103 301.797 473.749 301.343 473.352 300.321C472.046 297.257 471.592 294.022 472.103 290.731C472.217 290.05 471.763 289.596 471.082 289.709C467.677 290.22 464.272 290.788 460.867 291.355C459.732 291.469 460.186 293.114 461.264 292.944Z" fill="#161616"/>
<path d="M462.002 304.294C465.747 304.18 469.323 303.442 472.841 302.194C473.863 301.797 473.409 300.151 472.387 300.548C469.039 301.797 465.577 302.478 462.002 302.591C460.923 302.591 460.923 304.294 462.002 304.294Z" fill="#161616"/>
<path d="M462.512 296.405C463.023 297.881 463.874 298.902 465.237 299.697C465.861 300.037 466.428 299.583 466.542 298.959C466.882 295.951 467.677 293.057 468.925 290.276C469.379 289.312 467.904 288.404 467.45 289.425C466.088 292.49 465.236 295.668 464.839 298.959C465.293 298.732 465.691 298.448 466.145 298.221C465.18 297.654 464.612 296.973 464.215 295.895C463.818 294.93 462.172 295.384 462.512 296.405Z" fill="#161616"/>
<path d="M463.647 318.708C464.045 322.51 465.066 326.086 466.769 329.491C467.223 330.455 468.698 329.604 468.244 328.639C466.712 325.518 465.747 322.17 465.407 318.708C465.236 317.63 463.534 317.63 463.647 318.708Z" fill="#161616"/>
<path d="M464.442 318.538C468.812 318.935 472.898 318.141 476.813 316.211C476.416 316.041 475.962 315.871 475.565 315.701C476.303 319.162 477.835 322.17 480.218 324.837C480.956 325.632 482.148 324.44 481.41 323.646C479.254 321.205 477.892 318.481 477.211 315.303C477.097 314.736 476.416 314.566 475.962 314.793C472.33 316.552 468.471 317.233 464.442 316.892C463.364 316.779 463.364 318.481 464.442 318.538Z" fill="#161616"/>
<path d="M468.301 330.115C472.728 328.469 477.097 326.71 481.354 324.78C482.375 324.326 481.467 322.851 480.502 323.305C476.36 325.178 472.103 326.88 467.847 328.469C466.826 328.866 467.28 330.512 468.301 330.115Z" fill="#161616"/>
<path d="M467.393 321.546C468.755 322.737 471.876 326.823 473.465 323.816C474.203 322.454 474.033 320.581 474.487 319.049C475.168 316.892 476.303 314.906 477.778 313.203C478.459 312.352 477.267 311.16 476.586 312.012C474.997 313.884 473.749 315.927 473.011 318.311C472.671 319.389 472.387 320.524 472.217 321.659C471.99 323.078 471.592 322.737 470.514 322.056C469.833 321.602 469.209 320.921 468.585 320.354C467.79 319.616 466.598 320.808 467.393 321.546Z" fill="#161616"/>
<path d="M400.882 305.486C416.772 305.315 432.605 304.01 448.268 301.513C449.346 301.343 448.892 299.697 447.814 299.867C432.265 302.308 416.602 303.613 400.882 303.726C399.804 303.783 399.804 305.486 400.882 305.486Z" fill="#161616"/>
<path d="M399.066 282.445C409.338 282.729 419.553 282.388 429.768 281.537C430.846 281.424 430.846 279.721 429.768 279.835C419.553 280.686 409.281 280.97 399.066 280.743C397.988 280.686 397.988 282.388 399.066 282.445Z" fill="#161616"/>
<path d="M401.506 308.834C412.289 309.345 423.071 308.947 433.74 307.585C434.819 307.472 434.819 305.769 433.74 305.883C423.015 307.188 412.232 307.642 401.506 307.131C400.428 307.075 400.428 308.777 401.506 308.834Z" fill="#161616"/>
<path d="M437.372 306.791C440.437 306.847 443.445 306.45 446.396 305.485C447.417 305.145 446.963 303.499 445.942 303.84C443.161 304.748 440.323 305.145 437.372 305.088C436.294 305.088 436.294 306.791 437.372 306.791Z" fill="#161616"/>
<path d="M407.295 330.172C420.234 329.377 433.116 328.186 445.942 326.426C447.02 326.256 447.02 324.554 445.942 324.724C433.116 326.426 420.234 327.675 407.295 328.469C406.16 328.526 406.16 330.229 407.295 330.172Z" fill="#161616"/>
<path d="M408.77 334.144C413.027 334.144 417.283 334.144 421.539 334.144C422.617 334.144 422.617 332.442 421.539 332.442C417.283 332.442 413.027 332.442 408.77 332.442C407.692 332.442 407.692 334.144 408.77 334.144Z" fill="#161616"/>
<path d="M412.459 337.946C419.099 337.549 425.739 336.925 432.378 336.13C437.713 335.449 443.444 335.166 448.041 332.044C448.949 331.42 448.098 329.945 447.19 330.569C442.366 333.86 435.897 334.031 430.278 334.655C424.376 335.336 418.418 335.847 412.516 336.244C411.381 336.301 411.324 338.003 412.459 337.946Z" fill="#161616"/>
<path d="M477.268 292.092C487.596 291.582 497.868 290.22 508.026 288.063C507.686 287.893 507.345 287.666 507.005 287.496C511.772 301.683 518.808 314.906 527.832 326.88C528.456 327.731 529.988 326.88 529.307 326.029C520.397 314.225 513.417 301.116 508.65 287.098C508.48 286.644 508.083 286.417 507.629 286.531C497.641 288.687 487.539 289.993 477.324 290.503C476.132 290.447 476.133 292.149 477.268 292.092Z" fill="#161616"/>
<path d="M479.027 339.989C480.559 342.146 481.808 344.416 482.886 346.856C482.999 347.197 483.51 347.367 483.85 347.253C492.193 344.473 500.421 341.408 508.48 337.946C512.566 336.187 516.595 334.371 520.625 332.442C522.554 331.534 524.483 330.569 526.356 329.604C527.491 329.037 528.796 328.696 529.194 327.448C529.307 327.107 529.137 326.653 528.796 326.483C528.286 326.199 528.002 326.199 527.491 326.483C527.151 326.653 526.98 327.107 527.094 327.448C527.094 327.504 527.151 327.561 527.151 327.618C527.435 328.696 529.08 328.242 528.796 327.164C528.796 327.107 528.74 327.05 528.74 326.994C528.626 327.334 528.456 327.618 528.342 327.958C528.229 327.958 528.059 327.958 527.945 327.958C527.832 327.618 527.661 327.334 527.548 326.994C527.207 328.015 523.632 329.093 522.667 329.604C521.078 330.399 519.489 331.136 517.844 331.931C514.041 333.747 510.182 335.449 506.267 337.095C498.776 340.273 491.114 343.111 483.396 345.664C483.737 345.778 484.021 345.948 484.361 346.062C483.34 343.621 482.035 341.351 480.502 339.195C479.878 338.23 478.402 339.081 479.027 339.989Z" fill="#161616"/>
<path d="M488.901 296.519C488.788 295.781 490.15 295.1 490.661 295.611C491.342 296.292 490.207 297.541 489.412 297.257C488.391 296.86 487.937 298.505 488.958 298.903C491.398 299.811 493.782 296.292 491.909 294.419C491.058 293.568 489.753 293.625 488.731 294.136C487.653 294.703 487.085 295.781 487.312 296.973C487.426 298.051 489.072 297.541 488.901 296.519Z" fill="#161616"/>
<path d="M237.442 251.119C243.741 251.233 250.097 250.949 256.34 250.098C262.866 249.19 269.335 247.317 275.975 247.601C277.054 247.657 277.054 245.955 275.975 245.898C269.903 245.671 264.001 247.203 258.042 248.111C251.232 249.19 244.309 249.587 237.385 249.417C236.364 249.417 236.364 251.119 237.442 251.119Z" fill="#161616"/>
<path d="M238.35 232.335C247.998 233.073 257.645 232.221 267.009 229.781C268.087 229.497 267.633 227.852 266.555 228.135C257.305 230.519 247.884 231.37 238.35 230.632C237.272 230.576 237.272 232.278 238.35 232.335Z" fill="#161616"/>
<path d="M456.724 184.551C455.759 190.794 454.965 197.547 458.88 202.995C459.505 203.903 460.98 203.052 460.356 202.144C456.724 197.093 457.518 190.794 458.37 185.005C458.54 183.927 456.894 183.473 456.724 184.551Z" fill="#161616"/>
<path d="M457.235 184.495C470.741 185.005 484.248 183.7 497.414 180.579C497.073 180.409 496.733 180.182 496.392 180.011C497.584 185.857 499.854 191.305 503.032 196.299C503.599 197.207 505.075 196.355 504.507 195.447C501.386 190.567 499.23 185.232 498.038 179.557C497.924 179.103 497.414 178.876 497.016 178.99C484.021 182.054 470.684 183.36 457.291 182.849C456.156 182.735 456.156 184.438 457.235 184.495Z" fill="#161616"/>
<path d="M460.299 202.938C474.941 202.484 489.412 200.328 503.486 196.469C504.564 196.185 504.11 194.539 503.032 194.823C489.072 198.682 474.771 200.838 460.299 201.236C459.164 201.292 459.164 202.995 460.299 202.938Z" fill="#161616"/>
<path d="M660.4 599.337C660.4 605.75 660.4 612.106 660.4 618.518C615 636.508 605.749 642.921 606.43 645.248C606.601 645.815 607.792 647.518 631.627 644.737C655.236 641.956 674.36 637.927 687.64 634.635C685.313 621.526 682.93 608.417 680.603 595.308C673.85 596.67 667.096 598.032 660.4 599.337Z" fill="#161616"/>
<path d="M680.773 327.902C679.468 330.342 679.014 332.328 678.9 332.782C670.785 367.286 660.173 387.659 653.249 427.668C640.027 504.734 651.433 592.3 652.512 600.528C656.144 602.117 663.124 604.501 672.033 604.16C679.865 603.82 685.937 601.493 689.399 599.847C688.094 574.707 689.399 543.665 698.082 509.445C708.694 467.506 722.144 453.603 734.232 404.571C743.198 368.251 753.583 325.972 735.65 313.43C721.917 303.669 689.74 310.82 680.773 327.902Z" fill="#E91E63"/>
<path opacity="0.2" d="M712.156 346.005C703.076 387.432 694.62 431.584 687.47 478.289C680.716 522.214 675.665 564.265 671.92 604.217C677.652 603.026 683.327 601.834 689.058 600.642C688.321 582.993 689.115 567.954 690.25 556.434C691.612 542.133 695.074 508.821 708.978 475.565C710.794 471.309 713.121 466.145 716.923 456.44C723.336 440.38 727.989 426.647 730.089 420.177C739.963 389.305 744.901 353.496 746.433 341.692C734.969 343.054 723.563 344.529 712.156 346.005Z" fill="#6D6C6C"/>
<path opacity="0.19" d="M730.883 418.134C708.637 447.133 698.252 473.408 693.031 491.058C688.264 507.118 686.164 521.305 683.44 539.692C679.581 565.797 678.106 587.816 677.482 603.479C681.227 602.571 684.916 601.607 688.661 600.699C688.037 578.736 689.569 559.952 691.442 545.311C693.712 527.945 696.323 507.799 705.403 483.567C708.694 474.77 710.283 472.273 717.774 453.262C723.563 438.394 727.989 426.192 730.883 418.134Z" fill="#6D6C6C"/>
<path d="M782.98 592.81C786.158 600.699 789.392 608.587 792.57 616.532C765.898 633.5 753.299 643.375 754.718 646.269C756.477 649.844 779.518 642.75 823.84 625.101C819.129 609.779 814.419 594.513 809.709 579.19C800.799 583.73 791.889 588.27 782.98 592.81Z" fill="#161616"/>
<path d="M761.074 328.582C774.978 341.294 774.524 359.114 776.283 388.624C776.283 388.624 780.596 461.207 795.068 519.546C798.7 534.131 805.283 556.774 817.484 583.901C815.441 586.511 809.879 592.867 800.118 596.215C790.13 599.62 781.618 597.804 778.44 596.953C761.074 567.33 748.76 542.076 740.815 524.597C703.984 443.898 701.033 401.393 701.033 379.203C701.033 356.39 701.43 329.036 718.398 319.9C731.167 313.033 749.894 318.367 761.074 328.582Z" fill="#E91E63"/>
<path opacity="0.15" d="M721.69 337.265C727.989 361.497 734.799 386.127 742.063 411.097C761.017 475.905 781.618 537.139 803.239 594.57C805.339 593.491 807.893 592.016 810.503 590.03C813.171 587.987 815.271 585.944 816.859 584.128C813.909 577.261 809.822 567.33 805.509 555.128C798.983 536.458 788.371 502.124 782.866 456.383C777.588 412.459 774.921 390.497 775.148 376.65C775.318 365.243 776.34 342.032 761.585 329.547C758.52 326.993 755.513 325.461 753.413 324.553C742.801 328.809 732.245 333.066 721.69 337.265Z" fill="#6D6C6C"/>
<path opacity="0.22" d="M775.829 391.404C773.219 417.793 772.367 453.148 778.723 494.008C785.136 535.095 796.77 568.635 807.269 593.037C810.504 590.37 813.738 587.703 816.973 584.979C813.114 575.842 808.063 563.13 803.013 547.58C793.308 517.673 789.109 494.349 785.477 473.408C781.788 451.957 777.929 424.206 775.829 391.404Z" fill="#6D6C6C"/>
<path d="M510.126 121.275C507.856 122.41 504.734 124.396 502.294 127.801C500.989 129.56 499.4 131.887 499.173 135.179C499.116 136.484 498.946 139.321 500.762 141.194C501.273 141.762 502.635 142.84 509.331 142.613C515.29 142.386 518.298 142.272 519.83 140.683C522.781 137.619 521.703 131.83 519.83 128.369C516.879 122.864 511.09 121.502 510.126 121.275Z" fill="white" stroke="#161616" stroke-width="2" stroke-miterlimit="10"/>
<path d="M544.403 135.519C552.404 144.656 565.23 150.104 588.781 159.808C618.461 172.066 633.33 178.195 650.922 180.351C669.934 182.678 680.092 180.238 683.61 186.424C688.207 194.425 677.425 209.407 666.302 221.949C658.016 220.133 649.447 217.863 640.594 214.912C592.073 198.852 557.001 170.59 533.961 147.096C531.066 147.72 526.129 148.344 520.511 146.642C515.687 145.223 508.877 141.591 509.274 138.697C509.785 135.178 522.1 134.554 522.838 134.497C519.092 132.965 513.701 130.355 507.856 126.098C506.153 124.85 496.392 117.643 497.584 115.373C498.605 113.386 507.458 116.11 515.801 118.664C523.405 120.991 528.683 122.637 534.471 126.609C540.033 130.355 543.268 134.214 544.403 135.519Z" fill="white" stroke="#161616" stroke-width="2" stroke-miterlimit="10"/>
<path d="M505.132 121.899C506.494 123.431 506.777 125.474 507.969 127.063C508.991 128.482 510.466 129.503 511.999 130.354C516.595 132.908 521.476 135.008 526.186 137.335C526.98 137.732 528.002 136.654 527.207 135.973C524.767 133.873 522.157 132 519.433 130.298C518.525 129.73 517.617 131.206 518.581 131.773C521.192 133.419 523.689 135.178 526.016 137.164C526.356 136.71 526.697 136.256 527.037 135.802C522.554 133.646 518.071 131.546 513.644 129.219C511.544 128.141 509.672 126.893 508.594 124.736C507.856 123.261 507.459 121.842 506.324 120.593C505.586 119.912 504.394 121.104 505.132 121.899Z" fill="white"/>
<path d="M509.558 127.858C512.169 128.993 514.666 130.468 516.936 132.227C517.787 132.908 518.979 131.717 518.128 131.036C515.744 129.163 513.19 127.631 510.409 126.382C509.388 125.928 508.537 127.404 509.558 127.858Z" fill="white"/>
<path d="M502.862 120.877C505.018 124.339 507.856 127.177 511.204 129.447C512.112 130.071 512.963 128.595 512.055 127.971C508.934 125.871 506.323 123.204 504.337 119.969C503.77 119.118 502.294 119.969 502.862 120.877Z" fill="white"/>
<path d="M505.415 125.531C506.55 127.063 507.799 128.482 509.218 129.731C510.239 130.639 514.722 133.873 512.396 135.519C511.942 135.803 512.396 136.541 512.85 136.257C514.439 135.179 513.814 133.249 512.85 131.944C512.112 130.979 511.09 130.241 510.126 129.39C508.65 128.085 507.345 126.666 506.153 125.134C505.813 124.623 505.075 125.077 505.415 125.531Z" fill="#161616"/>
<path d="M504.224 131.433C505.926 133.759 509.161 137.051 512.339 136.086C512.85 135.916 512.623 135.121 512.112 135.292C509.388 136.143 506.38 133.022 504.962 131.035C504.621 130.581 503.883 130.979 504.224 131.433Z" fill="#161616"/>
<path d="M501.727 135.405C503.599 137.959 506.323 139.434 509.501 139.605C510.069 139.661 510.069 138.81 509.501 138.753C506.664 138.583 504.167 137.221 502.464 134.951C502.124 134.497 501.386 134.951 501.727 135.405Z" fill="#161616"/>
<path d="M499.911 140.513C502.578 143.293 507.005 143.35 509.672 140.513C510.069 140.115 509.445 139.491 509.048 139.888C506.721 142.385 502.862 142.329 500.535 139.888C500.138 139.491 499.514 140.115 499.911 140.513Z" fill="#161616"/>
<path d="M500.478 120.764C506.777 124.906 511.317 131.887 519.206 133.249C519.716 133.362 520 132.511 519.433 132.454C511.658 131.149 507.118 124.169 500.932 120.083C500.421 119.685 500.024 120.423 500.478 120.764Z" fill="#161616"/>
<path opacity="0.2" d="M499.797 139.321C497.754 136.54 499.457 130.582 504.394 124.963C509.955 128.198 515.46 131.49 521.022 134.724C520 134.724 511.034 134.838 510.41 137.619C510.296 138.073 510.41 138.754 511.261 139.718C514.098 141.08 518.865 142.896 524.994 143.067C528.172 143.123 530.953 142.726 533.11 142.215C544.687 153.906 565.06 171.555 595.024 184.381C621.356 195.617 644.964 198.852 660.57 199.76C660.059 206.456 659.549 213.096 659.038 219.793C633.33 212.983 598.485 200.044 563.868 174.052C552.064 165.199 541.962 156.062 533.336 147.266C525.391 148.571 520.454 147.209 517.333 145.62C514.666 144.258 512.963 142.556 509.445 142.272C507.118 142.102 505.132 142.669 502.578 141.421C502.294 141.307 500.648 140.456 499.797 139.321Z" fill="#6D6C6C"/>
<path opacity="0.14" d="M572.891 179.387C580.836 183.643 590.03 187.956 600.528 191.645C623.399 199.76 644.113 202.314 659.946 202.881C659.719 208.67 659.549 214.515 659.322 220.303C642.864 216.444 622.207 209.691 600.302 197.433C589.803 191.588 580.723 185.402 572.891 179.387Z" fill="#6D6C6C"/>
<path d="M662.613 195.56C659.378 202.881 659.208 208.953 658.924 219.849C658.697 228.078 659.265 236.931 663.691 260.199C669.082 288.347 671.636 292.887 672.487 307.812C673.168 319.502 672.26 329.093 671.409 335.449C678.56 339.365 690.534 344.699 706.197 345.891C733.891 347.991 754.378 335.79 761.415 331.136C762.266 313.317 763.117 295.44 764.025 277.621C760.904 262.412 757.215 250.494 754.548 242.663C746.149 217.977 738.318 206.286 743.312 193.915C746.092 187.048 751.597 182.848 755.399 180.522C752.732 178.479 724.754 157.765 694.223 168.491C691.045 169.569 670.955 176.663 662.613 195.56Z" fill="white" stroke="#161616" stroke-width="2" stroke-miterlimit="10"/>
<path opacity="0.19" d="M694.109 168.434C702.622 182.054 707.389 194.085 710.113 202.484C710.113 202.484 723.449 243.003 713.688 297.37C711.588 308.947 707.843 325.404 700.465 344.245C703.303 344.87 706.708 345.38 710.567 345.551C710.567 345.551 716.526 345.834 723.222 344.983C731.394 343.905 745.411 339.535 761.925 331.136C762.209 312.125 762.493 293.17 762.777 274.159C758.577 258.099 754.321 245.217 751.143 236.193C743.482 214.685 738.091 204.584 742.517 193.915C745.411 186.934 751.313 182.621 755.91 180.124C749.894 176.152 738.772 169.966 723.563 167.583C711.021 165.653 700.692 167.015 694.109 168.434Z" fill="#6D6C6C"/>
<path opacity="0.11" d="M701.884 167.128C711.021 178.365 721.69 194.766 728.273 216.387C746.943 278.131 716.242 332.271 709.148 344.132C715.107 344.075 722.087 343.564 729.691 342.089C743.255 339.478 754.094 334.825 761.869 330.682C762.152 312.976 762.436 295.27 762.72 277.621C757.896 261.22 753.356 245.67 747.17 224.559C742.971 210.088 739.679 198.227 745.865 188.75C748.873 184.153 753.072 181.6 756.25 180.124C738.147 175.754 719.987 171.441 701.884 167.128Z" fill="#6D6C6C"/>
<path d="M697.684 283.069C697.514 270.924 697.401 258.837 697.23 246.692C726.343 245.217 755.456 243.741 784.625 242.266C785.647 253.502 786.668 264.739 787.747 275.975C757.726 278.359 727.705 280.685 697.684 283.069Z" fill="white" stroke="#161616" stroke-width="2" stroke-miterlimit="10"/>
<path d="M688.832 279.096C688.832 274.67 688.832 270.243 688.832 265.817C726.23 263.036 763.628 260.199 801.026 257.418C801.31 262.866 801.594 268.371 801.934 273.819C764.252 275.521 726.514 277.337 688.832 279.096Z" fill="white" stroke="#161616" stroke-width="2" stroke-miterlimit="10"/>
<path d="M691.953 259.12C692.407 265.646 692.861 272.116 693.258 278.642C727.876 275.861 762.436 273.024 797.054 270.243C797.337 264.341 797.621 258.439 797.962 252.48C762.606 254.694 727.251 256.907 691.953 259.12Z" fill="white" stroke="#161616" stroke-width="2" stroke-miterlimit="10"/>
<path d="M683.497 273.762C684.519 299.64 685.54 325.518 686.618 351.396C725.208 347.083 763.798 342.827 802.388 338.514C803.58 313.09 804.772 287.666 805.964 262.242C765.103 266.101 724.3 269.903 683.497 273.762Z" fill="white" stroke="#161616" stroke-width="2" stroke-miterlimit="10"/>
<path d="M690.08 283.863C707.616 281.536 725.151 279.891 742.801 278.869C743.595 278.812 743.595 277.564 742.801 277.564C725.151 278.585 707.559 280.231 690.08 282.558C689.286 282.671 689.286 283.977 690.08 283.863Z" fill="#161616"/>
<path d="M709.659 287.325C723.108 285.623 736.558 283.864 750.065 282.161C750.859 282.048 750.859 280.799 750.065 280.856C736.615 282.558 723.165 284.318 709.659 286.02C708.864 286.19 708.864 287.439 709.659 287.325Z" fill="#161616"/>
<path d="M774.297 323.645C774.07 327.22 774.07 330.852 774.41 334.428C774.467 335.222 775.773 335.222 775.716 334.428C775.375 330.852 775.318 327.22 775.602 323.645C775.659 322.851 774.354 322.851 774.297 323.645Z" fill="#161616"/>
<path d="M774.864 323.758C781.901 323.929 788.882 323.531 795.862 322.623C795.635 322.396 795.408 322.169 795.238 321.999C795.124 325.291 795.238 328.525 795.465 331.76C795.521 332.555 796.827 332.555 796.77 331.76C796.486 328.525 796.429 325.234 796.543 321.999C796.543 321.659 796.259 321.318 795.919 321.375C788.938 322.283 781.958 322.623 774.921 322.51C774.013 322.453 774.013 323.702 774.864 323.758Z" fill="#161616"/>
<path d="M775.375 335.449C782.356 335.563 789.222 334.825 796.032 333.293C796.827 333.122 796.486 331.874 795.692 332.044C788.995 333.52 782.242 334.257 775.375 334.144C774.581 334.144 774.581 335.392 775.375 335.449Z" fill="#161616"/>
<path d="M778.042 327.731C782.355 328.015 786.612 327.788 790.925 327.107C791.719 326.993 791.379 325.745 790.584 325.858C786.441 326.539 782.242 326.71 778.042 326.426C777.248 326.369 777.248 327.674 778.042 327.731Z" fill="#161616"/>
<path d="M780.767 331.306C785.25 331.193 789.563 330.341 793.819 328.809C794.557 328.525 794.273 327.277 793.478 327.561C789.392 329.093 785.136 329.887 780.767 330.058C779.972 330.001 779.915 331.306 780.767 331.306Z" fill="#161616"/>
<path opacity="0.2" d="M701.827 348.445C702.849 324.496 703.87 300.548 704.835 276.543C737.977 273.875 771.176 271.265 804.318 268.598C803.58 291.298 802.786 313.998 802.048 336.698C768.622 340.613 735.253 344.529 701.827 348.445Z" fill="#6D6C6C"/>
<path opacity="0.2" d="M791.833 253.105C792.003 259.688 791.663 267.519 789.96 276.202C785.761 297.54 775.659 312.919 768.792 321.602C773.446 327.788 778.099 333.974 782.81 340.16C768.565 341.805 754.321 343.451 740.077 345.097C742.347 319.105 744.617 293.114 746.887 267.179C746.149 263.774 745.354 260.369 744.617 256.964C760.336 255.602 776.113 254.353 791.833 253.105Z" fill="#6D6C6C"/>
<path d="M752.335 178.989C764.195 177.4 778.326 204.64 783.944 224.219C790.414 246.749 787.576 266.214 785.25 276.486C780.71 296.632 771.289 310.82 765.387 318.481C766.295 321.489 768.395 329.661 764.933 338.627C759.826 351.736 745.979 358.036 744.9 356.844C744.56 356.447 745.241 354.801 750.632 348.615C749.497 349.807 741.325 357.922 732.132 355.993C730.543 355.652 728.556 355.255 727.421 353.666C724.754 349.807 729.181 341.067 738.601 331.363C728.329 333.917 725.605 333.236 725.095 332.101C723.789 329.377 734.288 321.659 738.09 318.821C743.709 314.679 748.759 311.841 752.221 310.082C761.925 289.936 761.415 274.216 760.563 266.838C759.315 255.942 755.229 244.082 754.434 241.812C752.164 235.285 751.086 233.81 746.546 222.063C739.225 203.222 739.225 199.987 739.509 197.49C740.531 189.999 745.581 179.897 752.335 178.989Z" fill="white" stroke="#161616" stroke-width="2" stroke-miterlimit="10"/>
<path d="M727.649 352.077C733.948 348.501 739.453 343.905 744.049 338.343C744.73 337.492 743.539 336.3 742.858 337.151C738.374 342.599 732.983 347.139 726.797 350.658C725.833 351.112 726.684 352.587 727.649 352.077Z" fill="#161616"/>
<path d="M733.21 355.879C739.453 352.644 744.787 348.161 749.1 342.599C749.781 341.748 748.306 340.897 747.625 341.748C743.539 347.083 738.318 351.339 732.359 354.403C731.394 354.914 732.245 356.39 733.21 355.879Z" fill="#161616"/>
<path opacity="0.17" d="M747.568 181.713C736.275 191.531 782.355 234.604 774.467 283.523C769.076 317.062 746.717 338.968 746.717 338.968C740.474 345.21 728.727 352.871 730.146 355.539C731.167 357.468 738.261 355.709 740.815 354.914C745.638 353.439 748.987 350.942 750.859 349.296C748.022 352.474 744.787 356.39 745.468 357.184C746.433 358.206 754.491 354.006 759.542 348.104C768.282 337.889 767.033 323.702 766.182 317.913C768.225 315.246 770.892 311.501 773.616 306.734C776.113 302.477 783.32 289.198 786.442 271.151C791.946 239.201 780.653 214.004 776.113 204.13C772.027 195.333 765.103 180.749 754.605 180.124C753.243 179.954 749.781 179.784 747.568 181.713Z" fill="#6D6C6C"/>
<path opacity="0.22" d="M785.817 270.243C782.753 279.153 779.121 288.517 774.808 298.334C771.743 305.315 768.622 311.841 765.444 318.027C763.855 323.134 760.847 330.795 754.888 338.684C748.646 346.969 741.779 352.02 737.182 354.914C738.488 354.971 740.077 354.857 741.836 354.403C746.262 353.382 749.214 350.942 750.689 349.466C748.987 351.623 747.227 353.722 745.525 355.879C746.887 355.652 749.043 355.255 751.427 354.176C763.912 348.558 766.522 333.292 766.692 332.271C767.146 329.49 767.43 324.723 765.728 318.821C769.814 313.997 774.978 306.79 779.121 297.086C783.717 286.417 785.25 276.826 785.817 270.243Z" fill="#6D6C6C"/>
<path d="M649.56 141.648C640.424 152.09 646.723 166.675 647.574 168.661C650.752 176.039 658.981 186.537 669.423 185.686C677.027 185.005 681.851 178.592 683.043 176.89C691.442 164.802 688.661 141.705 674.474 135.746C666.642 132.455 655.86 134.384 649.56 141.648Z" fill="#4872C8"/>
<path d="M672.601 150.955C672.998 155.438 677.709 156.403 680.887 163.78C683.157 169.115 683.156 174.336 682.759 178.081C686.448 178.422 693.258 178.592 700.976 175.641C707.048 173.314 711.305 169.966 713.858 167.639C712.667 164.972 710.907 161.056 708.808 156.403C699.728 136.597 698.252 134.895 696.039 134.043C687.186 130.695 671.863 142.613 672.601 150.955Z" fill="white" stroke="#161616" stroke-width="2" stroke-miterlimit="10"/>
<path d="M639.913 92.3324C637.984 95.0564 636.792 98.4047 636.622 112.762C636.508 125.02 637.189 136.2 638.324 146.131C640.878 144.656 643.432 143.18 645.985 141.705C647.12 144.486 649.05 148.288 652.341 151.977C658.868 159.297 666.813 161.794 670.331 162.702C674.02 161.794 683.213 158.957 690.194 150.274C694.79 144.486 696.266 138.754 696.606 137.449C698.706 128.879 696.663 121.786 695.585 118.835C696.947 118.21 699.047 117.019 700.636 114.862C703.984 110.322 704.892 102.207 700.749 99.4829C697.685 97.4399 692.237 98.6317 688.151 102.831C687.243 100.731 685.824 97.8372 683.554 94.8294C682.986 94.0917 678.73 88.5302 673.509 85.6359C663.464 79.8474 646.837 82.5714 639.913 92.3324Z" fill="white" stroke="#161616" stroke-width="2" stroke-miterlimit="10"/>
<path d="M635.77 110.152C633.5 109.755 629.301 108.563 627.315 105.101C623.91 99.2558 628.904 90.3461 630.152 88.1328C631.174 86.2601 633.898 81.7768 645.475 73.6616C654.271 67.4759 658.697 64.4114 663.464 62.9359C680.376 57.8851 695.869 66.6246 698.763 68.2704C704.835 71.7321 708.694 75.4776 711.758 78.4286C716.469 82.9686 721.746 88.1896 727.648 94.2051C742.801 113.841 748.135 131.774 750.292 142.499C752.732 154.644 755.229 167.015 747.965 174.279C740.701 181.543 727.422 180.068 719.306 176.606C708.013 171.782 703.189 161.567 699.444 153.679C693.088 140.173 692.69 127.234 693.315 118.835C698.99 117.189 701.884 111.854 700.579 107.825C699.557 104.647 695.755 101.469 691.839 102.604C688.831 103.455 686.675 106.577 686.845 110.209C684.121 110.152 676.857 109.528 669.934 104.307C664.883 100.504 662.329 95.9643 661.137 93.4673C658.016 93.8646 651.774 94.9996 645.475 99.5396C640.197 103.172 637.246 107.541 635.77 110.152Z" fill="#4872C8"/>
<path opacity="0.24" d="M673.339 120.991C680.149 129.22 682.305 137.902 682.305 137.902C684.519 147.663 681.34 155.949 679.922 159.297C683.497 156.573 687.129 153.849 690.704 151.125C693.201 159.411 695.641 167.639 698.138 175.925C700.011 175.755 703.87 175.074 707.729 172.35C710.68 170.25 712.439 167.81 713.404 166.277C708.807 162.021 700.011 152.601 695.982 137.789C694.053 130.638 693.769 124.282 693.996 119.515C699.16 117.416 701.827 112.365 700.749 108.165C699.955 105.101 696.833 101.412 692.804 101.98C689.456 102.49 686.675 105.782 686.732 109.811C684.178 109.811 678.163 109.527 671.863 105.725C665.337 101.809 662.216 96.3614 661.024 94.0347C661.308 104.931 664.656 111.23 667.664 114.975C669.65 117.529 670.558 117.643 673.339 120.991Z" fill="#6D6C6C"/>
<path d="M646.95 118.608C646.326 120.878 646.383 123.204 647.234 125.418C647.518 126.212 648.596 126.269 648.88 125.418C649.561 123.375 649.561 121.218 648.936 119.175C648.596 118.154 646.95 118.551 647.29 119.629C647.858 121.445 647.801 123.204 647.234 125.02C647.801 125.02 648.312 125.02 648.88 125.02C648.142 123.091 648.028 121.105 648.596 119.118C648.88 117.983 647.291 117.529 646.95 118.608Z" fill="#161616"/>
<path d="M644.907 115.089C646.382 114.181 648.198 114.351 649.447 115.543C650.242 116.281 651.433 115.089 650.639 114.351C648.879 112.649 646.155 112.308 644.056 113.613C643.148 114.181 643.999 115.656 644.907 115.089Z" fill="#161616"/>
<path d="M651.036 129.504C652.114 129.504 652.114 127.801 651.036 127.801C649.901 127.801 649.901 129.504 651.036 129.504Z" fill="#161616"/>
<path d="M654.781 124.567C654.781 124.623 654.781 124.68 654.781 124.737C654.781 125.191 655.179 125.588 655.633 125.588C656.087 125.588 656.484 125.191 656.484 124.737C656.484 124.68 656.484 124.623 656.484 124.567C656.484 124.113 656.087 123.715 655.633 123.715C655.179 123.715 654.781 124.056 654.781 124.567Z" fill="#161616"/>
<path d="M654.952 128.823C656.03 128.823 656.03 127.12 654.952 127.12C653.874 127.12 653.874 128.823 654.952 128.823Z" fill="#161616"/>
<path d="M631.571 121.218C630.89 123.488 630.946 125.815 631.741 128.028C632.025 128.823 633.103 128.823 633.387 128.028C634.068 125.985 634.125 123.829 633.557 121.786C633.273 120.707 631.628 121.161 631.911 122.24C632.422 124.056 632.365 125.815 631.741 127.574C632.308 127.574 632.819 127.574 633.387 127.574C632.706 125.645 632.592 123.658 633.217 121.672C633.5 120.594 631.855 120.14 631.571 121.218Z" fill="#161616"/>
<path d="M630.606 116.962C631.798 116.338 633.444 116.622 634.238 117.757C634.862 118.608 636.338 117.757 635.714 116.905C634.295 115.033 631.854 114.408 629.755 115.487C628.79 115.997 629.641 117.473 630.606 116.962Z" fill="#161616"/>
<path d="M649.731 147.834C654.1 147.04 657.903 144.713 660.74 141.251C661.251 140.627 660.343 139.719 659.832 140.343C657.165 143.635 653.59 145.791 649.39 146.586C648.596 146.756 648.936 148.004 649.731 147.834Z" fill="#161616"/>
<path d="M658.584 140.456C659.605 140.797 660.456 141.307 661.194 142.045C661.762 142.613 662.67 141.705 662.102 141.137C661.194 140.229 660.116 139.605 658.924 139.208C658.13 138.981 657.789 140.229 658.584 140.456Z" fill="#161616"/>
<path opacity="0.45" d="M693.939 66.2275C701.146 76.2155 710.397 90.3463 719.193 108.393C728.5 127.461 735.31 141.819 730.032 147.494C723.052 155.041 698.933 143.067 695.074 141.081C695.869 146.245 697.855 154.474 703.7 162.703C706.651 166.845 711.815 174.166 721.349 177.571C727.081 179.614 732.188 179.501 734.175 179.33C736.842 179.16 739.906 178.933 743.255 177.117C743.255 177.117 747.624 174.79 750.575 170.023C755.059 162.759 752.675 152.942 749.497 140.627C745.695 125.872 740.587 116.054 735.593 106.35C734.345 103.966 732.869 101.186 730.486 97.9508C728.102 94.6593 726.343 92.9 718.966 85.8063C708.013 75.194 706.311 73.6618 703.019 71.4485C699.387 68.9515 696.152 67.3058 693.939 66.2275Z" fill="#4064AE"/>
<path opacity="0.43" d="M680.262 162.759C680.716 164.064 681.738 167.753 680.262 171.839C678.049 177.911 671.92 179.954 670.955 180.238C663.975 182.508 655.179 178.933 649.277 171.158C650.071 173.201 651.83 176.833 655.462 180.011C657.278 181.6 662.216 185.856 669.196 185.345C670.388 185.232 678.049 184.664 681.567 178.025C684.121 173.314 683.554 167.412 680.262 162.759Z" fill="#4064AE"/>
</svg>
