<svg width="36" height="36" viewBox="0 0 36 36" fill="none" xmlns="http://www.w3.org/2000/svg">
<path fill-rule="evenodd" clip-rule="evenodd" d="M22.2589 23.9071C23.4862 23.1338 24.344 21.9455 24.6591 20.3999H18.3568V15.8666H29.3057C29.4659 16.5599 29.5727 17.3066 29.5727 17.9999C29.5727 21.8245 28.1697 24.8069 26.0125 26.809C23.9589 28.7157 21.2227 29.7333 18.3568 29.7333C13.7134 29.7333 9.7227 27.0778 7.81172 23.1973L9.78892 21.6877L11.7661 20.1781C12.6773 22.9439 15.2746 24.9333 18.3568 24.9333C19.8662 24.9333 21.1998 24.5743 22.2589 23.9071ZM7.81172 12.8021C9.7227 8.92207 13.7134 6.2666 18.3568 6.2666C21.3477 6.2666 24.0182 7.3866 26.1011 9.19993L22.6829 12.6133C21.5079 11.6533 20.0125 11.0666 18.3568 11.0666C15.2746 11.0666 12.6773 13.0559 11.7661 15.8218C11.5402 16.5071 11.4136 17.2378 11.4136 17.9999C11.4136 18.7583 11.5423 19.4959 11.7661 20.1781L9.78892 21.6877L7.81172 23.1973C7.0421 21.6335 6.60681 19.8682 6.60681 17.9999C6.60681 16.1301 7.04103 14.3669 7.81172 12.8021Z" fill="white"/>
</svg>
