<svg width="36" height="36" viewBox="0 0 36 36" fill="none" xmlns="http://www.w3.org/2000/svg">
<path fill-rule="evenodd" clip-rule="evenodd" d="M27.5433 12.8574C27.854 19.783 22.69 27.5046 13.5477 27.5046C10.7672 27.5046 8.17898 26.6891 6 25.2921C8.61182 25.5999 11.2195 24.8757 13.2894 23.2528C11.1352 23.2133 9.31653 21.7898 8.69026 19.8337C9.4616 19.9811 10.2206 19.9381 10.9135 19.75C8.54519 19.2735 6.9111 17.1405 6.96418 14.8595C7.62819 15.2281 8.38773 15.4498 9.19505 15.4746C7.00192 14.0097 6.38095 11.1143 7.67124 8.90108C10.0991 11.8803 13.727 13.8405 17.8195 14.0463C17.1019 10.9656 19.4383 8 22.6162 8C24.0327 8 25.3124 8.59738 26.2099 9.55447C27.3316 9.33392 28.3854 8.92408 29.3366 8.35972C28.9692 9.50966 28.1884 10.475 27.1718 11.0836C28.1678 10.9651 29.1166 10.7003 30 10.3087C29.3401 11.2965 28.5051 12.1634 27.5433 12.8574Z" fill="white"/>
</svg>
