<svg width="36" height="36" viewBox="0 0 36 36" fill="none" xmlns="http://www.w3.org/2000/svg">
<path fill-rule="evenodd" clip-rule="evenodd" d="M14.7815 22.0639V13.2453C17.969 14.7184 20.4377 16.1415 23.3575 17.6757C20.9493 18.9874 17.969 20.4592 14.7815 22.0639ZM32.5456 8.85945C31.9958 8.14797 31.0586 7.59414 30.0609 7.41079C27.1284 6.86385 8.83358 6.86229 5.90264 7.41079C5.10257 7.55809 4.39014 7.91415 3.77813 8.46736C1.19942 10.8181 2.00747 23.4241 2.62904 25.4661C2.89041 26.35 3.2283 26.9874 3.65384 27.4058C4.20209 27.959 4.95275 28.3399 5.81497 28.5107C8.22953 29.0013 20.6689 29.2755 30.0099 28.5844C30.8706 28.4371 31.6324 28.0439 32.2332 27.4672C34.6175 25.1259 34.4549 11.8119 32.5456 8.85945Z" fill="white"/>
</svg>
